<svg version="1.1" viewBox="0.0 0.0 600.0 371.0" fill="none" stroke="none" stroke-linecap="square" stroke-miterlimit="10" width="600" height="371" xmlns:xlink="http://www.w3.org/1999/xlink" xmlns="http://www.w3.org/2000/svg"><path fill="#ffffff" d="M0 0L600.0 0L600.0 371.0L0 371.0L0 0Z" fill-rule="nonzero"/><path stroke="#333333" stroke-width="1.0" stroke-linecap="butt" d="M55.5 332.5L581.5 332.5" fill-rule="nonzero"/><path stroke="#cccccc" stroke-width="1.0" stroke-linecap="butt" d="M55.5 251.5L581.5 251.5" fill-rule="nonzero"/><path stroke="#cccccc" stroke-width="1.0" stroke-linecap="butt" d="M55.5 169.5L581.5 169.5" fill-rule="nonzero"/><path stroke="#cccccc" stroke-width="1.0" stroke-linecap="butt" d="M55.5 88.5L581.5 88.5" fill-rule="nonzero"/><clipPath id="id_0"><path d="M55.55 88.28333L581.45 88.28333L581.45 332.45L55.55 332.45L55.55 88.28333Z" clip-rule="nonzero"/></clipPath><path stroke="#4285f4" stroke-width="2.0" stroke-linecap="butt" clip-path="url(#id_0)" d="M143.2 98.05L318.5 267.3389L493.8 299.89444" fill-rule="nonzero"/><path stroke="#ea4335" stroke-width="2.0" stroke-linecap="butt" clip-path="url(#id_0)" d="M143.2 98.05L318.5 254.31667L493.8 277.10556" fill-rule="nonzero"/><path stroke="#fbbc04" stroke-width="2.0" stroke-linecap="butt" clip-path="url(#id_0)" d="M143.2 98.05L318.5 234.78334L493.8 267.3389" fill-rule="nonzero"/><path fill="#000000" fill-opacity="0.0" clip-path="url(#id_0)" d="M146.2 98.05C146.2 99.706856 144.85686 101.05 143.2 101.05C141.54315 101.05 140.2 99.706856 140.2 98.05C140.2 96.39314 141.54315 95.05 143.2 95.05C144.85686 95.05 146.2 96.39314 146.2 98.05Z" fill-rule="nonzero"/><path fill="#000000" fill-opacity="0.0" clip-path="url(#id_0)" d="M321.5 267.3389C321.5 268.99576 320.15686 270.3389 318.5 270.3389C316.84314 270.3389 315.5 268.99576 315.5 267.3389C315.5 265.68204 316.84314 264.3389 318.5 264.3389C320.15686 264.3389 321.5 265.68204 321.5 267.3389Z" fill-rule="nonzero"/><path fill="#000000" fill-opacity="0.0" clip-path="url(#id_0)" d="M496.8 299.89444C496.8 301.5513 495.45685 302.89444 493.8 302.89444C492.14316 302.89444 490.8 301.5513 490.8 299.89444C490.8 298.23758 492.14316 296.89444 493.8 296.89444C495.45685 296.89444 496.8 298.23758 496.8 299.89444Z" fill-rule="nonzero"/><path fill="#000000" fill-opacity="0.0" clip-path="url(#id_0)" d="M146.2 98.05C146.2 99.706856 144.85686 101.05 143.2 101.05C141.54315 101.05 140.2 99.706856 140.2 98.05C140.2 96.39314 141.54315 95.05 143.2 95.05C144.85686 95.05 146.2 96.39314 146.2 98.05Z" fill-rule="nonzero"/><path fill="#000000" fill-opacity="0.0" clip-path="url(#id_0)" d="M321.5 254.31667C321.5 255.97353 320.15686 257.31668 318.5 257.31668C316.84314 257.31668 315.5 255.97353 315.5 254.31667C315.5 252.6598 316.84314 251.31667 318.5 251.31667C320.15686 251.31667 321.5 252.6598 321.5 254.31667Z" fill-rule="nonzero"/><path fill="#000000" fill-opacity="0.0" clip-path="url(#id_0)" d="M496.8 277.10556C496.8 278.76242 495.45685 280.10556 493.8 280.10556C492.14316 280.10556 490.8 278.76242 490.8 277.10556C490.8 275.4487 492.14316 274.10556 493.8 274.10556C495.45685 274.10556 496.8 275.4487 496.8 277.10556Z" fill-rule="nonzero"/><path fill="#000000" fill-opacity="0.0" clip-path="url(#id_0)" d="M146.2 98.05C146.2 99.706856 144.85686 101.05 143.2 101.05C141.54315 101.05 140.2 99.706856 140.2 98.05C140.2 96.39314 141.54315 95.05 143.2 95.05C144.85686 95.05 146.2 96.39314 146.2 98.05Z" fill-rule="nonzero"/><path fill="#000000" fill-opacity="0.0" clip-path="url(#id_0)" d="M321.5 234.78334C321.5 236.44019 320.15686 237.78334 318.5 237.78334C316.84314 237.78334 315.5 236.44019 315.5 234.78334C315.5 233.12648 316.84314 231.78334 318.5 231.78334C320.15686 231.78334 321.5 233.12648 321.5 234.78334Z" fill-rule="nonzero"/><path fill="#000000" fill-opacity="0.0" clip-path="url(#id_0)" d="M496.8 267.3389C496.8 268.99576 495.45685 270.3389 493.8 270.3389C492.14316 270.3389 490.8 268.99576 490.8 267.3389C490.8 265.68204 492.14316 264.3389 493.8 264.3389C495.45685 264.3389 496.8 265.68204 496.8 267.3389Z" fill-rule="nonzero"/><path fill="#000000" d="M26.05 332.21564Q26.05 330.6844 26.3625 329.7625Q26.675 328.825 27.284374 328.325Q27.909374 327.825 28.846874 327.825Q29.534374 327.825 30.05 328.10626Q30.58125 328.3875 30.925 328.91876Q31.26875 329.4344 31.45625 330.1844Q31.64375 330.9344 31.64375 332.21564Q31.64375 333.73126 31.33125 334.65314Q31.034374 335.575 30.409374 336.09064Q29.8 336.59064 28.846874 336.59064Q27.6125 336.59064 26.89375 335.7Q26.05 334.6375 26.05 332.21564ZM27.128124 332.21564Q27.128124 334.325 27.628124 335.02814Q28.128124 335.73126 28.846874 335.73126Q29.58125 335.73126 30.065624 335.02814Q30.565624 334.325 30.565624 332.21564Q30.565624 330.09064 30.065624 329.40314Q29.58125 328.7 28.83125 328.7Q28.1125 328.7 27.675 329.3094Q27.128124 330.09064 27.128124 332.21564ZM33.64375 336.45L33.64375 335.2469L34.846874 335.2469L34.846874 336.45L33.64375 336.45ZM36.05 332.21564Q36.05 330.6844 36.3625 329.7625Q36.675 328.825 37.284374 328.325Q37.909374 327.825 38.846874 327.825Q39.534374 327.825 40.05 328.10626Q40.58125 328.3875 40.925 328.91876Q41.26875 329.4344 41.45625 330.1844Q41.64375 330.9344 41.64375 332.21564Q41.64375 333.73126 41.33125 334.65314Q41.034374 335.575 40.409374 336.09064Q39.8 336.59064 38.846874 336.59064Q37.6125 336.59064 36.89375 335.7Q36.05 334.6375 36.05 332.21564ZM37.128124 332.21564Q37.128124 334.325 37.628124 335.02814Q38.128124 335.73126 38.846874 335.73126Q39.58125 335.73126 40.065624 335.02814Q40.565624 334.325 40.565624 332.21564Q40.565624 330.09064 40.065624 329.40314Q39.58125 328.7 38.83125 328.7Q38.1125 328.7 37.675 329.3094Q37.128124 330.09064 37.128124 332.21564ZM43.05 332.21564Q43.05 330.6844 43.3625 329.7625Q43.675 328.825 44.284374 328.325Q44.909374 327.825 45.846874 327.825Q46.534374 327.825 47.05 328.10626Q47.58125 328.3875 47.925 328.91876Q48.26875 329.4344 48.45625 330.1844Q48.64375 330.9344 48.64375 332.21564Q48.64375 333.73126 48.33125 334.65314Q48.034374 335.575 47.409374 336.09064Q46.8 336.59064 45.846874 336.59064Q44.6125 336.59064 43.89375 335.7Q43.05 334.6375 43.05 332.21564ZM44.128124 332.21564Q44.128124 334.325 44.628124 335.02814Q45.128124 335.73126 45.846874 335.73126Q46.58125 335.73126 47.065624 335.02814Q47.565624 334.325 47.565624 332.21564Q47.565624 330.09064 47.065624 329.40314Q46.58125 328.7 45.83125 328.7Q45.1125 328.7 44.675 329.3094Q44.128124 330.09064 44.128124 332.21564Z" fill-rule="nonzero"/><path fill="#000000" d="M26.05 252.81111L27.159374 252.71736Q27.284374 253.52986 27.721874 253.93611Q28.175 254.34236 28.815624 254.34236Q29.565624 254.34236 30.096874 253.76424Q30.628124 253.18611 30.628124 252.24861Q30.628124 251.34236 30.1125 250.82674Q29.6125 250.29549 28.784374 250.29549Q28.284374 250.29549 27.8625 250.52986Q27.45625 250.76424 27.221874 251.12361L26.2375 250.99861L27.065624 246.59236L31.346874 246.59236L31.346874 247.59236L27.909374 247.59236L27.45625 249.90486Q28.221874 249.35799 29.065624 249.35799Q30.190624 249.35799 30.95625 250.13924Q31.7375 250.92049 31.7375 252.15486Q31.7375 253.31111 31.065624 254.17049Q30.2375 255.20174 28.815624 255.20174Q27.64375 255.20174 26.89375 254.54549Q26.159374 253.88924 26.05 252.81111ZM33.64375 255.06111L33.64375 253.85799L34.846874 253.85799L34.846874 255.06111L33.64375 255.06111ZM36.05 250.82674Q36.05 249.29549 36.3625 248.37361Q36.675 247.43611 37.284374 246.93611Q37.909374 246.43611 38.846874 246.43611Q39.534374 246.43611 40.05 246.71736Q40.58125 246.99861 40.925 247.52986Q41.26875 248.04549 41.45625 248.79549Q41.64375 249.54549 41.64375 250.82674Q41.64375 252.34236 41.33125 253.26424Q41.034374 254.18611 40.409374 254.70174Q39.8 255.20174 38.846874 255.20174Q37.6125 255.20174 36.89375 254.31111Q36.05 253.24861 36.05 250.82674ZM37.128124 250.82674Q37.128124 252.93611 37.628124 253.63924Q38.128124 254.34236 38.846874 254.34236Q39.58125 254.34236 40.065624 253.63924Q40.565624 252.93611 40.565624 250.82674Q40.565624 248.70174 40.065624 248.01424Q39.58125 247.31111 38.83125 247.31111Q38.1125 247.31111 37.675 247.92049Q37.128124 248.70174 37.128124 250.82674ZM43.05 250.82674Q43.05 249.29549 43.3625 248.37361Q43.675 247.43611 44.284374 246.93611Q44.909374 246.43611 45.846874 246.43611Q46.534374 246.43611 47.05 246.71736Q47.58125 246.99861 47.925 247.52986Q48.26875 248.04549 48.45625 248.79549Q48.64375 249.54549 48.64375 250.82674Q48.64375 252.34236 48.33125 253.26424Q48.034374 254.18611 47.409374 254.70174Q46.8 255.20174 45.846874 255.20174Q44.6125 255.20174 43.89375 254.31111Q43.05 253.24861 43.05 250.82674ZM44.128124 250.82674Q44.128124 252.93611 44.628124 253.63924Q45.128124 254.34236 45.846874 254.34236Q46.58125 254.34236 47.065624 253.63924Q47.565624 252.93611 47.565624 250.82674Q47.565624 248.70174 47.065624 248.01424Q46.58125 247.31111 45.83125 247.31111Q45.1125 247.31111 44.675 247.92049Q44.128124 248.70174 44.128124 250.82674Z" fill-rule="nonzero"/><path fill="#000000" d="M23.01875 173.67223L21.971874 173.67223L21.971874 166.95348Q21.58125 167.31285 20.95625 167.68785Q20.346874 168.04723 19.8625 168.2191L19.8625 167.20348Q20.7375 166.7816 21.39375 166.20348Q22.065624 165.60973 22.346874 165.04723L23.01875 165.04723L23.01875 173.67223ZM26.05 169.43785Q26.05 167.9066 26.3625 166.98473Q26.675 166.04723 27.284374 165.54723Q27.909374 165.04723 28.846874 165.04723Q29.534374 165.04723 30.05 165.32848Q30.58125 165.60973 30.925 166.14098Q31.26875 166.6566 31.45625 167.4066Q31.64375 168.1566 31.64375 169.43785Q31.64375 170.95348 31.33125 171.87535Q31.034374 172.79723 30.409374 173.31285Q29.8 173.81285 28.846874 173.81285Q27.6125 173.81285 26.89375 172.92223Q26.05 171.85973 26.05 169.43785ZM27.128124 169.43785Q27.128124 171.54723 27.628124 172.25035Q28.128124 172.95348 28.846874 172.95348Q29.58125 172.95348 30.065624 172.25035Q30.565624 171.54723 30.565624 169.43785Q30.565624 167.31285 30.065624 166.62535Q29.58125 165.92223 28.83125 165.92223Q28.1125 165.92223 27.675 166.5316Q27.128124 167.31285 27.128124 169.43785ZM33.64375 173.67223L33.64375 172.4691L34.846874 172.4691L34.846874 173.67223L33.64375 173.67223ZM36.05 169.43785Q36.05 167.9066 36.3625 166.98473Q36.675 166.04723 37.284374 165.54723Q37.909374 165.04723 38.846874 165.04723Q39.534374 165.04723 40.05 165.32848Q40.58125 165.60973 40.925 166.14098Q41.26875 166.6566 41.45625 167.4066Q41.64375 168.1566 41.64375 169.43785Q41.64375 170.95348 41.33125 171.87535Q41.034374 172.79723 40.409374 173.31285Q39.8 173.81285 38.846874 173.81285Q37.6125 173.81285 36.89375 172.92223Q36.05 171.85973 36.05 169.43785ZM37.128124 169.43785Q37.128124 171.54723 37.628124 172.25035Q38.128124 172.95348 38.846874 172.95348Q39.58125 172.95348 40.065624 172.25035Q40.565624 171.54723 40.565624 169.43785Q40.565624 167.31285 40.065624 166.62535Q39.58125 165.92223 38.83125 165.92223Q38.1125 165.92223 37.675 166.5316Q37.128124 167.31285 37.128124 169.43785ZM43.05 169.43785Q43.05 167.9066 43.3625 166.98473Q43.675 166.04723 44.284374 165.54723Q44.909374 165.04723 45.846874 165.04723Q46.534374 165.04723 47.05 165.32848Q47.58125 165.60973 47.925 166.14098Q48.26875 166.6566 48.45625 167.4066Q48.64375 168.1566 48.64375 169.43785Q48.64375 170.95348 48.33125 171.87535Q48.034374 172.79723 47.409374 173.31285Q46.8 173.81285 45.846874 173.81285Q44.6125 173.81285 43.89375 172.92223Q43.05 171.85973 43.05 169.43785ZM44.128124 169.43785Q44.128124 171.54723 44.628124 172.25035Q45.128124 172.95348 45.846874 172.95348Q46.58125 172.95348 47.065624 172.25035Q47.565624 171.54723 47.565624 169.43785Q47.565624 167.31285 47.065624 166.62535Q46.58125 165.92223 45.83125 165.92223Q45.1125 165.92223 44.675 166.5316Q44.128124 167.31285 44.128124 169.43785Z" fill-rule="nonzero"/><path fill="#000000" d="M23.01875 92.28333L21.971874 92.28333L21.971874 85.56458Q21.58125 85.92396 20.95625 86.29896Q20.346874 86.65833 19.8625 86.83021L19.8625 85.81458Q20.7375 85.39271 21.39375 84.81458Q22.065624 84.22083 22.346874 83.65833L23.01875 83.65833L23.01875 92.28333ZM26.05 90.03333L27.159374 89.93958Q27.284374 90.75208 27.721874 91.15833Q28.175 91.56458 28.815624 91.56458Q29.565624 91.56458 30.096874 90.98646Q30.628124 90.40833 30.628124 89.47083Q30.628124 88.56458 30.1125 88.04896Q29.6125 87.51771 28.784374 87.51771Q28.284374 87.51771 27.8625 87.75208Q27.45625 87.98646 27.221874 88.34583L26.2375 88.22083L27.065624 83.81458L31.346874 83.81458L31.346874 84.81458L27.909374 84.81458L27.45625 87.12708Q28.221874 86.58021 29.065624 86.58021Q30.190624 86.58021 30.95625 87.36146Q31.7375 88.14271 31.7375 89.37708Q31.7375 90.53333 31.065624 91.39271Q30.2375 92.42396 28.815624 92.42396Q27.64375 92.42396 26.89375 91.76771Q26.159374 91.11146 26.05 90.03333ZM33.64375 92.28333L33.64375 91.08021L34.846874 91.08021L34.846874 92.28333L33.64375 92.28333ZM36.05 88.04896Q36.05 86.51771 36.3625 85.59583Q36.675 84.65833 37.284374 84.15833Q37.909374 83.65833 38.846874 83.65833Q39.534374 83.65833 40.05 83.93958Q40.58125 84.22083 40.925 84.75208Q41.26875 85.26771 41.45625 86.01771Q41.64375 86.76771 41.64375 88.04896Q41.64375 89.56458 41.33125 90.48646Q41.034374 91.40833 40.409374 91.92396Q39.8 92.42396 38.846874 92.42396Q37.6125 92.42396 36.89375 91.53333Q36.05 90.47083 36.05 88.04896ZM37.128124 88.04896Q37.128124 90.15833 37.628124 90.86146Q38.128124 91.56458 38.846874 91.56458Q39.58125 91.56458 40.065624 90.86146Q40.565624 90.15833 40.565624 88.04896Q40.565624 85.92396 40.065624 85.23646Q39.58125 84.53333 38.83125 84.53333Q38.1125 84.53333 37.675 85.14271Q37.128124 85.92396 37.128124 88.04896ZM43.05 88.04896Q43.05 86.51771 43.3625 85.59583Q43.675 84.65833 44.284374 84.15833Q44.909374 83.65833 45.846874 83.65833Q46.534374 83.65833 47.05 83.93958Q47.58125 84.22083 47.925 84.75208Q48.26875 85.26771 48.45625 86.01771Q48.64375 86.76771 48.64375 88.04896Q48.64375 89.56458 48.33125 90.48646Q48.034374 91.40833 47.409374 91.92396Q46.8 92.42396 45.846874 92.42396Q44.6125 92.42396 43.89375 91.53333Q43.05 90.47083 43.05 88.04896ZM44.128124 88.04896Q44.128124 90.15833 44.628124 90.86146Q45.128124 91.56458 45.846874 91.56458Q46.58125 91.56458 47.065624 90.86146Q47.565624 90.15833 47.565624 88.04896Q47.565624 85.92396 47.065624 85.23646Q46.58125 84.53333 45.83125 84.53333Q45.1125 84.53333 44.675 85.14271Q44.128124 85.92396 44.128124 88.04896Z" fill-rule="nonzero"/><path fill="#000000" d="M100.7625 346.4344L101.8875 346.73126Q101.52812 348.1219 100.60625 348.85626Q99.68437 349.59064 98.34062 349.59064Q96.95 349.59064 96.075 349.02814Q95.2 348.46564 94.74687 347.40314Q94.29375 346.325 94.29375 345.09064Q94.29375 343.7469 94.80937 342.7469Q95.325 341.7469 96.2625 341.23126Q97.21562 340.71564 98.35625 340.71564Q99.6375 340.71564 100.5125 341.3719Q101.40312 342.02814 101.74687 343.21564L100.62187 343.48126Q100.325 342.54376 99.74687 342.1219Q99.18437 341.6844 98.325 341.6844Q97.34062 341.6844 96.66875 342.16876Q96.0125 342.6375 95.73125 343.4344Q95.46562 344.23126 95.46562 345.09064Q95.46562 346.1844 95.77812 346.9969Q96.10625 347.8094 96.77812 348.21564Q97.45 348.6219 98.24687 348.6219Q99.2 348.6219 99.85625 348.075Q100.52812 347.52814 100.7625 346.4344ZM103.10625 346.34064Q103.10625 344.60626 104.05937 343.77814Q104.85625 343.09064 106.0125 343.09064Q107.29375 343.09064 108.10625 343.9344Q108.93437 344.7625 108.93437 346.2469Q108.93437 347.45 108.575 348.1375Q108.21562 348.825 107.5125 349.21564Q106.825 349.59064 106.0125 349.59064Q104.71562 349.59064 103.90312 348.7625Q103.10625 347.91876 103.10625 346.34064ZM104.18437 346.34064Q104.18437 347.52814 104.7 348.1219Q105.23125 348.71564 106.0125 348.71564Q106.80937 348.71564 107.325 348.1219Q107.84062 347.52814 107.84062 346.3094Q107.84062 345.15314 107.30937 344.5594Q106.79375 343.96564 106.0125 343.96564Q105.23125 343.96564 104.7 344.5594Q104.18437 345.1375 104.18437 346.34064ZM110.49687 349.45L110.49687 343.23126L111.43437 343.23126L111.43437 344.10626Q112.12187 343.09064 113.41875 343.09064Q113.98125 343.09064 114.45 343.29376Q114.93437 343.4969 115.16875 343.825Q115.40312 344.15314 115.49687 344.59064Q115.54375 344.8875 115.54375 345.6219L115.54375 349.45L114.49687 349.45L114.49687 345.66876Q114.49687 345.0125 114.37187 344.7Q114.24687 344.3875 113.93437 344.2Q113.62187 343.9969 113.2 343.9969Q112.52812 343.9969 112.02812 344.4344Q111.54375 344.85626 111.54375 346.04376L111.54375 349.45L110.49687 349.45ZM119.79375 348.5125L119.95 349.4344Q119.49687 349.52814 119.15312 349.52814Q118.575 349.52814 118.2625 349.35626Q117.95 349.16876 117.80937 348.8719Q117.68437 348.575 117.68437 347.6219L117.68437 344.04376L116.91875 344.04376L116.91875 343.23126L117.68437 343.23126L117.68437 341.6844L118.73125 341.0594L118.73125 343.23126L119.79375 343.23126L119.79375 344.04376L118.73125 344.04376L118.73125 347.6844Q118.73125 348.1375 118.77812 348.2625Q118.84062 348.3875 118.96562 348.46564Q119.09062 348.54376 119.325 348.54376Q119.5125 348.54376 119.79375 348.5125ZM120.48125 349.45L120.48125 343.23126L121.43437 343.23126L121.43437 344.16876Q121.79375 343.5125 122.09062 343.3094Q122.40312 343.09064 122.77812 343.09064Q123.30937 343.09064 123.85625 343.41876L123.49687 344.40314Q123.10625 344.16876 122.73125 344.16876Q122.37187 344.16876 122.09062 344.3875Q121.825 344.59064 121.71562 344.96564Q121.52812 345.52814 121.52812 346.1844L121.52812 349.45L120.48125 349.45ZM124.10625 346.34064Q124.10625 344.60626 125.05937 343.77814Q125.85625 343.09064 127.0125 343.09064Q128.29375 343.09064 129.10625 343.9344Q129.93437 344.7625 129.93437 346.2469Q129.93437 347.45 129.575 348.1375Q129.21562 348.825 128.5125 349.21564Q127.825 349.59064 127.0125 349.59064Q125.71562 349.59064 124.90312 348.7625Q124.10625 347.91876 124.10625 346.34064ZM125.18437 346.34064Q125.18437 347.52814 125.7 348.1219Q126.23125 348.71564 127.0125 348.71564Q127.80937 348.71564 128.325 348.1219Q128.84062 347.52814 128.84062 346.3094Q128.84062 345.15314 128.30937 344.5594Q127.79375 343.96564 127.0125 343.96564Q126.23125 343.96564 125.7 344.5594Q125.18437 345.1375 125.18437 346.34064ZM131.46562 349.45L131.46562 340.85626L132.52812 340.85626L132.52812 349.45L131.46562 349.45ZM143.7625 346.4344L144.8875 346.73126Q144.52812 348.1219 143.60625 348.85626Q142.68437 349.59064 141.34062 349.59064Q139.95 349.59064 139.075 349.02814Q138.2 348.46564 137.74687 347.40314Q137.29375 346.325 137.29375 345.09064Q137.29375 343.7469 137.80937 342.7469Q138.325 341.7469 139.2625 341.23126Q140.21562 340.71564 141.35625 340.71564Q142.6375 340.71564 143.5125 341.3719Q144.40312 342.02814 144.74687 343.21564L143.62187 343.48126Q143.325 342.54376 142.74687 342.1219Q142.18437 341.6844 141.325 341.6844Q140.34062 341.6844 139.66875 342.16876Q139.0125 342.6375 138.73125 343.4344Q138.46562 344.23126 138.46562 345.09064Q138.46562 346.1844 138.77812 346.9969Q139.10625 347.8094 139.77812 348.21564Q140.45 348.6219 141.24687 348.6219Q142.2 348.6219 142.85625 348.075Q143.52812 347.52814 143.7625 346.4344ZM146.10625 346.34064Q146.10625 344.60626 147.05937 343.77814Q147.85625 343.09064 149.0125 343.09064Q150.29375 343.09064 151.10625 343.9344Q151.93437 344.7625 151.93437 346.2469Q151.93437 347.45 151.575 348.1375Q151.21562 348.825 150.5125 349.21564Q149.825 349.59064 149.0125 349.59064Q147.71562 349.59064 146.90312 348.7625Q146.10625 347.91876 146.10625 346.34064ZM147.18437 346.34064Q147.18437 347.52814 147.7 348.1219Q148.23125 348.71564 149.0125 348.71564Q149.80937 348.71564 150.325 348.1219Q150.84062 347.52814 150.84062 346.3094Q150.84062 345.15314 150.30937 344.5594Q149.79375 343.96564 149.0125 343.96564Q148.23125 343.96564 147.7 344.5594Q147.18437 345.1375 147.18437 346.34064ZM153.46562 349.45L153.46562 340.85626L154.52812 340.85626L154.52812 349.45L153.46562 349.45ZM156.46562 349.45L156.46562 340.85626L157.52812 340.85626L157.52812 349.45L156.46562 349.45ZM159.49687 342.075L159.49687 340.85626L160.55937 340.85626L160.55937 342.075L159.49687 342.075ZM159.49687 349.45L159.49687 343.23126L160.55937 343.23126L160.55937 349.45L159.49687 349.45ZM162.075 347.59064L163.10625 347.4344Q163.2 348.0594 163.59062 348.3875Q163.99687 348.71564 164.73125 348.71564Q165.45 348.71564 165.79375 348.4344Q166.15312 348.1375 166.15312 347.73126Q166.15312 347.3719 165.84062 347.16876Q165.62187 347.02814 164.7625 346.8094Q163.60625 346.5125 163.15312 346.3094Q162.71562 346.09064 162.48125 345.71564Q162.24687 345.34064 162.24687 344.8719Q162.24687 344.46564 162.43437 344.10626Q162.62187 343.7469 162.95 343.5125Q163.2 343.34064 163.62187 343.21564Q164.04375 343.09064 164.54375 343.09064Q165.2625 343.09064 165.80937 343.3094Q166.37187 343.5125 166.6375 343.8719Q166.90312 344.23126 166.99687 344.825L165.96562 344.96564Q165.90312 344.4969 165.55937 344.23126Q165.23125 343.95 164.60625 343.95Q163.8875 343.95 163.575 344.2Q163.2625 344.4344 163.2625 344.7625Q163.2625 344.96564 163.3875 345.1219Q163.52812 345.29376 163.79375 345.40314Q163.95 345.46564 164.73125 345.66876Q165.85625 345.98126 166.29375 346.16876Q166.73125 346.35626 166.98125 346.71564Q167.23125 347.075 167.23125 347.6219Q167.23125 348.15314 166.91875 348.6219Q166.62187 349.075 166.04375 349.34064Q165.46562 349.59064 164.73125 349.59064Q163.5125 349.59064 162.87187 349.09064Q162.24687 348.575 162.075 347.59064ZM169.49687 342.075L169.49687 340.85626L170.55937 340.85626L170.55937 342.075L169.49687 342.075ZM169.49687 349.45L169.49687 343.23126L170.55937 343.23126L170.55937 349.45L169.49687 349.45ZM172.10625 346.34064Q172.10625 344.60626 173.05937 343.77814Q173.85625 343.09064 175.0125 343.09064Q176.29375 343.09064 177.10625 343.9344Q177.93437 344.7625 177.93437 346.2469Q177.93437 347.45 177.575 348.1375Q177.21562 348.825 176.5125 349.21564Q175.825 349.59064 175.0125 349.59064Q173.71562 349.59064 172.90312 348.7625Q172.10625 347.91876 172.10625 346.34064ZM173.18437 346.34064Q173.18437 347.52814 173.7 348.1219Q174.23125 348.71564 175.0125 348.71564Q175.80937 348.71564 176.325 348.1219Q176.84062 347.52814 176.84062 346.3094Q176.84062 345.15314 176.30937 344.5594Q175.79375 343.96564 175.0125 343.96564Q174.23125 343.96564 173.7 344.5594Q173.18437 345.1375 173.18437 346.34064ZM179.49687 349.45L179.49687 343.23126L180.43437 343.23126L180.43437 344.10626Q181.12187 343.09064 182.41875 343.09064Q182.98125 343.09064 183.45 343.29376Q183.93437 343.4969 184.16875 343.825Q184.40312 344.15314 184.49687 344.59064Q184.54375 344.8875 184.54375 345.6219L184.54375 349.45L183.49687 349.45L183.49687 345.66876Q183.49687 345.0125 183.37187 344.7Q183.24687 344.3875 182.93437 344.2Q182.62187 343.9969 182.2 343.9969Q181.52812 343.9969 181.02812 344.4344Q180.54375 344.85626 180.54375 346.04376L180.54375 349.45L179.49687 349.45ZM186.075 347.59064L187.10625 347.4344Q187.2 348.0594 187.59062 348.3875Q187.99687 348.71564 188.73125 348.71564Q189.45 348.71564 189.79375 348.4344Q190.15312 348.1375 190.15312 347.73126Q190.15312 347.3719 189.84062 347.16876Q189.62187 347.02814 188.7625 346.8094Q187.60625 346.5125 187.15312 346.3094Q186.71562 346.09064 186.48125 345.71564Q186.24687 345.34064 186.24687 344.8719Q186.24687 344.46564 186.43437 344.10626Q186.62187 343.7469 186.95 343.5125Q187.2 343.34064 187.62187 343.21564Q188.04375 343.09064 188.54375 343.09064Q189.2625 343.09064 189.80937 343.3094Q190.37187 343.5125 190.6375 343.8719Q190.90312 344.23126 190.99687 344.825L189.96562 344.96564Q189.90312 344.4969 189.55937 344.23126Q189.23125 343.95 188.60625 343.95Q187.8875 343.95 187.575 344.2Q187.2625 344.4344 187.2625 344.7625Q187.2625 344.96564 187.3875 345.1219Q187.52812 345.29376 187.79375 345.40314Q187.95 345.46564 188.73125 345.66876Q189.85625 345.98126 190.29375 346.16876Q190.73125 346.35626 190.98125 346.71564Q191.23125 347.075 191.23125 347.6219Q191.23125 348.15314 190.91875 348.6219Q190.62187 349.075 190.04375 349.34064Q189.46562 349.59064 188.73125 349.59064Q187.5125 349.59064 186.87187 349.09064Q186.24687 348.575 186.075 347.59064Z" fill-rule="nonzero"/><path fill="#000000" d="M262.04688 346.6844L263.10938 346.59064Q263.1875 347.2469 263.46875 347.65314Q263.75 348.0594 264.32812 348.325Q264.92188 348.575 265.65625 348.575Q266.29688 348.575 266.79688 348.3875Q267.29688 348.1844 267.53125 347.85626Q267.78125 347.5125 267.78125 347.1219Q267.78125 346.71564 267.54688 346.41876Q267.3125 346.10626 266.78125 345.90314Q266.42188 345.7625 265.23438 345.48126Q264.0625 345.2 263.59375 344.95Q262.96875 344.6219 262.67188 344.15314Q262.375 343.66876 262.375 343.075Q262.375 342.4344 262.73438 341.8719Q263.10938 341.29376 263.8125 341.0125Q264.53125 340.71564 265.39062 340.71564Q266.34375 340.71564 267.07812 341.02814Q267.8125 341.325 268.20312 341.9344Q268.59375 342.52814 268.625 343.27814L267.53125 343.35626Q267.4375 342.54376 266.92188 342.1375Q266.42188 341.71564 265.4375 341.71564Q264.40625 341.71564 263.9375 342.09064Q263.46875 342.46564 263.46875 342.9969Q263.46875 343.46564 263.79688 343.7625Q264.125 344.0594 265.5 344.3719Q266.89062 344.6844 267.40625 344.91876Q268.15625 345.27814 268.51562 345.8094Q268.875 346.325 268.875 347.02814Q268.875 347.71564 268.48438 348.325Q268.09375 348.91876 267.35938 349.2625Q266.625 349.59064 265.70312 349.59064Q264.53125 349.59064 263.73438 349.2625Q262.95312 348.91876 262.5 348.23126Q262.0625 347.54376 262.04688 346.6844ZM274.54688 347.45L275.64062 347.575Q275.39062 348.52814 274.6875 349.0594Q273.98438 349.59064 272.90625 349.59064Q271.54688 349.59064 270.73438 348.7469Q269.9375 347.90314 269.9375 346.3875Q269.9375 344.825 270.75 343.96564Q271.5625 343.09064 272.84375 343.09064Q274.09375 343.09064 274.875 343.9344Q275.67188 344.77814 275.67188 346.325Q275.67188 346.41876 275.67188 346.60626L271.03125 346.60626Q271.09375 347.6375 271.60938 348.1844Q272.125 348.71564 272.90625 348.71564Q273.48438 348.71564 273.89062 348.41876Q274.3125 348.10626 274.54688 347.45ZM271.09375 345.7469L274.5625 345.7469Q274.5 344.95 274.17188 344.5594Q273.65625 343.95 272.85938 343.95Q272.125 343.95 271.625 344.4344Q271.14062 344.91876 271.09375 345.7469ZM277.29688 349.45L277.29688 343.23126L278.23438 343.23126L278.23438 344.10626Q278.92188 343.09064 280.21875 343.09064Q280.78125 343.09064 281.25 343.29376Q281.73438 343.4969 281.96875 343.825Q282.20312 344.15314 282.29688 344.59064Q282.34375 344.8875 282.34375 345.6219L282.34375 349.45L281.29688 349.45L281.29688 345.66876Q281.29688 345.0125 281.17188 344.7Q281.04688 344.3875 280.73438 344.2Q280.42188 343.9969 280.0 343.9969Q279.32812 343.9969 278.82812 344.4344Q278.34375 344.85626 278.34375 346.04376L278.34375 349.45L277.29688 349.45ZM288.32812 349.45L288.32812 348.66876Q287.73438 349.59064 286.59375 349.59064Q285.84375 349.59064 285.21875 349.1844Q284.59375 348.7625 284.25 348.02814Q283.90625 347.29376 283.90625 346.34064Q283.90625 345.41876 284.21875 344.65314Q284.53125 343.8875 285.15625 343.4969Q285.78125 343.09064 286.54688 343.09064Q287.10938 343.09064 287.54688 343.325Q287.98438 343.5594 288.26562 343.9344L288.26562 340.85626L289.3125 340.85626L289.3125 349.45L288.32812 349.45ZM285.0 346.34064Q285.0 347.54376 285.5 348.1375Q286.0 348.71564 286.6875 348.71564Q287.375 348.71564 287.85938 348.15314Q288.34375 347.59064 288.34375 346.4344Q288.34375 345.15314 287.84375 344.5594Q287.35938 343.96564 286.64062 343.96564Q285.9375 343.96564 285.46875 344.54376Q285.0 345.10626 285.0 346.34064ZM291.42188 349.45L291.42188 340.85626L294.39062 340.85626Q295.39062 340.85626 295.92188 340.98126Q296.65625 341.15314 297.17188 341.59064Q297.85938 342.16876 298.1875 343.075Q298.53125 343.96564 298.53125 345.10626Q298.53125 346.09064 298.29688 346.84064Q298.07812 347.59064 297.71875 348.09064Q297.35938 348.59064 296.92188 348.8719Q296.5 349.15314 295.90625 349.3094Q295.3125 349.45 294.53125 349.45L291.42188 349.45ZM292.5625 348.4344L294.39062 348.4344Q295.25 348.4344 295.73438 348.27814Q296.21875 348.1219 296.5 347.825Q296.90625 347.4344 297.125 346.7469Q297.35938 346.0594 297.35938 345.09064Q297.35938 343.7469 296.90625 343.02814Q296.46875 342.29376 295.84375 342.04376Q295.375 341.8719 294.375 341.8719L292.5625 341.8719L292.5625 348.4344ZM304.35938 348.6844Q303.76562 349.1844 303.21875 349.3875Q302.6875 349.59064 302.0625 349.59064Q301.03125 349.59064 300.48438 349.09064Q299.9375 348.59064 299.9375 347.8094Q299.9375 347.35626 300.14062 346.98126Q300.34375 346.59064 300.6875 346.3719Q301.03125 346.1375 301.45312 346.02814Q301.75 345.9344 302.39062 345.85626Q303.65625 345.71564 304.26562 345.4969Q304.26562 345.27814 304.26562 345.23126Q304.26562 344.575 303.96875 344.3094Q303.5625 343.96564 302.76562 343.96564Q302.03125 343.96564 301.67188 344.23126Q301.3125 344.48126 301.14062 345.1375L300.10938 344.9969Q300.25 344.34064 300.57812 343.9344Q300.90625 343.52814 301.51562 343.3094Q302.125 343.09064 302.92188 343.09064Q303.71875 343.09064 304.21875 343.27814Q304.71875 343.46564 304.95312 343.7469Q305.1875 344.02814 305.28125 344.46564Q305.32812 344.73126 305.32812 345.4344L305.32812 346.84064Q305.32812 348.3094 305.39062 348.7Q305.46875 349.09064 305.67188 349.45L304.5625 349.45Q304.40625 349.1219 304.35938 348.6844ZM304.26562 346.325Q303.6875 346.5594 302.54688 346.73126Q301.89062 346.825 301.625 346.95Q301.35938 347.0594 301.20312 347.27814Q301.0625 347.4969 301.0625 347.77814Q301.0625 348.2 301.375 348.48126Q301.70312 348.7625 302.3125 348.7625Q302.92188 348.7625 303.39062 348.4969Q303.875 348.23126 304.09375 347.7625Q304.26562 347.40314 304.26562 346.71564L304.26562 346.325ZM309.59375 348.5125L309.75 349.4344Q309.29688 349.52814 308.95312 349.52814Q308.375 349.52814 308.0625 349.35626Q307.75 349.16876 307.60938 348.8719Q307.48438 348.575 307.48438 347.6219L307.48438 344.04376L306.71875 344.04376L306.71875 343.23126L307.48438 343.23126L307.48438 341.6844L308.53125 341.0594L308.53125 343.23126L309.59375 343.23126L309.59375 344.04376L308.53125 344.04376L308.53125 347.6844Q308.53125 348.1375 308.57812 348.2625Q308.64062 348.3875 308.76562 348.46564Q308.89062 348.54376 309.125 348.54376Q309.3125 348.54376 309.59375 348.5125ZM314.35938 348.6844Q313.76562 349.1844 313.21875 349.3875Q312.6875 349.59064 312.0625 349.59064Q311.03125 349.59064 310.48438 349.09064Q309.9375 348.59064 309.9375 347.8094Q309.9375 347.35626 310.14062 346.98126Q310.34375 346.59064 310.6875 346.3719Q311.03125 346.1375 311.45312 346.02814Q311.75 345.9344 312.39062 345.85626Q313.65625 345.71564 314.26562 345.4969Q314.26562 345.27814 314.26562 345.23126Q314.26562 344.575 313.96875 344.3094Q313.5625 343.96564 312.76562 343.96564Q312.03125 343.96564 311.67188 344.23126Q311.3125 344.48126 311.14062 345.1375L310.10938 344.9969Q310.25 344.34064 310.57812 343.9344Q310.90625 343.52814 311.51562 343.3094Q312.125 343.09064 312.92188 343.09064Q313.71875 343.09064 314.21875 343.27814Q314.71875 343.46564 314.95312 343.7469Q315.1875 344.02814 315.28125 344.46564Q315.32812 344.73126 315.32812 345.4344L315.32812 346.84064Q315.32812 348.3094 315.39062 348.7Q315.46875 349.09064 315.67188 349.45L314.5625 349.45Q314.40625 349.1219 314.35938 348.6844ZM314.26562 346.325Q313.6875 346.5594 312.54688 346.73126Q311.89062 346.825 311.625 346.95Q311.35938 347.0594 311.20312 347.27814Q311.0625 347.4969 311.0625 347.77814Q311.0625 348.2 311.375 348.48126Q311.70312 348.7625 312.3125 348.7625Q312.92188 348.7625 313.39062 348.4969Q313.875 348.23126 314.09375 347.7625Q314.26562 347.40314 314.26562 346.71564L314.26562 346.325ZM326.5625 346.4344L327.6875 346.73126Q327.32812 348.1219 326.40625 348.85626Q325.48438 349.59064 324.14062 349.59064Q322.75 349.59064 321.875 349.02814Q321.0 348.46564 320.54688 347.40314Q320.09375 346.325 320.09375 345.09064Q320.09375 343.7469 320.60938 342.7469Q321.125 341.7469 322.0625 341.23126Q323.01562 340.71564 324.15625 340.71564Q325.4375 340.71564 326.3125 341.3719Q327.20312 342.02814 327.54688 343.21564L326.42188 343.48126Q326.125 342.54376 325.54688 342.1219Q324.98438 341.6844 324.125 341.6844Q323.14062 341.6844 322.46875 342.16876Q321.8125 342.6375 321.53125 343.4344Q321.26562 344.23126 321.26562 345.09064Q321.26562 346.1844 321.57812 346.9969Q321.90625 347.8094 322.57812 348.21564Q323.25 348.6219 324.04688 348.6219Q325.0 348.6219 325.65625 348.075Q326.32812 347.52814 326.5625 346.4344ZM328.90625 346.34064Q328.90625 344.60626 329.85938 343.77814Q330.65625 343.09064 331.8125 343.09064Q333.09375 343.09064 333.90625 343.9344Q334.73438 344.7625 334.73438 346.2469Q334.73438 347.45 334.375 348.1375Q334.01562 348.825 333.3125 349.21564Q332.625 349.59064 331.8125 349.59064Q330.51562 349.59064 329.70312 348.7625Q328.90625 347.91876 328.90625 346.34064ZM329.98438 346.34064Q329.98438 347.52814 330.5 348.1219Q331.03125 348.71564 331.8125 348.71564Q332.60938 348.71564 333.125 348.1219Q333.64062 347.52814 333.64062 346.3094Q333.64062 345.15314 333.10938 344.5594Q332.59375 343.96564 331.8125 343.96564Q331.03125 343.96564 330.5 344.5594Q329.98438 345.1375 329.98438 346.34064ZM336.26562 349.45L336.26562 340.85626L337.32812 340.85626L337.32812 349.45L336.26562 349.45ZM339.26562 349.45L339.26562 340.85626L340.32812 340.85626L340.32812 349.45L339.26562 349.45ZM342.29688 342.075L342.29688 340.85626L343.35938 340.85626L343.35938 342.075L342.29688 342.075ZM342.29688 349.45L342.29688 343.23126L343.35938 343.23126L343.35938 349.45L342.29688 349.45ZM344.875 347.59064L345.90625 347.4344Q346.0 348.0594 346.39062 348.3875Q346.79688 348.71564 347.53125 348.71564Q348.25 348.71564 348.59375 348.4344Q348.95312 348.1375 348.95312 347.73126Q348.95312 347.3719 348.64062 347.16876Q348.42188 347.02814 347.5625 346.8094Q346.40625 346.5125 345.95312 346.3094Q345.51562 346.09064 345.28125 345.71564Q345.04688 345.34064 345.04688 344.8719Q345.04688 344.46564 345.23438 344.10626Q345.42188 343.7469 345.75 343.5125Q346.0 343.34064 346.42188 343.21564Q346.84375 343.09064 347.34375 343.09064Q348.0625 343.09064 348.60938 343.3094Q349.17188 343.5125 349.4375 343.8719Q349.70312 344.23126 349.79688 344.825L348.76562 344.96564Q348.70312 344.4969 348.35938 344.23126Q348.03125 343.95 347.40625 343.95Q346.6875 343.95 346.375 344.2Q346.0625 344.4344 346.0625 344.7625Q346.0625 344.96564 346.1875 345.1219Q346.32812 345.29376 346.59375 345.40314Q346.75 345.46564 347.53125 345.66876Q348.65625 345.98126 349.09375 346.16876Q349.53125 346.35626 349.78125 346.71564Q350.03125 347.075 350.03125 347.6219Q350.03125 348.15314 349.71875 348.6219Q349.42188 349.075 348.84375 349.34064Q348.26562 349.59064 347.53125 349.59064Q346.3125 349.59064 345.67188 349.09064Q345.04688 348.575 344.875 347.59064ZM352.29688 342.075L352.29688 340.85626L353.35938 340.85626L353.35938 342.075L352.29688 342.075ZM352.29688 349.45L352.29688 343.23126L353.35938 343.23126L353.35938 349.45L352.29688 349.45ZM354.90625 346.34064Q354.90625 344.60626 355.85938 343.77814Q356.65625 343.09064 357.8125 343.09064Q359.09375 343.09064 359.90625 343.9344Q360.73438 344.7625 360.73438 346.2469Q360.73438 347.45 360.375 348.1375Q360.01562 348.825 359.3125 349.21564Q358.625 349.59064 357.8125 349.59064Q356.51562 349.59064 355.70312 348.7625Q354.90625 347.91876 354.90625 346.34064ZM355.98438 346.34064Q355.98438 347.52814 356.5 348.1219Q357.03125 348.71564 357.8125 348.71564Q358.60938 348.71564 359.125 348.1219Q359.64062 347.52814 359.64062 346.3094Q359.64062 345.15314 359.10938 344.5594Q358.59375 343.96564 357.8125 343.96564Q357.03125 343.96564 356.5 344.5594Q355.98438 345.1375 355.98438 346.34064ZM362.29688 349.45L362.29688 343.23126L363.23438 343.23126L363.23438 344.10626Q363.92188 343.09064 365.21875 343.09064Q365.78125 343.09064 366.25 343.29376Q366.73438 343.4969 366.96875 343.825Q367.20312 344.15314 367.29688 344.59064Q367.34375 344.8875 367.34375 345.6219L367.34375 349.45L366.29688 349.45L366.29688 345.66876Q366.29688 345.0125 366.17188 344.7Q366.04688 344.3875 365.73438 344.2Q365.42188 343.9969 365.0 343.9969Q364.32812 343.9969 363.82812 344.4344Q363.34375 344.85626 363.34375 346.04376L363.34375 349.45L362.29688 349.45ZM368.875 347.59064L369.90625 347.4344Q370.0 348.0594 370.39062 348.3875Q370.79688 348.71564 371.53125 348.71564Q372.25 348.71564 372.59375 348.4344Q372.95312 348.1375 372.95312 347.73126Q372.95312 347.3719 372.64062 347.16876Q372.42188 347.02814 371.5625 346.8094Q370.40625 346.5125 369.95312 346.3094Q369.51562 346.09064 369.28125 345.71564Q369.04688 345.34064 369.04688 344.8719Q369.04688 344.46564 369.23438 344.10626Q369.42188 343.7469 369.75 343.5125Q370.0 343.34064 370.42188 343.21564Q370.84375 343.09064 371.34375 343.09064Q372.0625 343.09064 372.60938 343.3094Q373.17188 343.5125 373.4375 343.8719Q373.70312 344.23126 373.79688 344.825L372.76562 344.96564Q372.70312 344.4969 372.35938 344.23126Q372.03125 343.95 371.40625 343.95Q370.6875 343.95 370.375 344.2Q370.0625 344.4344 370.0625 344.7625Q370.0625 344.96564 370.1875 345.1219Q370.32812 345.29376 370.59375 345.40314Q370.75 345.46564 371.53125 345.66876Q372.65625 345.98126 373.09375 346.16876Q373.53125 346.35626 373.78125 346.71564Q374.03125 347.075 374.03125 347.6219Q374.03125 348.15314 373.71875 348.6219Q373.42188 349.075 372.84375 349.34064Q372.26562 349.59064 371.53125 349.59064Q370.3125 349.59064 369.67188 349.09064Q369.04688 348.575 368.875 347.59064Z" fill-rule="nonzero"/><path fill="#000000" d="M434.78436 349.45L438.08124 340.85626L439.3 340.85626L442.8156 349.45L441.53436 349.45L440.51874 346.84064L436.9406 346.84064L435.9875 349.45L434.78436 349.45ZM437.26874 345.91876L440.175 345.91876L439.28436 343.54376Q438.8625 342.46564 438.675 341.7625Q438.5031 342.59064 438.20624 343.40314L437.26874 345.91876ZM446.6281 349.45L446.6281 348.66876Q446.03436 349.59064 444.89374 349.59064Q444.14374 349.59064 443.51874 349.1844Q442.89374 348.7625 442.55 348.02814Q442.20624 347.29376 442.20624 346.34064Q442.20624 345.41876 442.51874 344.65314Q442.83124 343.8875 443.45624 343.4969Q444.08124 343.09064 444.84686 343.09064Q445.40936 343.09064 445.84686 343.325Q446.28436 343.5594 446.5656 343.9344L446.5656 340.85626L447.6125 340.85626L447.6125 349.45L446.6281 349.45ZM443.3 346.34064Q443.3 347.54376 443.8 348.1375Q444.3 348.71564 444.9875 348.71564Q445.675 348.71564 446.15936 348.15314Q446.64374 347.59064 446.64374 346.4344Q446.64374 345.15314 446.14374 344.5594Q445.65936 343.96564 444.9406 343.96564Q444.2375 343.96564 443.76874 344.54376Q443.3 345.10626 443.3 346.34064ZM449.58124 342.09064L449.58124 340.85626L450.64374 340.85626L450.64374 342.09064L449.58124 342.09064ZM448.2531 351.8719L448.4406 350.96564Q448.76874 351.04376 448.9406 351.04376Q449.26874 351.04376 449.425 350.825Q449.58124 350.6219 449.58124 349.7625L449.58124 343.23126L450.64374 343.23126L450.64374 349.79376Q450.64374 350.9344 450.34686 351.3875Q449.95624 351.98126 449.08124 351.98126Q448.64374 351.98126 448.2531 351.8719ZM456.675 349.45L456.675 348.52814Q455.9406 349.59064 454.6906 349.59064Q454.14374 349.59064 453.65936 349.3875Q453.1906 349.16876 452.95624 348.85626Q452.72186 348.52814 452.6281 348.0594Q452.5656 347.7625 452.5656 347.075L452.5656 343.23126L453.6281 343.23126L453.6281 346.6844Q453.6281 347.4969 453.6906 347.79376Q453.78436 348.2 454.09686 348.45Q454.425 348.6844 454.90936 348.6844Q455.3781 348.6844 455.78436 348.45Q456.20624 348.2 456.3781 347.77814Q456.5656 347.35626 456.5656 346.5594L456.5656 343.23126L457.6125 343.23126L457.6125 349.45L456.675 349.45ZM459.175 347.59064L460.20624 347.4344Q460.3 348.0594 460.6906 348.3875Q461.09686 348.71564 461.83124 348.71564Q462.55 348.71564 462.89374 348.4344Q463.2531 348.1375 463.2531 347.73126Q463.2531 347.3719 462.9406 347.16876Q462.72186 347.02814 461.8625 346.8094Q460.70624 346.5125 460.2531 346.3094Q459.8156 346.09064 459.58124 345.71564Q459.34686 345.34064 459.34686 344.8719Q459.34686 344.46564 459.53436 344.10626Q459.72186 343.7469 460.05 343.5125Q460.3 343.34064 460.72186 343.21564Q461.14374 343.09064 461.64374 343.09064Q462.3625 343.09064 462.90936 343.3094Q463.47186 343.5125 463.7375 343.8719Q464.0031 344.23126 464.09686 344.825L463.0656 344.96564Q463.0031 344.4969 462.65936 344.23126Q462.33124 343.95 461.70624 343.95Q460.9875 343.95 460.675 344.2Q460.3625 344.4344 460.3625 344.7625Q460.3625 344.96564 460.4875 345.1219Q460.6281 345.29376 460.89374 345.40314Q461.05 345.46564 461.83124 345.66876Q462.95624 345.98126 463.39374 346.16876Q463.83124 346.35626 464.08124 346.71564Q464.33124 347.075 464.33124 347.6219Q464.33124 348.15314 464.01874 348.6219Q463.72186 349.075 463.14374 349.34064Q462.5656 349.59064 461.83124 349.59064Q460.6125 349.59064 459.97186 349.09064Q459.34686 348.575 459.175 347.59064ZM468.89374 348.5125L469.05 349.4344Q468.59686 349.52814 468.2531 349.52814Q467.675 349.52814 467.3625 349.35626Q467.05 349.16876 466.90936 348.8719Q466.78436 348.575 466.78436 347.6219L466.78436 344.04376L466.01874 344.04376L466.01874 343.23126L466.78436 343.23126L466.78436 341.6844L467.83124 341.0594L467.83124 343.23126L468.89374 343.23126L468.89374 344.04376L467.83124 344.04376L467.83124 347.6844Q467.83124 348.1375 467.8781 348.2625Q467.9406 348.3875 468.0656 348.46564Q468.1906 348.54376 468.425 348.54376Q468.6125 348.54376 468.89374 348.5125ZM469.72186 349.45L469.72186 340.85626L472.97186 340.85626Q473.8156 340.85626 474.26874 340.9344Q474.90936 341.04376 475.33124 341.34064Q475.76874 341.6375 476.01874 342.16876Q476.28436 342.7 476.28436 343.34064Q476.28436 344.4344 475.58124 345.2Q474.89374 345.95 473.0656 345.95L470.8625 345.95L470.8625 349.45L469.72186 349.45ZM470.8625 344.95L473.08124 344.95Q474.1906 344.95 474.64374 344.54376Q475.1125 344.1219 475.1125 343.3719Q475.1125 342.84064 474.83124 342.46564Q474.5656 342.075 474.1281 341.95Q473.83124 341.8719 473.0656 341.8719L470.8625 341.8719L470.8625 344.95ZM481.65936 348.6844Q481.0656 349.1844 480.51874 349.3875Q479.9875 349.59064 479.3625 349.59064Q478.33124 349.59064 477.78436 349.09064Q477.2375 348.59064 477.2375 347.8094Q477.2375 347.35626 477.4406 346.98126Q477.64374 346.59064 477.9875 346.3719Q478.33124 346.1375 478.7531 346.02814Q479.05 345.9344 479.6906 345.85626Q480.95624 345.71564 481.5656 345.4969Q481.5656 345.27814 481.5656 345.23126Q481.5656 344.575 481.26874 344.3094Q480.8625 343.96564 480.0656 343.96564Q479.33124 343.96564 478.97186 344.23126Q478.6125 344.48126 478.4406 345.1375L477.40936 344.9969Q477.55 344.34064 477.8781 343.9344Q478.20624 343.52814 478.8156 343.3094Q479.425 343.09064 480.22186 343.09064Q481.01874 343.09064 481.51874 343.27814Q482.01874 343.46564 482.2531 343.7469Q482.4875 344.02814 482.58124 344.46564Q482.6281 344.73126 482.6281 345.4344L482.6281 346.84064Q482.6281 348.3094 482.6906 348.7Q482.76874 349.09064 482.97186 349.45L481.8625 349.45Q481.70624 349.1219 481.65936 348.6844ZM481.5656 346.325Q480.9875 346.5594 479.84686 346.73126Q479.1906 346.825 478.925 346.95Q478.65936 347.0594 478.5031 347.27814Q478.3625 347.4969 478.3625 347.77814Q478.3625 348.2 478.675 348.48126Q479.0031 348.7625 479.6125 348.7625Q480.22186 348.7625 480.6906 348.4969Q481.175 348.23126 481.39374 347.7625Q481.5656 347.40314 481.5656 346.71564L481.5656 346.325ZM486.89374 348.5125L487.05 349.4344Q486.59686 349.52814 486.2531 349.52814Q485.675 349.52814 485.3625 349.35626Q485.05 349.16876 484.90936 348.8719Q484.78436 348.575 484.78436 347.6219L484.78436 344.04376L484.01874 344.04376L484.01874 343.23126L484.78436 343.23126L484.78436 341.6844L485.83124 341.0594L485.83124 343.23126L486.89374 343.23126L486.89374 344.04376L485.83124 344.04376L485.83124 347.6844Q485.83124 348.1375 485.8781 348.2625Q485.9406 348.3875 486.0656 348.46564Q486.1906 348.54376 486.425 348.54376Q486.6125 348.54376 486.89374 348.5125ZM487.59686 349.45L487.59686 340.85626L488.64374 340.85626L488.64374 343.9344Q489.3781 343.09064 490.5031 343.09064Q491.20624 343.09064 491.70624 343.3719Q492.22186 343.6375 492.4406 344.1219Q492.65936 344.59064 492.65936 345.5125L492.65936 349.45L491.6125 349.45L491.6125 345.5125Q491.6125 344.71564 491.26874 344.35626Q490.925 343.9969 490.3 343.9969Q489.83124 343.9969 489.40936 344.2469Q489.0031 344.48126 488.8156 344.90314Q488.64374 345.3094 488.64374 346.04376L488.64374 349.45L487.59686 349.45ZM503.8625 346.4344L504.9875 346.73126Q504.6281 348.1219 503.70624 348.85626Q502.78436 349.59064 501.4406 349.59064Q500.05 349.59064 499.175 349.02814Q498.3 348.46564 497.84686 347.40314Q497.39374 346.325 497.39374 345.09064Q497.39374 343.7469 497.90936 342.7469Q498.425 341.7469 499.3625 341.23126Q500.3156 340.71564 501.45624 340.71564Q502.7375 340.71564 503.6125 341.3719Q504.5031 342.02814 504.84686 343.21564L503.72186 343.48126Q503.425 342.54376 502.84686 342.1219Q502.28436 341.6844 501.425 341.6844Q500.4406 341.6844 499.76874 342.16876Q499.1125 342.6375 498.83124 343.4344Q498.5656 344.23126 498.5656 345.09064Q498.5656 346.1844 498.8781 346.9969Q499.20624 347.8094 499.8781 348.21564Q500.55 348.6219 501.34686 348.6219Q502.3 348.6219 502.95624 348.075Q503.6281 347.52814 503.8625 346.4344ZM506.20624 346.34064Q506.20624 344.60626 507.15936 343.77814Q507.95624 343.09064 509.1125 343.09064Q510.39374 343.09064 511.20624 343.9344Q512.03436 344.7625 512.03436 346.2469Q512.03436 347.45 511.675 348.1375Q511.3156 348.825 510.6125 349.21564Q509.925 349.59064 509.1125 349.59064Q507.8156 349.59064 507.0031 348.7625Q506.20624 347.91876 506.20624 346.34064ZM507.28436 346.34064Q507.28436 347.52814 507.8 348.1219Q508.33124 348.71564 509.1125 348.71564Q509.90936 348.71564 510.425 348.1219Q510.9406 347.52814 510.9406 346.3094Q510.9406 345.15314 510.40936 344.5594Q509.89374 343.96564 509.1125 343.96564Q508.33124 343.96564 507.8 344.5594Q507.28436 345.1375 507.28436 346.34064ZM513.5656 349.45L513.5656 340.85626L514.6281 340.85626L514.6281 349.45L513.5656 349.45ZM516.5656 349.45L516.5656 340.85626L517.6281 340.85626L517.6281 349.45L516.5656 349.45ZM519.59686 342.075L519.59686 340.85626L520.65936 340.85626L520.65936 342.075L519.59686 342.075ZM519.59686 349.45L519.59686 343.23126L520.65936 343.23126L520.65936 349.45L519.59686 349.45ZM522.175 347.59064L523.20624 347.4344Q523.3 348.0594 523.6906 348.3875Q524.09686 348.71564 524.83124 348.71564Q525.55 348.71564 525.89374 348.4344Q526.2531 348.1375 526.2531 347.73126Q526.2531 347.3719 525.9406 347.16876Q525.72186 347.02814 524.8625 346.8094Q523.70624 346.5125 523.2531 346.3094Q522.8156 346.09064 522.58124 345.71564Q522.34686 345.34064 522.34686 344.8719Q522.34686 344.46564 522.53436 344.10626Q522.72186 343.7469 523.05 343.5125Q523.3 343.34064 523.72186 343.21564Q524.14374 343.09064 524.64374 343.09064Q525.3625 343.09064 525.90936 343.3094Q526.47186 343.5125 526.7375 343.8719Q527.0031 344.23126 527.09686 344.825L526.0656 344.96564Q526.0031 344.4969 525.65936 344.23126Q525.33124 343.95 524.70624 343.95Q523.9875 343.95 523.675 344.2Q523.3625 344.4344 523.3625 344.7625Q523.3625 344.96564 523.4875 345.1219Q523.6281 345.29376 523.89374 345.40314Q524.05 345.46564 524.83124 345.66876Q525.95624 345.98126 526.39374 346.16876Q526.83124 346.35626 527.08124 346.71564Q527.33124 347.075 527.33124 347.6219Q527.33124 348.15314 527.01874 348.6219Q526.72186 349.075 526.14374 349.34064Q525.5656 349.59064 524.83124 349.59064Q523.6125 349.59064 522.97186 349.09064Q522.34686 348.575 522.175 347.59064ZM529.59686 342.075L529.59686 340.85626L530.65936 340.85626L530.65936 342.075L529.59686 342.075ZM529.59686 349.45L529.59686 343.23126L530.65936 343.23126L530.65936 349.45L529.59686 349.45ZM532.20624 346.34064Q532.20624 344.60626 533.15936 343.77814Q533.95624 343.09064 535.1125 343.09064Q536.39374 343.09064 537.20624 343.9344Q538.03436 344.7625 538.03436 346.2469Q538.03436 347.45 537.675 348.1375Q537.3156 348.825 536.6125 349.21564Q535.925 349.59064 535.1125 349.59064Q533.8156 349.59064 533.0031 348.7625Q532.20624 347.91876 532.20624 346.34064ZM533.28436 346.34064Q533.28436 347.52814 533.8 348.1219Q534.33124 348.71564 535.1125 348.71564Q535.90936 348.71564 536.425 348.1219Q536.9406 347.52814 536.9406 346.3094Q536.9406 345.15314 536.40936 344.5594Q535.89374 343.96564 535.1125 343.96564Q534.33124 343.96564 533.8 344.5594Q533.28436 345.1375 533.28436 346.34064ZM539.59686 349.45L539.59686 343.23126L540.53436 343.23126L540.53436 344.10626Q541.22186 343.09064 542.51874 343.09064Q543.08124 343.09064 543.55 343.29376Q544.03436 343.4969 544.26874 343.825Q544.5031 344.15314 544.59686 344.59064Q544.64374 344.8875 544.64374 345.6219L544.64374 349.45L543.59686 349.45L543.59686 345.66876Q543.59686 345.0125 543.47186 344.7Q543.34686 344.3875 543.03436 344.2Q542.72186 343.9969 542.3 343.9969Q541.6281 343.9969 541.1281 344.4344Q540.64374 344.85626 540.64374 346.04376L540.64374 349.45L539.59686 349.45ZM546.175 347.59064L547.20624 347.4344Q547.3 348.0594 547.6906 348.3875Q548.09686 348.71564 548.83124 348.71564Q549.55 348.71564 549.89374 348.4344Q550.2531 348.1375 550.2531 347.73126Q550.2531 347.3719 549.9406 347.16876Q549.72186 347.02814 548.8625 346.8094Q547.70624 346.5125 547.2531 346.3094Q546.8156 346.09064 546.58124 345.71564Q546.34686 345.34064 546.34686 344.8719Q546.34686 344.46564 546.53436 344.10626Q546.72186 343.7469 547.05 343.5125Q547.3 343.34064 547.72186 343.21564Q548.14374 343.09064 548.64374 343.09064Q549.3625 343.09064 549.90936 343.3094Q550.47186 343.5125 550.7375 343.8719Q551.0031 344.23126 551.09686 344.825L550.0656 344.96564Q550.0031 344.4969 549.65936 344.23126Q549.33124 343.95 548.70624 343.95Q547.9875 343.95 547.675 344.2Q547.3625 344.4344 547.3625 344.7625Q547.3625 344.96564 547.4875 345.1219Q547.6281 345.29376 547.89374 345.40314Q548.05 345.46564 548.83124 345.66876Q549.95624 345.98126 550.39374 346.16876Q550.83124 346.35626 551.08124 346.71564Q551.33124 347.075 551.33124 347.6219Q551.33124 348.15314 551.01874 348.6219Q550.72186 349.075 550.14374 349.34064Q549.5656 349.59064 548.83124 349.59064Q547.6125 349.59064 546.97186 349.09064Q546.34686 348.575 546.175 347.59064Z" fill-rule="nonzero"/><path stroke="#4285f4" stroke-width="4.0" stroke-linecap="butt" d="M160.5 61.916668L172.5 61.916668" fill-rule="nonzero"/><path fill="#1a1a1a" d="M181.0 61.68229Q181.0 60.15104 181.3125 59.229164Q181.625 58.291664 182.23438 57.791664Q182.85938 57.291664 183.79688 57.291664Q184.48438 57.291664 185.0 57.572914Q185.53125 57.854164 185.875 58.385414Q186.21875 58.90104 186.40625 59.65104Q186.59375 60.40104 186.59375 61.68229Q186.59375 63.197914 186.28125 64.11979Q185.98438 65.041664 185.35938 65.55729Q184.75 66.05729 183.79688 66.05729Q182.5625 66.05729 181.84375 65.166664Q181.0 64.104164 181.0 61.68229ZM182.07812 61.68229Q182.07812 63.791664 182.57812 64.49479Q183.07812 65.197914 183.79688 65.197914Q184.53125 65.197914 185.01562 64.49479Q185.51562 63.791664 185.51562 61.68229Q185.51562 59.55729 185.01562 58.86979Q184.53125 58.166664 183.78125 58.166664Q183.0625 58.166664 182.625 58.77604Q182.07812 59.55729 182.07812 61.68229ZM188.59375 65.916664L188.59375 64.71354L189.79688 64.71354L189.79688 65.916664L188.59375 65.916664ZM191.0 63.666664L192.10938 63.572914Q192.23438 64.385414 192.67188 64.791664Q193.125 65.197914 193.76562 65.197914Q194.51562 65.197914 195.04688 64.61979Q195.57812 64.041664 195.57812 63.104164Q195.57812 62.197914 195.0625 61.68229Q194.5625 61.15104 193.73438 61.15104Q193.23438 61.15104 192.8125 61.385414Q192.40625 61.61979 192.17188 61.979164L191.1875 61.854164L192.01562 57.447914L196.29688 57.447914L196.29688 58.447914L192.85938 58.447914L192.40625 60.760414Q193.17188 60.21354 194.01562 60.21354Q195.14062 60.21354 195.90625 60.99479Q196.6875 61.77604 196.6875 63.010414Q196.6875 64.166664 196.01562 65.02604Q195.1875 66.05729 193.76562 66.05729Q192.59375 66.05729 191.84375 65.40104Q191.10938 64.74479 191.0 63.666664ZM201.04688 63.15104L202.10938 63.05729Q202.1875 63.71354 202.46875 64.11979Q202.75 64.52604 203.32812 64.791664Q203.92188 65.041664 204.65625 65.041664Q205.29688 65.041664 205.79688 64.854164Q206.29688 64.65104 206.53125 64.322914Q206.78125 63.979164 206.78125 63.58854Q206.78125 63.18229 206.54688 62.885414Q206.3125 62.572914 205.78125 62.36979Q205.42188 62.229164 204.23438 61.947914Q203.0625 61.666664 202.59375 61.416664Q201.96875 61.08854 201.67188 60.61979Q201.375 60.135414 201.375 59.541664Q201.375 58.90104 201.73438 58.33854Q202.10938 57.760414 202.8125 57.479164Q203.53125 57.18229 204.39062 57.18229Q205.34375 57.18229 206.07812 57.49479Q206.8125 57.791664 207.20312 58.40104Q207.59375 58.99479 207.625 59.74479L206.53125 59.822914Q206.4375 59.010414 205.92188 58.604164Q205.42188 58.18229 204.4375 58.18229Q203.40625 58.18229 202.9375 58.55729Q202.46875 58.93229 202.46875 59.46354Q202.46875 59.93229 202.79688 60.229164Q203.125 60.52604 204.5 60.83854Q205.89062 61.15104 206.40625 61.385414Q207.15625 61.74479 207.51562 62.27604Q207.875 62.791664 207.875 63.49479Q207.875 64.18229 207.48438 64.791664Q207.09375 65.385414 206.35938 65.729164Q205.625 66.05729 204.70312 66.05729Q203.53125 66.05729 202.73438 65.729164Q201.95312 65.385414 201.5 64.697914Q201.0625 64.010414 201.04688 63.15104ZM213.54688 63.916664L214.64062 64.041664Q214.39062 64.99479 213.6875 65.52604Q212.98438 66.05729 211.90625 66.05729Q210.54688 66.05729 209.73438 65.21354Q208.9375 64.36979 208.9375 62.854164Q208.9375 61.291664 209.75 60.43229Q210.5625 59.55729 211.84375 59.55729Q213.09375 59.55729 213.875 60.40104Q214.67188 61.24479 214.67188 62.791664Q214.67188 62.885414 214.67188 63.072914L210.03125 63.072914Q210.09375 64.104164 210.60938 64.65104Q211.125 65.18229 211.90625 65.18229Q212.48438 65.18229 212.89062 64.885414Q213.3125 64.572914 213.54688 63.916664ZM210.09375 62.21354L213.5625 62.21354Q213.5 61.416664 213.17188 61.02604Q212.65625 60.416664 211.85938 60.416664Q211.125 60.416664 210.625 60.90104Q210.14062 61.385414 210.09375 62.21354ZM220.35938 63.635414L221.39062 63.77604Q221.21875 64.83854 220.51562 65.447914Q219.8125 66.05729 218.79688 66.05729Q217.51562 66.05729 216.73438 65.229164Q215.96875 64.385414 215.96875 62.822914Q215.96875 61.822914 216.29688 61.072914Q216.64062 60.30729 217.3125 59.93229Q218.0 59.55729 218.8125 59.55729Q219.8125 59.55729 220.45312 60.072914Q221.10938 60.572914 221.29688 61.52604L220.26562 61.68229Q220.125 61.05729 219.75 60.74479Q219.375 60.416664 218.84375 60.416664Q218.04688 60.416664 217.54688 60.99479Q217.04688 61.55729 217.04688 62.791664Q217.04688 64.05729 217.53125 64.61979Q218.01562 65.18229 218.78125 65.18229Q219.40625 65.18229 219.8125 64.80729Q220.23438 64.43229 220.35938 63.635414ZM221.90625 62.80729Q221.90625 61.072914 222.85938 60.24479Q223.65625 59.55729 224.8125 59.55729Q226.09375 59.55729 226.90625 60.40104Q227.73438 61.229164 227.73438 62.71354Q227.73438 63.916664 227.375 64.604164Q227.01562 65.291664 226.3125 65.68229Q225.625 66.05729 224.8125 66.05729Q223.51562 66.05729 222.70312 65.229164Q221.90625 64.385414 221.90625 62.80729ZM222.98438 62.80729Q222.98438 63.99479 223.5 64.58854Q224.03125 65.18229 224.8125 65.18229Q225.60938 65.18229 226.125 64.58854Q226.64062 63.99479 226.64062 62.77604Q226.64062 61.61979 226.10938 61.02604Q225.59375 60.43229 224.8125 60.43229Q224.03125 60.43229 223.5 61.02604Q222.98438 61.604164 222.98438 62.80729ZM229.29688 65.916664L229.29688 59.697914L230.23438 59.697914L230.23438 60.572914Q230.92188 59.55729 232.21875 59.55729Q232.78125 59.55729 233.25 59.760414Q233.73438 59.96354 233.96875 60.291664Q234.20312 60.61979 234.29688 61.05729Q234.34375 61.354164 234.34375 62.08854L234.34375 65.916664L233.29688 65.916664L233.29688 62.135414Q233.29688 61.479164 233.17188 61.166664Q233.04688 60.854164 232.73438 60.666664Q232.42188 60.46354 232.0 60.46354Q231.32812 60.46354 230.82812 60.90104Q230.34375 61.322914 230.34375 62.510414L230.34375 65.916664L229.29688 65.916664ZM240.32812 65.916664L240.32812 65.135414Q239.73438 66.05729 238.59375 66.05729Q237.84375 66.05729 237.21875 65.65104Q236.59375 65.229164 236.25 64.49479Q235.90625 63.760414 235.90625 62.80729Q235.90625 61.885414 236.21875 61.11979Q236.53125 60.354164 237.15625 59.96354Q237.78125 59.55729 238.54688 59.55729Q239.10938 59.55729 239.54688 59.791664Q239.98438 60.02604 240.26562 60.40104L240.26562 57.322914L241.3125 57.322914L241.3125 65.916664L240.32812 65.916664ZM237.0 62.80729Q237.0 64.010414 237.5 64.604164Q238.0 65.18229 238.6875 65.18229Q239.375 65.18229 239.85938 64.61979Q240.34375 64.05729 240.34375 62.90104Q240.34375 61.61979 239.84375 61.02604Q239.35938 60.43229 238.64062 60.43229Q237.9375 60.43229 237.46875 61.010414Q237.0 61.572914 237.0 62.80729Z" fill-rule="nonzero"/><path stroke="#ea4335" stroke-width="4.0" stroke-linecap="butt" d="M258.5 61.916668L270.5 61.916668" fill-rule="nonzero"/><path fill="#1a1a1a" d="M279.0 63.65104L280.0625 63.510414Q280.23438 64.40104 280.67188 64.80729Q281.10938 65.197914 281.73438 65.197914Q282.48438 65.197914 283.0 64.68229Q283.51562 64.166664 283.51562 63.40104Q283.51562 62.68229 283.03125 62.21354Q282.5625 61.729164 281.82812 61.729164Q281.53125 61.729164 281.07812 61.854164L281.20312 60.916664Q281.3125 60.93229 281.375 60.93229Q282.04688 60.93229 282.57812 60.58854Q283.125 60.229164 283.125 59.49479Q283.125 58.916664 282.73438 58.541664Q282.34375 58.15104 281.71875 58.15104Q281.10938 58.15104 280.6875 58.541664Q280.28125 58.93229 280.17188 59.697914L279.10938 59.510414Q279.29688 58.46354 279.98438 57.885414Q280.67188 57.291664 281.6875 57.291664Q282.39062 57.291664 282.98438 57.604164Q283.57812 57.90104 283.89062 58.416664Q284.20312 58.93229 284.20312 59.52604Q284.20312 60.072914 283.90625 60.541664Q283.60938 60.99479 283.03125 61.260414Q283.78125 61.43229 284.20312 61.99479Q284.625 62.541664 284.625 63.385414Q284.625 64.510414 283.79688 65.291664Q282.98438 66.072914 281.73438 66.072914Q280.60938 66.072914 279.85938 65.40104Q279.10938 64.71354 279.0 63.65104ZM289.04688 63.15104L290.10938 63.05729Q290.1875 63.71354 290.46875 64.11979Q290.75 64.52604 291.32812 64.791664Q291.92188 65.041664 292.65625 65.041664Q293.29688 65.041664 293.79688 64.854164Q294.29688 64.65104 294.53125 64.322914Q294.78125 63.979164 294.78125 63.58854Q294.78125 63.18229 294.54688 62.885414Q294.3125 62.572914 293.78125 62.36979Q293.42188 62.229164 292.23438 61.947914Q291.0625 61.666664 290.59375 61.416664Q289.96875 61.08854 289.67188 60.61979Q289.375 60.135414 289.375 59.541664Q289.375 58.90104 289.73438 58.33854Q290.10938 57.760414 290.8125 57.479164Q291.53125 57.18229 292.39062 57.18229Q293.34375 57.18229 294.07812 57.49479Q294.8125 57.791664 295.20312 58.40104Q295.59375 58.99479 295.625 59.74479L294.53125 59.822914Q294.4375 59.010414 293.92188 58.604164Q293.42188 58.18229 292.4375 58.18229Q291.40625 58.18229 290.9375 58.55729Q290.46875 58.93229 290.46875 59.46354Q290.46875 59.93229 290.79688 60.229164Q291.125 60.52604 292.5 60.83854Q293.89062 61.15104 294.40625 61.385414Q295.15625 61.74479 295.51562 62.27604Q295.875 62.791664 295.875 63.49479Q295.875 64.18229 295.48438 64.791664Q295.09375 65.385414 294.35938 65.729164Q293.625 66.05729 292.70312 66.05729Q291.53125 66.05729 290.73438 65.729164Q289.95312 65.385414 289.5 64.697914Q289.0625 64.010414 289.04688 63.15104ZM301.54688 63.916664L302.64062 64.041664Q302.39062 64.99479 301.6875 65.52604Q300.98438 66.05729 299.90625 66.05729Q298.54688 66.05729 297.73438 65.21354Q296.9375 64.36979 296.9375 62.854164Q296.9375 61.291664 297.75 60.43229Q298.5625 59.55729 299.84375 59.55729Q301.09375 59.55729 301.875 60.40104Q302.67188 61.24479 302.67188 62.791664Q302.67188 62.885414 302.67188 63.072914L298.03125 63.072914Q298.09375 64.104164 298.60938 64.65104Q299.125 65.18229 299.90625 65.18229Q300.48438 65.18229 300.89062 64.885414Q301.3125 64.572914 301.54688 63.916664ZM298.09375 62.21354L301.5625 62.21354Q301.5 61.416664 301.17188 61.02604Q300.65625 60.416664 299.85938 60.416664Q299.125 60.416664 298.625 60.90104Q298.14062 61.385414 298.09375 62.21354ZM308.35938 63.635414L309.39062 63.77604Q309.21875 64.83854 308.51562 65.447914Q307.8125 66.05729 306.79688 66.05729Q305.51562 66.05729 304.73438 65.229164Q303.96875 64.385414 303.96875 62.822914Q303.96875 61.822914 304.29688 61.072914Q304.64062 60.30729 305.3125 59.93229Q306.0 59.55729 306.8125 59.55729Q307.8125 59.55729 308.45312 60.072914Q309.10938 60.572914 309.29688 61.52604L308.26562 61.68229Q308.125 61.05729 307.75 60.74479Q307.375 60.416664 306.84375 60.416664Q306.04688 60.416664 305.54688 60.99479Q305.04688 61.55729 305.04688 62.791664Q305.04688 64.05729 305.53125 64.61979Q306.01562 65.18229 306.78125 65.18229Q307.40625 65.18229 307.8125 64.80729Q308.23438 64.43229 308.35938 63.635414ZM309.90625 62.80729Q309.90625 61.072914 310.85938 60.24479Q311.65625 59.55729 312.8125 59.55729Q314.09375 59.55729 314.90625 60.40104Q315.73438 61.229164 315.73438 62.71354Q315.73438 63.916664 315.375 64.604164Q315.01562 65.291664 314.3125 65.68229Q313.625 66.05729 312.8125 66.05729Q311.51562 66.05729 310.70312 65.229164Q309.90625 64.385414 309.90625 62.80729ZM310.98438 62.80729Q310.98438 63.99479 311.5 64.58854Q312.03125 65.18229 312.8125 65.18229Q313.60938 65.18229 314.125 64.58854Q314.64062 63.99479 314.64062 62.77604Q314.64062 61.61979 314.10938 61.02604Q313.59375 60.43229 312.8125 60.43229Q312.03125 60.43229 311.5 61.02604Q310.98438 61.604164 310.98438 62.80729ZM317.29688 65.916664L317.29688 59.697914L318.23438 59.697914L318.23438 60.572914Q318.92188 59.55729 320.21875 59.55729Q320.78125 59.55729 321.25 59.760414Q321.73438 59.96354 321.96875 60.291664Q322.20312 60.61979 322.29688 61.05729Q322.34375 61.354164 322.34375 62.08854L322.34375 65.916664L321.29688 65.916664L321.29688 62.135414Q321.29688 61.479164 321.17188 61.166664Q321.04688 60.854164 320.73438 60.666664Q320.42188 60.46354 320.0 60.46354Q319.32812 60.46354 318.82812 60.90104Q318.34375 61.322914 318.34375 62.510414L318.34375 65.916664L317.29688 65.916664ZM328.32812 65.916664L328.32812 65.135414Q327.73438 66.05729 326.59375 66.05729Q325.84375 66.05729 325.21875 65.65104Q324.59375 65.229164 324.25 64.49479Q323.90625 63.760414 323.90625 62.80729Q323.90625 61.885414 324.21875 61.11979Q324.53125 60.354164 325.15625 59.96354Q325.78125 59.55729 326.54688 59.55729Q327.10938 59.55729 327.54688 59.791664Q327.98438 60.02604 328.26562 60.40104L328.26562 57.322914L329.3125 57.322914L329.3125 65.916664L328.32812 65.916664ZM325.0 62.80729Q325.0 64.010414 325.5 64.604164Q326.0 65.18229 326.6875 65.18229Q327.375 65.18229 327.85938 64.61979Q328.34375 64.05729 328.34375 62.90104Q328.34375 61.61979 327.84375 61.02604Q327.35938 60.43229 326.64062 60.43229Q325.9375 60.43229 325.46875 61.010414Q325.0 61.572914 325.0 62.80729ZM330.875 64.05729L331.90625 63.90104Q332.0 64.52604 332.39062 64.854164Q332.79688 65.18229 333.53125 65.18229Q334.25 65.18229 334.59375 64.90104Q334.95312 64.604164 334.95312 64.197914Q334.95312 63.83854 334.64062 63.635414Q334.42188 63.49479 333.5625 63.27604Q332.40625 62.979164 331.95312 62.77604Q331.51562 62.55729 331.28125 62.18229Q331.04688 61.80729 331.04688 61.33854Q331.04688 60.93229 331.23438 60.572914Q331.42188 60.21354 331.75 59.979164Q332.0 59.80729 332.42188 59.68229Q332.84375 59.55729 333.34375 59.55729Q334.0625 59.55729 334.60938 59.77604Q335.17188 59.979164 335.4375 60.33854Q335.70312 60.697914 335.79688 61.291664L334.76562 61.43229Q334.70312 60.96354 334.35938 60.697914Q334.03125 60.416664 333.40625 60.416664Q332.6875 60.416664 332.375 60.666664Q332.0625 60.90104 332.0625 61.229164Q332.0625 61.43229 332.1875 61.58854Q332.32812 61.760414 332.59375 61.86979Q332.75 61.93229 333.53125 62.135414Q334.65625 62.447914 335.09375 62.635414Q335.53125 62.822914 335.78125 63.18229Q336.03125 63.541664 336.03125 64.08854Q336.03125 64.61979 335.71875 65.08854Q335.42188 65.541664 334.84375 65.80729Q334.26562 66.05729 333.53125 66.05729Q332.3125 66.05729 331.67188 65.55729Q331.04688 65.041664 330.875 64.05729Z" fill-rule="nonzero"/><path stroke="#fbbc04" stroke-width="4.0" stroke-linecap="butt" d="M353.5 61.916668L365.5 61.916668" fill-rule="nonzero"/><path fill="#1a1a1a" d="M377.96875 65.916664L376.92188 65.916664L376.92188 59.197914Q376.53125 59.55729 375.90625 59.93229Q375.29688 60.291664 374.8125 60.46354L374.8125 59.447914Q375.6875 59.02604 376.34375 58.447914Q377.01562 57.854164 377.29688 57.291664L377.96875 57.291664L377.96875 65.916664ZM381.0 61.68229Q381.0 60.15104 381.3125 59.229164Q381.625 58.291664 382.23438 57.791664Q382.85938 57.291664 383.79688 57.291664Q384.48438 57.291664 385.0 57.572914Q385.53125 57.854164 385.875 58.385414Q386.21875 58.90104 386.40625 59.65104Q386.59375 60.40104 386.59375 61.68229Q386.59375 63.197914 386.28125 64.11979Q385.98438 65.041664 385.35938 65.55729Q384.75 66.05729 383.79688 66.05729Q382.5625 66.05729 381.84375 65.166664Q381.0 64.104164 381.0 61.68229ZM382.07812 61.68229Q382.07812 63.791664 382.57812 64.49479Q383.07812 65.197914 383.79688 65.197914Q384.53125 65.197914 385.01562 64.49479Q385.51562 63.791664 385.51562 61.68229Q385.51562 59.55729 385.01562 58.86979Q384.53125 58.166664 383.78125 58.166664Q383.0625 58.166664 382.625 58.77604Q382.07812 59.55729 382.07812 61.68229ZM391.04688 63.15104L392.10938 63.05729Q392.1875 63.71354 392.46875 64.11979Q392.75 64.52604 393.32812 64.791664Q393.92188 65.041664 394.65625 65.041664Q395.29688 65.041664 395.79688 64.854164Q396.29688 64.65104 396.53125 64.322914Q396.78125 63.979164 396.78125 63.58854Q396.78125 63.18229 396.54688 62.885414Q396.3125 62.572914 395.78125 62.36979Q395.42188 62.229164 394.23438 61.947914Q393.0625 61.666664 392.59375 61.416664Q391.96875 61.08854 391.67188 60.61979Q391.375 60.135414 391.375 59.541664Q391.375 58.90104 391.73438 58.33854Q392.10938 57.760414 392.8125 57.479164Q393.53125 57.18229 394.39062 57.18229Q395.34375 57.18229 396.07812 57.49479Q396.8125 57.791664 397.20312 58.40104Q397.59375 58.99479 397.625 59.74479L396.53125 59.822914Q396.4375 59.010414 395.92188 58.604164Q395.42188 58.18229 394.4375 58.18229Q393.40625 58.18229 392.9375 58.55729Q392.46875 58.93229 392.46875 59.46354Q392.46875 59.93229 392.79688 60.229164Q393.125 60.52604 394.5 60.83854Q395.89062 61.15104 396.40625 61.385414Q397.15625 61.74479 397.51562 62.27604Q397.875 62.791664 397.875 63.49479Q397.875 64.18229 397.48438 64.791664Q397.09375 65.385414 396.35938 65.729164Q395.625 66.05729 394.70312 66.05729Q393.53125 66.05729 392.73438 65.729164Q391.95312 65.385414 391.5 64.697914Q391.0625 64.010414 391.04688 63.15104ZM403.54688 63.916664L404.64062 64.041664Q404.39062 64.99479 403.6875 65.52604Q402.98438 66.05729 401.90625 66.05729Q400.54688 66.05729 399.73438 65.21354Q398.9375 64.36979 398.9375 62.854164Q398.9375 61.291664 399.75 60.43229Q400.5625 59.55729 401.84375 59.55729Q403.09375 59.55729 403.875 60.40104Q404.67188 61.24479 404.67188 62.791664Q404.67188 62.885414 404.67188 63.072914L400.03125 63.072914Q400.09375 64.104164 400.60938 64.65104Q401.125 65.18229 401.90625 65.18229Q402.48438 65.18229 402.89062 64.885414Q403.3125 64.572914 403.54688 63.916664ZM400.09375 62.21354L403.5625 62.21354Q403.5 61.416664 403.17188 61.02604Q402.65625 60.416664 401.85938 60.416664Q401.125 60.416664 400.625 60.90104Q400.14062 61.385414 400.09375 62.21354ZM410.35938 63.635414L411.39062 63.77604Q411.21875 64.83854 410.51562 65.447914Q409.8125 66.05729 408.79688 66.05729Q407.51562 66.05729 406.73438 65.229164Q405.96875 64.385414 405.96875 62.822914Q405.96875 61.822914 406.29688 61.072914Q406.64062 60.30729 407.3125 59.93229Q408.0 59.55729 408.8125 59.55729Q409.8125 59.55729 410.45312 60.072914Q411.10938 60.572914 411.29688 61.52604L410.26562 61.68229Q410.125 61.05729 409.75 60.74479Q409.375 60.416664 408.84375 60.416664Q408.04688 60.416664 407.54688 60.99479Q407.04688 61.55729 407.04688 62.791664Q407.04688 64.05729 407.53125 64.61979Q408.01562 65.18229 408.78125 65.18229Q409.40625 65.18229 409.8125 64.80729Q410.23438 64.43229 410.35938 63.635414ZM411.90625 62.80729Q411.90625 61.072914 412.85938 60.24479Q413.65625 59.55729 414.8125 59.55729Q416.09375 59.55729 416.90625 60.40104Q417.73438 61.229164 417.73438 62.71354Q417.73438 63.916664 417.375 64.604164Q417.01562 65.291664 416.3125 65.68229Q415.625 66.05729 414.8125 66.05729Q413.51562 66.05729 412.70312 65.229164Q411.90625 64.385414 411.90625 62.80729ZM412.98438 62.80729Q412.98438 63.99479 413.5 64.58854Q414.03125 65.18229 414.8125 65.18229Q415.60938 65.18229 416.125 64.58854Q416.64062 63.99479 416.64062 62.77604Q416.64062 61.61979 416.10938 61.02604Q415.59375 60.43229 414.8125 60.43229Q414.03125 60.43229 413.5 61.02604Q412.98438 61.604164 412.98438 62.80729ZM419.29688 65.916664L419.29688 59.697914L420.23438 59.697914L420.23438 60.572914Q420.92188 59.55729 422.21875 59.55729Q422.78125 59.55729 423.25 59.760414Q423.73438 59.96354 423.96875 60.291664Q424.20312 60.61979 424.29688 61.05729Q424.34375 61.354164 424.34375 62.08854L424.34375 65.916664L423.29688 65.916664L423.29688 62.135414Q423.29688 61.479164 423.17188 61.166664Q423.04688 60.854164 422.73438 60.666664Q422.42188 60.46354 422.0 60.46354Q421.32812 60.46354 420.82812 60.90104Q420.34375 61.322914 420.34375 62.510414L420.34375 65.916664L419.29688 65.916664ZM430.32812 65.916664L430.32812 65.135414Q429.73438 66.05729 428.59375 66.05729Q427.84375 66.05729 427.21875 65.65104Q426.59375 65.229164 426.25 64.49479Q425.90625 63.760414 425.90625 62.80729Q425.90625 61.885414 426.21875 61.11979Q426.53125 60.354164 427.15625 59.96354Q427.78125 59.55729 428.54688 59.55729Q429.10938 59.55729 429.54688 59.791664Q429.98438 60.02604 430.26562 60.40104L430.26562 57.322914L431.3125 57.322914L431.3125 65.916664L430.32812 65.916664ZM427.0 62.80729Q427.0 64.010414 427.5 64.604164Q428.0 65.18229 428.6875 65.18229Q429.375 65.18229 429.85938 64.61979Q430.34375 64.05729 430.34375 62.90104Q430.34375 61.61979 429.84375 61.02604Q429.35938 60.43229 428.64062 60.43229Q427.9375 60.43229 427.46875 61.010414Q427.0 61.572914 427.0 62.80729ZM432.875 64.05729L433.90625 63.90104Q434.0 64.52604 434.39062 64.854164Q434.79688 65.18229 435.53125 65.18229Q436.25 65.18229 436.59375 64.90104Q436.95312 64.604164 436.95312 64.197914Q436.95312 63.83854 436.64062 63.635414Q436.42188 63.49479 435.5625 63.27604Q434.40625 62.979164 433.95312 62.77604Q433.51562 62.55729 433.28125 62.18229Q433.04688 61.80729 433.04688 61.33854Q433.04688 60.93229 433.23438 60.572914Q433.42188 60.21354 433.75 59.979164Q434.0 59.80729 434.42188 59.68229Q434.84375 59.55729 435.34375 59.55729Q436.0625 59.55729 436.60938 59.77604Q437.17188 59.979164 437.4375 60.33854Q437.70312 60.697914 437.79688 61.291664L436.76562 61.43229Q436.70312 60.96354 436.35938 60.697914Q436.03125 60.416664 435.40625 60.416664Q434.6875 60.416664 434.375 60.666664Q434.0625 60.90104 434.0625 61.229164Q434.0625 61.43229 434.1875 61.58854Q434.32812 61.760414 434.59375 61.86979Q434.75 61.93229 435.53125 62.135414Q436.65625 62.447914 437.09375 62.635414Q437.53125 62.822914 437.78125 63.18229Q438.03125 63.541664 438.03125 64.08854Q438.03125 64.61979 437.71875 65.08854Q437.42188 65.541664 436.84375 65.80729Q436.26562 66.05729 435.53125 66.05729Q434.3125 66.05729 433.67188 65.55729Q433.04688 65.041664 432.875 64.05729Z" fill-rule="nonzero"/><path fill="#757575" d="M270.76562 32.534374L272.65625 33.003124Q272.0625 35.346874 270.51562 36.58125Q268.96875 37.8 266.71875 37.8Q264.40625 37.8 262.95312 36.8625Q261.51562 35.909374 260.75 34.128124Q260.0 32.33125 260.0 30.284374Q260.0 28.05 260.84375 26.39375Q261.70312 24.721874 263.28125 23.8625Q264.85938 22.9875 266.75 22.9875Q268.90625 22.9875 270.35938 24.08125Q271.82812 25.175 272.40625 27.159374L270.54688 27.596874Q270.04688 26.034374 269.09375 25.33125Q268.15625 24.6125 266.71875 24.6125Q265.0625 24.6125 263.95312 25.409374Q262.84375 26.190624 262.39062 27.534374Q261.95312 28.8625 261.95312 30.26875Q261.95312 32.096874 262.48438 33.471874Q263.01562 34.83125 264.14062 35.503124Q265.26562 36.175 266.5625 36.175Q268.15625 36.175 269.26562 35.253124Q270.375 34.33125 270.76562 32.534374ZM273.67188 32.3625Q273.67188 29.4875 275.26562 28.096874Q276.60938 26.940624 278.53125 26.940624Q280.67188 26.940624 282.01562 28.346874Q283.375 29.753124 283.375 32.221874Q283.375 34.221874 282.78125 35.378124Q282.1875 36.51875 281.03125 37.159374Q279.89062 37.784374 278.53125 37.784374Q276.34375 37.784374 275.0 36.39375Q273.67188 34.9875 273.67188 32.3625ZM275.46875 32.3625Q275.46875 34.3625 276.32812 35.346874Q277.20312 36.33125 278.53125 36.33125Q279.84375 36.33125 280.70312 35.346874Q281.57812 34.346874 281.57812 32.3Q281.57812 30.378124 280.70312 29.39375Q279.82812 28.39375 278.53125 28.39375Q277.20312 28.39375 276.32812 29.39375Q275.46875 30.378124 275.46875 32.3625ZM285.28125 37.55L285.28125 23.2375L287.03125 23.2375L287.03125 37.55L285.28125 37.55ZM289.28125 37.55L289.28125 23.2375L291.03125 23.2375L291.03125 37.55L289.28125 37.55ZM293.32812 25.253124L293.32812 23.2375L295.09375 23.2375L295.09375 25.253124L293.32812 25.253124ZM293.32812 37.55L293.32812 27.175L295.09375 27.175L295.09375 37.55L293.32812 37.55ZM296.60938 34.45625L298.35938 34.175Q298.5 35.221874 299.17188 35.784374Q299.84375 36.33125 301.04688 36.33125Q302.25 36.33125 302.82812 35.846874Q303.42188 35.346874 303.42188 34.690624Q303.42188 34.096874 302.90625 33.753124Q302.54688 33.51875 301.10938 33.159374Q299.17188 32.659374 298.42188 32.315624Q297.6875 31.95625 297.29688 31.33125Q296.90625 30.690624 296.90625 29.925Q296.90625 29.2375 297.21875 28.64375Q297.54688 28.05 298.09375 27.659374Q298.5 27.3625 299.20312 27.159374Q299.92188 26.940624 300.73438 26.940624Q301.95312 26.940624 302.875 27.3Q303.79688 27.64375 304.23438 28.253124Q304.67188 28.846874 304.84375 29.846874L303.125 30.08125Q303.0 29.284374 302.4375 28.846874Q301.875 28.39375 300.85938 28.39375Q299.64062 28.39375 299.125 28.8Q298.60938 29.190624 298.60938 29.721874Q298.60938 30.065624 298.82812 30.346874Q299.03125 30.628124 299.5 30.815624Q299.76562 30.909374 301.04688 31.253124Q302.92188 31.753124 303.65625 32.08125Q304.39062 32.39375 304.8125 33.003124Q305.23438 33.596874 305.23438 34.503124Q305.23438 35.378124 304.71875 36.159374Q304.20312 36.940624 303.23438 37.3625Q302.26562 37.784374 301.04688 37.784374Q299.03125 37.784374 297.96875 36.940624Q296.90625 36.096874 296.60938 34.45625ZM307.32812 25.253124L307.32812 23.2375L309.09375 23.2375L309.09375 25.253124L307.32812 25.253124ZM307.32812 37.55L307.32812 27.175L309.09375 27.175L309.09375 37.55L307.32812 37.55ZM310.67188 32.3625Q310.67188 29.4875 312.26562 28.096874Q313.60938 26.940624 315.53125 26.940624Q317.67188 26.940624 319.01562 28.346874Q320.375 29.753124 320.375 32.221874Q320.375 34.221874 319.78125 35.378124Q319.1875 36.51875 318.03125 37.159374Q316.89062 37.784374 315.53125 37.784374Q313.34375 37.784374 312.0 36.39375Q310.67188 34.9875 310.67188 32.3625ZM312.46875 32.3625Q312.46875 34.3625 313.32812 35.346874Q314.20312 36.33125 315.53125 36.33125Q316.84375 36.33125 317.70312 35.346874Q318.57812 34.346874 318.57812 32.3Q318.57812 30.378124 317.70312 29.39375Q316.82812 28.39375 315.53125 28.39375Q314.20312 28.39375 313.32812 29.39375Q312.46875 30.378124 312.46875 32.3625ZM322.3125 37.55L322.3125 27.175L323.90625 27.175L323.90625 28.659374Q325.04688 26.940624 327.20312 26.940624Q328.14062 26.940624 328.92188 27.284374Q329.71875 27.6125 330.10938 28.159374Q330.5 28.70625 330.65625 29.45625Q330.75 29.95625 330.75 31.175L330.75 37.55L328.98438 37.55L328.98438 31.2375Q328.98438 30.159374 328.78125 29.628124Q328.57812 29.096874 328.04688 28.784374Q327.53125 28.471874 326.82812 28.471874Q325.70312 28.471874 324.89062 29.190624Q324.07812 29.89375 324.07812 31.878124L324.07812 37.55L322.3125 37.55ZM331.60938 34.45625L333.35938 34.175Q333.5 35.221874 334.17188 35.784374Q334.84375 36.33125 336.04688 36.33125Q337.25 36.33125 337.82812 35.846874Q338.42188 35.346874 338.42188 34.690624Q338.42188 34.096874 337.90625 33.753124Q337.54688 33.51875 336.10938 33.159374Q334.17188 32.659374 333.42188 32.315624Q332.6875 31.95625 332.29688 31.33125Q331.90625 30.690624 331.90625 29.925Q331.90625 29.2375 332.21875 28.64375Q332.54688 28.05 333.09375 27.659374Q333.5 27.3625 334.20312 27.159374Q334.92188 26.940624 335.73438 26.940624Q336.95312 26.940624 337.875 27.3Q338.79688 27.64375 339.23438 28.253124Q339.67188 28.846874 339.84375 29.846874L338.125 30.08125Q338.0 29.284374 337.4375 28.846874Q336.875 28.39375 335.85938 28.39375Q334.64062 28.39375 334.125 28.8Q333.60938 29.190624 333.60938 29.721874Q333.60938 30.065624 333.82812 30.346874Q334.03125 30.628124 334.5 30.815624Q334.76562 30.909374 336.04688 31.253124Q337.92188 31.753124 338.65625 32.08125Q339.39062 32.39375 339.8125 33.003124Q340.23438 33.596874 340.23438 34.503124Q340.23438 35.378124 339.71875 36.159374Q339.20312 36.940624 338.23438 37.3625Q337.26562 37.784374 336.04688 37.784374Q334.03125 37.784374 332.96875 36.940624Q331.90625 36.096874 331.60938 34.45625Z" fill-rule="nonzero"/></svg>