<svg version="1.1" viewBox="0.0 0.0 600.0 371.0" fill="none" stroke="none" stroke-linecap="square" stroke-miterlimit="10" width="600" height="371" xmlns:xlink="http://www.w3.org/1999/xlink" xmlns="http://www.w3.org/2000/svg"><path fill="#ffffff" d="M0 0L600.0 0L600.0 371.0L0 371.0L0 0Z" fill-rule="nonzero"/><path stroke="#333333" stroke-width="1.0" stroke-linecap="butt" d="M55.5 332.5L581.5 332.5" fill-rule="nonzero"/><path stroke="#cccccc" stroke-width="1.0" stroke-linecap="butt" d="M55.5 251.5L581.5 251.5" fill-rule="nonzero"/><path stroke="#cccccc" stroke-width="1.0" stroke-linecap="butt" d="M55.5 169.5L581.5 169.5" fill-rule="nonzero"/><path stroke="#cccccc" stroke-width="1.0" stroke-linecap="butt" d="M55.5 88.5L581.5 88.5" fill-rule="nonzero"/><clipPath id="id_0"><path d="M55.55 88.28333L581.45 88.28333L581.45 332.45L55.55 332.45L55.55 88.28333Z" clip-rule="nonzero"/></clipPath><path stroke="#4285f4" stroke-width="2.0" stroke-linecap="butt" clip-path="url(#id_0)" d="M121.2875 324.3111L252.7625 324.3111L384.2375 325.9389L515.7125 325.9389" fill-rule="nonzero"/><path stroke="#ea4335" stroke-width="2.0" stroke-linecap="butt" clip-path="url(#id_0)" d="M121.2875 280.3611L252.7625 311.28888L384.2375 324.3111L515.7125 322.68332" fill-rule="nonzero"/><path stroke="#fbbc04" stroke-width="2.0" stroke-linecap="butt" clip-path="url(#id_0)" d="M121.2875 215.25L252.7625 293.38333L384.2375 304.77777L515.7125 283.61667" fill-rule="nonzero"/><path stroke="#34a853" stroke-width="2.0" stroke-linecap="butt" clip-path="url(#id_0)" d="M121.2875 93.166664L252.7625 233.15555L384.2375 281.9889L515.7125 272.22223" fill-rule="nonzero"/><path fill="#000000" fill-opacity="0.0" clip-path="url(#id_0)" d="M124.2875 324.3111C124.2875 325.96796 122.94435 327.3111 121.2875 327.3111C119.630646 327.3111 118.2875 325.96796 118.2875 324.3111C118.2875 322.65427 119.630646 321.3111 121.2875 321.3111C122.94435 321.3111 124.2875 322.65427 124.2875 324.3111Z" fill-rule="nonzero"/><path fill="#000000" fill-opacity="0.0" clip-path="url(#id_0)" d="M255.7625 324.3111C255.7625 325.96796 254.41936 327.3111 252.7625 327.3111C251.10565 327.3111 249.7625 325.96796 249.7625 324.3111C249.7625 322.65427 251.10565 321.3111 252.7625 321.3111C254.41936 321.3111 255.7625 322.65427 255.7625 324.3111Z" fill-rule="nonzero"/><path fill="#000000" fill-opacity="0.0" clip-path="url(#id_0)" d="M387.2375 325.9389C387.2375 327.59573 385.89435 328.9389 384.2375 328.9389C382.58066 328.9389 381.2375 327.59573 381.2375 325.9389C381.2375 324.28204 382.58066 322.9389 384.2375 322.9389C385.89435 322.9389 387.2375 324.28204 387.2375 325.9389Z" fill-rule="nonzero"/><path fill="#000000" fill-opacity="0.0" clip-path="url(#id_0)" d="M518.7125 325.9389C518.7125 327.59573 517.3694 328.9389 515.7125 328.9389C514.05566 328.9389 512.7125 327.59573 512.7125 325.9389C512.7125 324.28204 514.05566 322.9389 515.7125 322.9389C517.3694 322.9389 518.7125 324.28204 518.7125 325.9389Z" fill-rule="nonzero"/><path fill="#000000" fill-opacity="0.0" clip-path="url(#id_0)" d="M124.2875 280.3611C124.2875 282.01797 122.94435 283.3611 121.2875 283.3611C119.630646 283.3611 118.2875 282.01797 118.2875 280.3611C118.2875 278.70425 119.630646 277.3611 121.2875 277.3611C122.94435 277.3611 124.2875 278.70425 124.2875 280.3611Z" fill-rule="nonzero"/><path fill="#000000" fill-opacity="0.0" clip-path="url(#id_0)" d="M255.7625 311.28888C255.7625 312.94574 254.41936 314.28888 252.7625 314.28888C251.10565 314.28888 249.7625 312.94574 249.7625 311.28888C249.7625 309.63205 251.10565 308.28888 252.7625 308.28888C254.41936 308.28888 255.7625 309.63205 255.7625 311.28888Z" fill-rule="nonzero"/><path fill="#000000" fill-opacity="0.0" clip-path="url(#id_0)" d="M387.2375 324.3111C387.2375 325.96796 385.89435 327.3111 384.2375 327.3111C382.58066 327.3111 381.2375 325.96796 381.2375 324.3111C381.2375 322.65427 382.58066 321.3111 384.2375 321.3111C385.89435 321.3111 387.2375 322.65427 387.2375 324.3111Z" fill-rule="nonzero"/><path fill="#000000" fill-opacity="0.0" clip-path="url(#id_0)" d="M518.7125 322.68332C518.7125 324.34018 517.3694 325.68332 515.7125 325.68332C514.05566 325.68332 512.7125 324.34018 512.7125 322.68332C512.7125 321.0265 514.05566 319.68332 515.7125 319.68332C517.3694 319.68332 518.7125 321.0265 518.7125 322.68332Z" fill-rule="nonzero"/><path fill="#000000" fill-opacity="0.0" clip-path="url(#id_0)" d="M124.2875 215.25C124.2875 216.90686 122.94435 218.25 121.2875 218.25C119.630646 218.25 118.2875 216.90686 118.2875 215.25C118.2875 213.59314 119.630646 212.25 121.2875 212.25C122.94435 212.25 124.2875 213.59314 124.2875 215.25Z" fill-rule="nonzero"/><path fill="#000000" fill-opacity="0.0" clip-path="url(#id_0)" d="M255.7625 293.38333C255.7625 295.0402 254.41936 296.38333 252.7625 296.38333C251.10565 296.38333 249.7625 295.0402 249.7625 293.38333C249.7625 291.72647 251.10565 290.38333 252.7625 290.38333C254.41936 290.38333 255.7625 291.72647 255.7625 293.38333Z" fill-rule="nonzero"/><path fill="#000000" fill-opacity="0.0" clip-path="url(#id_0)" d="M387.2375 304.77777C387.2375 306.43463 385.89435 307.77777 384.2375 307.77777C382.58066 307.77777 381.2375 306.43463 381.2375 304.77777C381.2375 303.1209 382.58066 301.77777 384.2375 301.77777C385.89435 301.77777 387.2375 303.1209 387.2375 304.77777Z" fill-rule="nonzero"/><path fill="#000000" fill-opacity="0.0" clip-path="url(#id_0)" d="M518.7125 283.61667C518.7125 285.27353 517.3694 286.61667 515.7125 286.61667C514.05566 286.61667 512.7125 285.27353 512.7125 283.61667C512.7125 281.9598 514.05566 280.61667 515.7125 280.61667C517.3694 280.61667 518.7125 281.9598 518.7125 283.61667Z" fill-rule="nonzero"/><path fill="#000000" fill-opacity="0.0" clip-path="url(#id_0)" d="M124.2875 93.166664C124.2875 94.823524 122.94435 96.166664 121.2875 96.166664C119.630646 96.166664 118.2875 94.823524 118.2875 93.166664C118.2875 91.50981 119.630646 90.166664 121.2875 90.166664C122.94435 90.166664 124.2875 91.50981 124.2875 93.166664Z" fill-rule="nonzero"/><path fill="#000000" fill-opacity="0.0" clip-path="url(#id_0)" d="M255.7625 233.15555C255.7625 234.81241 254.41936 236.15555 252.7625 236.15555C251.10565 236.15555 249.7625 234.81241 249.7625 233.15555C249.7625 231.4987 251.10565 230.15555 252.7625 230.15555C254.41936 230.15555 255.7625 231.4987 255.7625 233.15555Z" fill-rule="nonzero"/><path fill="#000000" fill-opacity="0.0" clip-path="url(#id_0)" d="M387.2375 281.9889C387.2375 283.64575 385.89435 284.9889 384.2375 284.9889C382.58066 284.9889 381.2375 283.64575 381.2375 281.9889C381.2375 280.33203 382.58066 278.9889 384.2375 278.9889C385.89435 278.9889 387.2375 280.33203 387.2375 281.9889Z" fill-rule="nonzero"/><path fill="#000000" fill-opacity="0.0" clip-path="url(#id_0)" d="M518.7125 272.22223C518.7125 273.8791 517.3694 275.22223 515.7125 275.22223C514.05566 275.22223 512.7125 273.8791 512.7125 272.22223C512.7125 270.56537 514.05566 269.22223 515.7125 269.22223C517.3694 269.22223 518.7125 270.56537 518.7125 272.22223Z" fill-rule="nonzero"/><path fill="#000000" d="M26.05 332.21564Q26.05 330.6844 26.3625 329.7625Q26.675 328.825 27.284374 328.325Q27.909374 327.825 28.846874 327.825Q29.534374 327.825 30.05 328.10626Q30.58125 328.3875 30.925 328.91876Q31.26875 329.4344 31.45625 330.1844Q31.64375 330.9344 31.64375 332.21564Q31.64375 333.73126 31.33125 334.65314Q31.034374 335.575 30.409374 336.09064Q29.8 336.59064 28.846874 336.59064Q27.6125 336.59064 26.89375 335.7Q26.05 334.6375 26.05 332.21564ZM27.128124 332.21564Q27.128124 334.325 27.628124 335.02814Q28.128124 335.73126 28.846874 335.73126Q29.58125 335.73126 30.065624 335.02814Q30.565624 334.325 30.565624 332.21564Q30.565624 330.09064 30.065624 329.40314Q29.58125 328.7 28.83125 328.7Q28.1125 328.7 27.675 329.3094Q27.128124 330.09064 27.128124 332.21564ZM33.64375 336.45L33.64375 335.2469L34.846874 335.2469L34.846874 336.45L33.64375 336.45ZM36.05 332.21564Q36.05 330.6844 36.3625 329.7625Q36.675 328.825 37.284374 328.325Q37.909374 327.825 38.846874 327.825Q39.534374 327.825 40.05 328.10626Q40.58125 328.3875 40.925 328.91876Q41.26875 329.4344 41.45625 330.1844Q41.64375 330.9344 41.64375 332.21564Q41.64375 333.73126 41.33125 334.65314Q41.034374 335.575 40.409374 336.09064Q39.8 336.59064 38.846874 336.59064Q37.6125 336.59064 36.89375 335.7Q36.05 334.6375 36.05 332.21564ZM37.128124 332.21564Q37.128124 334.325 37.628124 335.02814Q38.128124 335.73126 38.846874 335.73126Q39.58125 335.73126 40.065624 335.02814Q40.565624 334.325 40.565624 332.21564Q40.565624 330.09064 40.065624 329.40314Q39.58125 328.7 38.83125 328.7Q38.1125 328.7 37.675 329.3094Q37.128124 330.09064 37.128124 332.21564ZM43.05 332.21564Q43.05 330.6844 43.3625 329.7625Q43.675 328.825 44.284374 328.325Q44.909374 327.825 45.846874 327.825Q46.534374 327.825 47.05 328.10626Q47.58125 328.3875 47.925 328.91876Q48.26875 329.4344 48.45625 330.1844Q48.64375 330.9344 48.64375 332.21564Q48.64375 333.73126 48.33125 334.65314Q48.034374 335.575 47.409374 336.09064Q46.8 336.59064 45.846874 336.59064Q44.6125 336.59064 43.89375 335.7Q43.05 334.6375 43.05 332.21564ZM44.128124 332.21564Q44.128124 334.325 44.628124 335.02814Q45.128124 335.73126 45.846874 335.73126Q46.58125 335.73126 47.065624 335.02814Q47.565624 334.325 47.565624 332.21564Q47.565624 330.09064 47.065624 329.40314Q46.58125 328.7 45.83125 328.7Q45.1125 328.7 44.675 329.3094Q44.128124 330.09064 44.128124 332.21564Z" fill-rule="nonzero"/><path fill="#000000" d="M23.01875 255.06111L21.971874 255.06111L21.971874 248.34236Q21.58125 248.70174 20.95625 249.07674Q20.346874 249.43611 19.8625 249.60799L19.8625 248.59236Q20.7375 248.17049 21.39375 247.59236Q22.065624 246.99861 22.346874 246.43611L23.01875 246.43611L23.01875 255.06111ZM26.05 250.82674Q26.05 249.29549 26.3625 248.37361Q26.675 247.43611 27.284374 246.93611Q27.909374 246.43611 28.846874 246.43611Q29.534374 246.43611 30.05 246.71736Q30.58125 246.99861 30.925 247.52986Q31.26875 248.04549 31.45625 248.79549Q31.64375 249.54549 31.64375 250.82674Q31.64375 252.34236 31.33125 253.26424Q31.034374 254.18611 30.409374 254.70174Q29.8 255.20174 28.846874 255.20174Q27.6125 255.20174 26.89375 254.31111Q26.05 253.24861 26.05 250.82674ZM27.128124 250.82674Q27.128124 252.93611 27.628124 253.63924Q28.128124 254.34236 28.846874 254.34236Q29.58125 254.34236 30.065624 253.63924Q30.565624 252.93611 30.565624 250.82674Q30.565624 248.70174 30.065624 248.01424Q29.58125 247.31111 28.83125 247.31111Q28.1125 247.31111 27.675 247.92049Q27.128124 248.70174 27.128124 250.82674ZM33.64375 255.06111L33.64375 253.85799L34.846874 253.85799L34.846874 255.06111L33.64375 255.06111ZM36.05 250.82674Q36.05 249.29549 36.3625 248.37361Q36.675 247.43611 37.284374 246.93611Q37.909374 246.43611 38.846874 246.43611Q39.534374 246.43611 40.05 246.71736Q40.58125 246.99861 40.925 247.52986Q41.26875 248.04549 41.45625 248.79549Q41.64375 249.54549 41.64375 250.82674Q41.64375 252.34236 41.33125 253.26424Q41.034374 254.18611 40.409374 254.70174Q39.8 255.20174 38.846874 255.20174Q37.6125 255.20174 36.89375 254.31111Q36.05 253.24861 36.05 250.82674ZM37.128124 250.82674Q37.128124 252.93611 37.628124 253.63924Q38.128124 254.34236 38.846874 254.34236Q39.58125 254.34236 40.065624 253.63924Q40.565624 252.93611 40.565624 250.82674Q40.565624 248.70174 40.065624 248.01424Q39.58125 247.31111 38.83125 247.31111Q38.1125 247.31111 37.675 247.92049Q37.128124 248.70174 37.128124 250.82674ZM43.05 250.82674Q43.05 249.29549 43.3625 248.37361Q43.675 247.43611 44.284374 246.93611Q44.909374 246.43611 45.846874 246.43611Q46.534374 246.43611 47.05 246.71736Q47.58125 246.99861 47.925 247.52986Q48.26875 248.04549 48.45625 248.79549Q48.64375 249.54549 48.64375 250.82674Q48.64375 252.34236 48.33125 253.26424Q48.034374 254.18611 47.409374 254.70174Q46.8 255.20174 45.846874 255.20174Q44.6125 255.20174 43.89375 254.31111Q43.05 253.24861 43.05 250.82674ZM44.128124 250.82674Q44.128124 252.93611 44.628124 253.63924Q45.128124 254.34236 45.846874 254.34236Q46.58125 254.34236 47.065624 253.63924Q47.565624 252.93611 47.565624 250.82674Q47.565624 248.70174 47.065624 248.01424Q46.58125 247.31111 45.83125 247.31111Q45.1125 247.31111 44.675 247.92049Q44.128124 248.70174 44.128124 250.82674Z" fill-rule="nonzero"/><path fill="#000000" d="M24.596874 172.6566L24.596874 173.67223L18.909374 173.67223Q18.909374 173.29723 19.034374 172.93785Q19.253124 172.35973 19.721874 171.79723Q20.20625 171.23473 21.1125 170.50035Q22.51875 169.3441 23.003124 168.67223Q23.503124 168.00035 23.503124 167.4066Q23.503124 166.7816 23.05 166.35973Q22.596874 165.92223 21.878124 165.92223Q21.1125 165.92223 20.659374 166.37535Q20.20625 166.82848 20.190624 167.64098L19.1125 167.5316Q19.221874 166.31285 19.940624 165.68785Q20.675 165.04723 21.909374 165.04723Q23.14375 165.04723 23.8625 165.73473Q24.58125 166.42223 24.58125 167.43785Q24.58125 167.95348 24.3625 168.45348Q24.159374 168.93785 23.659374 169.50035Q23.175 170.04723 22.05 171.00035Q21.096874 171.79723 20.815624 172.0941Q20.55 172.37535 20.378124 172.6566L24.596874 172.6566ZM26.05 169.43785Q26.05 167.9066 26.3625 166.98473Q26.675 166.04723 27.284374 165.54723Q27.909374 165.04723 28.846874 165.04723Q29.534374 165.04723 30.05 165.32848Q30.58125 165.60973 30.925 166.14098Q31.26875 166.6566 31.45625 167.4066Q31.64375 168.1566 31.64375 169.43785Q31.64375 170.95348 31.33125 171.87535Q31.034374 172.79723 30.409374 173.31285Q29.8 173.81285 28.846874 173.81285Q27.6125 173.81285 26.89375 172.92223Q26.05 171.85973 26.05 169.43785ZM27.128124 169.43785Q27.128124 171.54723 27.628124 172.25035Q28.128124 172.95348 28.846874 172.95348Q29.58125 172.95348 30.065624 172.25035Q30.565624 171.54723 30.565624 169.43785Q30.565624 167.31285 30.065624 166.62535Q29.58125 165.92223 28.83125 165.92223Q28.1125 165.92223 27.675 166.5316Q27.128124 167.31285 27.128124 169.43785ZM33.64375 173.67223L33.64375 172.4691L34.846874 172.4691L34.846874 173.67223L33.64375 173.67223ZM36.05 169.43785Q36.05 167.9066 36.3625 166.98473Q36.675 166.04723 37.284374 165.54723Q37.909374 165.04723 38.846874 165.04723Q39.534374 165.04723 40.05 165.32848Q40.58125 165.60973 40.925 166.14098Q41.26875 166.6566 41.45625 167.4066Q41.64375 168.1566 41.64375 169.43785Q41.64375 170.95348 41.33125 171.87535Q41.034374 172.79723 40.409374 173.31285Q39.8 173.81285 38.846874 173.81285Q37.6125 173.81285 36.89375 172.92223Q36.05 171.85973 36.05 169.43785ZM37.128124 169.43785Q37.128124 171.54723 37.628124 172.25035Q38.128124 172.95348 38.846874 172.95348Q39.58125 172.95348 40.065624 172.25035Q40.565624 171.54723 40.565624 169.43785Q40.565624 167.31285 40.065624 166.62535Q39.58125 165.92223 38.83125 165.92223Q38.1125 165.92223 37.675 166.5316Q37.128124 167.31285 37.128124 169.43785ZM43.05 169.43785Q43.05 167.9066 43.3625 166.98473Q43.675 166.04723 44.284374 165.54723Q44.909374 165.04723 45.846874 165.04723Q46.534374 165.04723 47.05 165.32848Q47.58125 165.60973 47.925 166.14098Q48.26875 166.6566 48.45625 167.4066Q48.64375 168.1566 48.64375 169.43785Q48.64375 170.95348 48.33125 171.87535Q48.034374 172.79723 47.409374 173.31285Q46.8 173.81285 45.846874 173.81285Q44.6125 173.81285 43.89375 172.92223Q43.05 171.85973 43.05 169.43785ZM44.128124 169.43785Q44.128124 171.54723 44.628124 172.25035Q45.128124 172.95348 45.846874 172.95348Q46.58125 172.95348 47.065624 172.25035Q47.565624 171.54723 47.565624 169.43785Q47.565624 167.31285 47.065624 166.62535Q46.58125 165.92223 45.83125 165.92223Q45.1125 165.92223 44.675 166.5316Q44.128124 167.31285 44.128124 169.43785Z" fill-rule="nonzero"/><path fill="#000000" d="M19.05 90.01771L20.1125 89.87708Q20.284374 90.76771 20.721874 91.17396Q21.159374 91.56458 21.784374 91.56458Q22.534374 91.56458 23.05 91.04896Q23.565624 90.53333 23.565624 89.76771Q23.565624 89.04896 23.08125 88.58021Q22.6125 88.09583 21.878124 88.09583Q21.58125 88.09583 21.128124 88.22083L21.253124 87.28333Q21.3625 87.29896 21.425 87.29896Q22.096874 87.29896 22.628124 86.95521Q23.175 86.59583 23.175 85.86146Q23.175 85.28333 22.784374 84.90833Q22.39375 84.51771 21.76875 84.51771Q21.159374 84.51771 20.7375 84.90833Q20.33125 85.29896 20.221874 86.06458L19.159374 85.87708Q19.346874 84.83021 20.034374 84.25208Q20.721874 83.65833 21.7375 83.65833Q22.440624 83.65833 23.034374 83.97083Q23.628124 84.26771 23.940624 84.78333Q24.253124 85.29896 24.253124 85.89271Q24.253124 86.43958 23.95625 86.90833Q23.659374 87.36146 23.08125 87.62708Q23.83125 87.79896 24.253124 88.36146Q24.675 88.90833 24.675 89.75208Q24.675 90.87708 23.846874 91.65833Q23.034374 92.43958 21.784374 92.43958Q20.659374 92.43958 19.909374 91.76771Q19.159374 91.08021 19.05 90.01771ZM26.05 88.04896Q26.05 86.51771 26.3625 85.59583Q26.675 84.65833 27.284374 84.15833Q27.909374 83.65833 28.846874 83.65833Q29.534374 83.65833 30.05 83.93958Q30.58125 84.22083 30.925 84.75208Q31.26875 85.26771 31.45625 86.01771Q31.64375 86.76771 31.64375 88.04896Q31.64375 89.56458 31.33125 90.48646Q31.034374 91.40833 30.409374 91.92396Q29.8 92.42396 28.846874 92.42396Q27.6125 92.42396 26.89375 91.53333Q26.05 90.47083 26.05 88.04896ZM27.128124 88.04896Q27.128124 90.15833 27.628124 90.86146Q28.128124 91.56458 28.846874 91.56458Q29.58125 91.56458 30.065624 90.86146Q30.565624 90.15833 30.565624 88.04896Q30.565624 85.92396 30.065624 85.23646Q29.58125 84.53333 28.83125 84.53333Q28.1125 84.53333 27.675 85.14271Q27.128124 85.92396 27.128124 88.04896ZM33.64375 92.28333L33.64375 91.08021L34.846874 91.08021L34.846874 92.28333L33.64375 92.28333ZM36.05 88.04896Q36.05 86.51771 36.3625 85.59583Q36.675 84.65833 37.284374 84.15833Q37.909374 83.65833 38.846874 83.65833Q39.534374 83.65833 40.05 83.93958Q40.58125 84.22083 40.925 84.75208Q41.26875 85.26771 41.45625 86.01771Q41.64375 86.76771 41.64375 88.04896Q41.64375 89.56458 41.33125 90.48646Q41.034374 91.40833 40.409374 91.92396Q39.8 92.42396 38.846874 92.42396Q37.6125 92.42396 36.89375 91.53333Q36.05 90.47083 36.05 88.04896ZM37.128124 88.04896Q37.128124 90.15833 37.628124 90.86146Q38.128124 91.56458 38.846874 91.56458Q39.58125 91.56458 40.065624 90.86146Q40.565624 90.15833 40.565624 88.04896Q40.565624 85.92396 40.065624 85.23646Q39.58125 84.53333 38.83125 84.53333Q38.1125 84.53333 37.675 85.14271Q37.128124 85.92396 37.128124 88.04896ZM43.05 88.04896Q43.05 86.51771 43.3625 85.59583Q43.675 84.65833 44.284374 84.15833Q44.909374 83.65833 45.846874 83.65833Q46.534374 83.65833 47.05 83.93958Q47.58125 84.22083 47.925 84.75208Q48.26875 85.26771 48.45625 86.01771Q48.64375 86.76771 48.64375 88.04896Q48.64375 89.56458 48.33125 90.48646Q48.034374 91.40833 47.409374 91.92396Q46.8 92.42396 45.846874 92.42396Q44.6125 92.42396 43.89375 91.53333Q43.05 90.47083 43.05 88.04896ZM44.128124 88.04896Q44.128124 90.15833 44.628124 90.86146Q45.128124 91.56458 45.846874 91.56458Q46.58125 91.56458 47.065624 90.86146Q47.565624 90.15833 47.565624 88.04896Q47.565624 85.92396 47.065624 85.23646Q46.58125 84.53333 45.83125 84.53333Q45.1125 84.53333 44.675 85.14271Q44.128124 85.92396 44.128124 88.04896Z" fill-rule="nonzero"/><path fill="#000000" d="M108.35 346.4344L109.475 346.73126Q109.11562 348.1219 108.19375 348.85626Q107.27187 349.59064 105.92812 349.59064Q104.5375 349.59064 103.6625 349.02814Q102.7875 348.46564 102.33437 347.40314Q101.88125 346.325 101.88125 345.09064Q101.88125 343.7469 102.39687 342.7469Q102.9125 341.7469 103.85 341.23126Q104.80312 340.71564 105.94375 340.71564Q107.225 340.71564 108.1 341.3719Q108.99062 342.02814 109.33437 343.21564L108.20937 343.48126Q107.9125 342.54376 107.33437 342.1219Q106.77187 341.6844 105.9125 341.6844Q104.92812 341.6844 104.25625 342.16876Q103.6 342.6375 103.31875 343.4344Q103.05312 344.23126 103.05312 345.09064Q103.05312 346.1844 103.36562 346.9969Q103.69375 347.8094 104.36562 348.21564Q105.0375 348.6219 105.83437 348.6219Q106.7875 348.6219 107.44375 348.075Q108.11562 347.52814 108.35 346.4344ZM110.69375 346.34064Q110.69375 344.60626 111.64687 343.77814Q112.44375 343.09064 113.6 343.09064Q114.88125 343.09064 115.69375 343.9344Q116.52187 344.7625 116.52187 346.2469Q116.52187 347.45 116.1625 348.1375Q115.80312 348.825 115.1 349.21564Q114.4125 349.59064 113.6 349.59064Q112.30312 349.59064 111.49062 348.7625Q110.69375 347.91876 110.69375 346.34064ZM111.77187 346.34064Q111.77187 347.52814 112.2875 348.1219Q112.81875 348.71564 113.6 348.71564Q114.39687 348.71564 114.9125 348.1219Q115.42812 347.52814 115.42812 346.3094Q115.42812 345.15314 114.89687 344.5594Q114.38125 343.96564 113.6 343.96564Q112.81875 343.96564 112.2875 344.5594Q111.77187 345.1375 111.77187 346.34064ZM118.08437 349.45L118.08437 343.23126L119.02187 343.23126L119.02187 344.10626Q119.70937 343.09064 121.00625 343.09064Q121.56875 343.09064 122.0375 343.29376Q122.52187 343.4969 122.75625 343.825Q122.99062 344.15314 123.08437 344.59064Q123.13125 344.8875 123.13125 345.6219L123.13125 349.45L122.08437 349.45L122.08437 345.66876Q122.08437 345.0125 121.95937 344.7Q121.83437 344.3875 121.52187 344.2Q121.20937 343.9969 120.7875 343.9969Q120.11562 343.9969 119.61562 344.4344Q119.13125 344.85626 119.13125 346.04376L119.13125 349.45L118.08437 349.45ZM127.38125 348.5125L127.5375 349.4344Q127.08437 349.52814 126.74062 349.52814Q126.1625 349.52814 125.85 349.35626Q125.5375 349.16876 125.39687 348.8719Q125.27187 348.575 125.27187 347.6219L125.27187 344.04376L124.50625 344.04376L124.50625 343.23126L125.27187 343.23126L125.27187 341.6844L126.31875 341.0594L126.31875 343.23126L127.38125 343.23126L127.38125 344.04376L126.31875 344.04376L126.31875 347.6844Q126.31875 348.1375 126.36562 348.2625Q126.42812 348.3875 126.55312 348.46564Q126.67812 348.54376 126.9125 348.54376Q127.1 348.54376 127.38125 348.5125ZM128.06876 349.45L128.06876 343.23126L129.02188 343.23126L129.02188 344.16876Q129.38126 343.5125 129.67813 343.3094Q129.99063 343.09064 130.36563 343.09064Q130.89688 343.09064 131.44376 343.41876L131.08438 344.40314Q130.69376 344.16876 130.31876 344.16876Q129.95938 344.16876 129.67813 344.3875Q129.4125 344.59064 129.30313 344.96564Q129.11563 345.52814 129.11563 346.1844L129.11563 349.45L128.06876 349.45ZM131.69376 346.34064Q131.69376 344.60626 132.64688 343.77814Q133.44376 343.09064 134.6 343.09064Q135.88126 343.09064 136.69376 343.9344Q137.52188 344.7625 137.52188 346.2469Q137.52188 347.45 137.1625 348.1375Q136.80313 348.825 136.1 349.21564Q135.4125 349.59064 134.6 349.59064Q133.30313 349.59064 132.49063 348.7625Q131.69376 347.91876 131.69376 346.34064ZM132.77188 346.34064Q132.77188 347.52814 133.2875 348.1219Q133.81876 348.71564 134.6 348.71564Q135.39688 348.71564 135.9125 348.1219Q136.42813 347.52814 136.42813 346.3094Q136.42813 345.15314 135.89688 344.5594Q135.38126 343.96564 134.6 343.96564Q133.81876 343.96564 133.2875 344.5594Q132.77188 345.1375 132.77188 346.34064ZM139.05313 349.45L139.05313 340.85626L140.11563 340.85626L140.11563 349.45L139.05313 349.45Z" fill-rule="nonzero"/><path fill="#000000" d="M225.80937 346.6844L226.87187 346.59064Q226.95 347.2469 227.23125 347.65314Q227.5125 348.0594 228.09062 348.325Q228.68437 348.575 229.41875 348.575Q230.05937 348.575 230.55937 348.3875Q231.05937 348.1844 231.29375 347.85626Q231.54375 347.5125 231.54375 347.1219Q231.54375 346.71564 231.30937 346.41876Q231.075 346.10626 230.54375 345.90314Q230.18437 345.7625 228.99687 345.48126Q227.825 345.2 227.35625 344.95Q226.73125 344.6219 226.43437 344.15314Q226.1375 343.66876 226.1375 343.075Q226.1375 342.4344 226.49687 341.8719Q226.87187 341.29376 227.575 341.0125Q228.29375 340.71564 229.15312 340.71564Q230.10625 340.71564 230.84062 341.02814Q231.575 341.325 231.96562 341.9344Q232.35625 342.52814 232.3875 343.27814L231.29375 343.35626Q231.2 342.54376 230.68437 342.1375Q230.18437 341.71564 229.2 341.71564Q228.16875 341.71564 227.7 342.09064Q227.23125 342.46564 227.23125 342.9969Q227.23125 343.46564 227.55937 343.7625Q227.8875 344.0594 229.2625 344.3719Q230.65312 344.6844 231.16875 344.91876Q231.91875 345.27814 232.27812 345.8094Q232.6375 346.325 232.6375 347.02814Q232.6375 347.71564 232.24687 348.325Q231.85625 348.91876 231.12187 349.2625Q230.3875 349.59064 229.46562 349.59064Q228.29375 349.59064 227.49687 349.2625Q226.71562 348.91876 226.2625 348.23126Q225.825 347.54376 225.80937 346.6844ZM238.30937 347.45L239.40312 347.575Q239.15312 348.52814 238.45 349.0594Q237.74687 349.59064 236.66875 349.59064Q235.30937 349.59064 234.49687 348.7469Q233.7 347.90314 233.7 346.3875Q233.7 344.825 234.5125 343.96564Q235.325 343.09064 236.60625 343.09064Q237.85625 343.09064 238.6375 343.9344Q239.43437 344.77814 239.43437 346.325Q239.43437 346.41876 239.43437 346.60626L234.79375 346.60626Q234.85625 347.6375 235.37187 348.1844Q235.8875 348.71564 236.66875 348.71564Q237.24687 348.71564 237.65312 348.41876Q238.075 348.10626 238.30937 347.45ZM234.85625 345.7469L238.325 345.7469Q238.2625 344.95 237.93437 344.5594Q237.41875 343.95 236.62187 343.95Q235.8875 343.95 235.3875 344.4344Q234.90312 344.91876 234.85625 345.7469ZM241.05937 349.45L241.05937 343.23126L241.99687 343.23126L241.99687 344.10626Q242.68437 343.09064 243.98125 343.09064Q244.54375 343.09064 245.0125 343.29376Q245.49687 343.4969 245.73125 343.825Q245.96562 344.15314 246.05937 344.59064Q246.10625 344.8875 246.10625 345.6219L246.10625 349.45L245.05937 349.45L245.05937 345.66876Q245.05937 345.0125 244.93437 344.7Q244.80937 344.3875 244.49687 344.2Q244.18437 343.9969 243.7625 343.9969Q243.09062 343.9969 242.59062 344.4344Q242.10625 344.85626 242.10625 346.04376L242.10625 349.45L241.05937 349.45ZM252.09062 349.45L252.09062 348.66876Q251.49687 349.59064 250.35625 349.59064Q249.60625 349.59064 248.98125 349.1844Q248.35625 348.7625 248.0125 348.02814Q247.66875 347.29376 247.66875 346.34064Q247.66875 345.41876 247.98125 344.65314Q248.29375 343.8875 248.91875 343.4969Q249.54375 343.09064 250.30937 343.09064Q250.87187 343.09064 251.30937 343.325Q251.74687 343.5594 252.02812 343.9344L252.02812 340.85626L253.075 340.85626L253.075 349.45L252.09062 349.45ZM248.7625 346.34064Q248.7625 347.54376 249.2625 348.1375Q249.7625 348.71564 250.45 348.71564Q251.1375 348.71564 251.62187 348.15314Q252.10625 347.59064 252.10625 346.4344Q252.10625 345.15314 251.60625 344.5594Q251.12187 343.96564 250.40312 343.96564Q249.7 343.96564 249.23125 344.54376Q248.7625 345.10626 248.7625 346.34064ZM255.18437 349.45L255.18437 340.85626L258.15314 340.85626Q259.15314 340.85626 259.6844 340.98126Q260.41876 341.15314 260.9344 341.59064Q261.6219 342.16876 261.95 343.075Q262.29376 343.96564 262.29376 345.10626Q262.29376 346.09064 262.0594 346.84064Q261.84064 347.59064 261.48126 348.09064Q261.1219 348.59064 260.6844 348.8719Q260.2625 349.15314 259.66876 349.3094Q259.075 349.45 258.29376 349.45L255.18437 349.45ZM256.325 348.4344L258.15314 348.4344Q259.0125 348.4344 259.4969 348.27814Q259.98126 348.1219 260.2625 347.825Q260.66876 347.4344 260.8875 346.7469Q261.1219 346.0594 261.1219 345.09064Q261.1219 343.7469 260.66876 343.02814Q260.23126 342.29376 259.60626 342.04376Q259.1375 341.8719 258.1375 341.8719L256.325 341.8719L256.325 348.4344ZM268.1219 348.6844Q267.52814 349.1844 266.98126 349.3875Q266.45 349.59064 265.825 349.59064Q264.79376 349.59064 264.2469 349.09064Q263.7 348.59064 263.7 347.8094Q263.7 347.35626 263.90314 346.98126Q264.10626 346.59064 264.45 346.3719Q264.79376 346.1375 265.21564 346.02814Q265.5125 345.9344 266.15314 345.85626Q267.41876 345.71564 268.02814 345.4969Q268.02814 345.27814 268.02814 345.23126Q268.02814 344.575 267.73126 344.3094Q267.325 343.96564 266.52814 343.96564Q265.79376 343.96564 265.4344 344.23126Q265.075 344.48126 264.90314 345.1375L263.8719 344.9969Q264.0125 344.34064 264.34064 343.9344Q264.66876 343.52814 265.27814 343.3094Q265.8875 343.09064 266.6844 343.09064Q267.48126 343.09064 267.98126 343.27814Q268.48126 343.46564 268.71564 343.7469Q268.95 344.02814 269.04376 344.46564Q269.09064 344.73126 269.09064 345.4344L269.09064 346.84064Q269.09064 348.3094 269.15314 348.7Q269.23126 349.09064 269.4344 349.45L268.325 349.45Q268.16876 349.1219 268.1219 348.6844ZM268.02814 346.325Q267.45 346.5594 266.3094 346.73126Q265.65314 346.825 265.3875 346.95Q265.1219 347.0594 264.96564 347.27814Q264.825 347.4969 264.825 347.77814Q264.825 348.2 265.1375 348.48126Q265.46564 348.7625 266.075 348.7625Q266.6844 348.7625 267.15314 348.4969Q267.6375 348.23126 267.85626 347.7625Q268.02814 347.40314 268.02814 346.71564L268.02814 346.325ZM273.35626 348.5125L273.5125 349.4344Q273.0594 349.52814 272.71564 349.52814Q272.1375 349.52814 271.825 349.35626Q271.5125 349.16876 271.3719 348.8719Q271.2469 348.575 271.2469 347.6219L271.2469 344.04376L270.48126 344.04376L270.48126 343.23126L271.2469 343.23126L271.2469 341.6844L272.29376 341.0594L272.29376 343.23126L273.35626 343.23126L273.35626 344.04376L272.29376 344.04376L272.29376 347.6844Q272.29376 348.1375 272.34064 348.2625Q272.40314 348.3875 272.52814 348.46564Q272.65314 348.54376 272.8875 348.54376Q273.075 348.54376 273.35626 348.5125ZM278.1219 348.6844Q277.52814 349.1844 276.98126 349.3875Q276.45 349.59064 275.825 349.59064Q274.79376 349.59064 274.2469 349.09064Q273.7 348.59064 273.7 347.8094Q273.7 347.35626 273.90314 346.98126Q274.10626 346.59064 274.45 346.3719Q274.79376 346.1375 275.21564 346.02814Q275.5125 345.9344 276.15314 345.85626Q277.41876 345.71564 278.02814 345.4969Q278.02814 345.27814 278.02814 345.23126Q278.02814 344.575 277.73126 344.3094Q277.325 343.96564 276.52814 343.96564Q275.79376 343.96564 275.4344 344.23126Q275.075 344.48126 274.90314 345.1375L273.8719 344.9969Q274.0125 344.34064 274.34064 343.9344Q274.66876 343.52814 275.27814 343.3094Q275.8875 343.09064 276.6844 343.09064Q277.48126 343.09064 277.98126 343.27814Q278.48126 343.46564 278.71564 343.7469Q278.95 344.02814 279.04376 344.46564Q279.09064 344.73126 279.09064 345.4344L279.09064 346.84064Q279.09064 348.3094 279.15314 348.7Q279.23126 349.09064 279.4344 349.45L278.325 349.45Q278.16876 349.1219 278.1219 348.6844ZM278.02814 346.325Q277.45 346.5594 276.3094 346.73126Q275.65314 346.825 275.3875 346.95Q275.1219 347.0594 274.96564 347.27814Q274.825 347.4969 274.825 347.77814Q274.825 348.2 275.1375 348.48126Q275.46564 348.7625 276.075 348.7625Q276.6844 348.7625 277.15314 348.4969Q277.6375 348.23126 277.85626 347.7625Q278.02814 347.40314 278.02814 346.71564L278.02814 346.325Z" fill-rule="nonzero"/><path fill="#000000" d="M354.72186 349.45L358.01874 340.85626L359.2375 340.85626L362.7531 349.45L361.47186 349.45L360.45624 346.84064L356.8781 346.84064L355.925 349.45L354.72186 349.45ZM357.20624 345.91876L360.1125 345.91876L359.22186 343.54376Q358.8 342.46564 358.6125 341.7625Q358.4406 342.59064 358.14374 343.40314L357.20624 345.91876ZM366.5656 349.45L366.5656 348.66876Q365.97186 349.59064 364.83124 349.59064Q364.08124 349.59064 363.45624 349.1844Q362.83124 348.7625 362.4875 348.02814Q362.14374 347.29376 362.14374 346.34064Q362.14374 345.41876 362.45624 344.65314Q362.76874 343.8875 363.39374 343.4969Q364.01874 343.09064 364.78436 343.09064Q365.34686 343.09064 365.78436 343.325Q366.22186 343.5594 366.5031 343.9344L366.5031 340.85626L367.55 340.85626L367.55 349.45L366.5656 349.45ZM363.2375 346.34064Q363.2375 347.54376 363.7375 348.1375Q364.2375 348.71564 364.925 348.71564Q365.6125 348.71564 366.09686 348.15314Q366.58124 347.59064 366.58124 346.4344Q366.58124 345.15314 366.08124 344.5594Q365.59686 343.96564 364.8781 343.96564Q364.175 343.96564 363.70624 344.54376Q363.2375 345.10626 363.2375 346.34064ZM369.51874 342.09064L369.51874 340.85626L370.58124 340.85626L370.58124 342.09064L369.51874 342.09064ZM368.1906 351.8719L368.3781 350.96564Q368.70624 351.04376 368.8781 351.04376Q369.20624 351.04376 369.3625 350.825Q369.51874 350.6219 369.51874 349.7625L369.51874 343.23126L370.58124 343.23126L370.58124 349.79376Q370.58124 350.9344 370.28436 351.3875Q369.89374 351.98126 369.01874 351.98126Q368.58124 351.98126 368.1906 351.8719ZM376.6125 349.45L376.6125 348.52814Q375.8781 349.59064 374.6281 349.59064Q374.08124 349.59064 373.59686 349.3875Q373.1281 349.16876 372.89374 348.85626Q372.65936 348.52814 372.5656 348.0594Q372.5031 347.7625 372.5031 347.075L372.5031 343.23126L373.5656 343.23126L373.5656 346.6844Q373.5656 347.4969 373.6281 347.79376Q373.72186 348.2 374.03436 348.45Q374.3625 348.6844 374.84686 348.6844Q375.3156 348.6844 375.72186 348.45Q376.14374 348.2 376.3156 347.77814Q376.5031 347.35626 376.5031 346.5594L376.5031 343.23126L377.55 343.23126L377.55 349.45L376.6125 349.45ZM379.1125 347.59064L380.14374 347.4344Q380.2375 348.0594 380.6281 348.3875Q381.03436 348.71564 381.76874 348.71564Q382.4875 348.71564 382.83124 348.4344Q383.1906 348.1375 383.1906 347.73126Q383.1906 347.3719 382.8781 347.16876Q382.65936 347.02814 381.8 346.8094Q380.64374 346.5125 380.1906 346.3094Q379.7531 346.09064 379.51874 345.71564Q379.28436 345.34064 379.28436 344.8719Q379.28436 344.46564 379.47186 344.10626Q379.65936 343.7469 379.9875 343.5125Q380.2375 343.34064 380.65936 343.21564Q381.08124 343.09064 381.58124 343.09064Q382.3 343.09064 382.84686 343.3094Q383.40936 343.5125 383.675 343.8719Q383.9406 344.23126 384.03436 344.825L383.0031 344.96564Q382.9406 344.4969 382.59686 344.23126Q382.26874 343.95 381.64374 343.95Q380.925 343.95 380.6125 344.2Q380.3 344.4344 380.3 344.7625Q380.3 344.96564 380.425 345.1219Q380.5656 345.29376 380.83124 345.40314Q380.9875 345.46564 381.76874 345.66876Q382.89374 345.98126 383.33124 346.16876Q383.76874 346.35626 384.01874 346.71564Q384.26874 347.075 384.26874 347.6219Q384.26874 348.15314 383.95624 348.6219Q383.65936 349.075 383.08124 349.34064Q382.5031 349.59064 381.76874 349.59064Q380.55 349.59064 379.90936 349.09064Q379.28436 348.575 379.1125 347.59064ZM388.83124 348.5125L388.9875 349.4344Q388.53436 349.52814 388.1906 349.52814Q387.6125 349.52814 387.3 349.35626Q386.9875 349.16876 386.84686 348.8719Q386.72186 348.575 386.72186 347.6219L386.72186 344.04376L385.95624 344.04376L385.95624 343.23126L386.72186 343.23126L386.72186 341.6844L387.76874 341.0594L387.76874 343.23126L388.83124 343.23126L388.83124 344.04376L387.76874 344.04376L387.76874 347.6844Q387.76874 348.1375 387.8156 348.2625Q387.8781 348.3875 388.0031 348.46564Q388.1281 348.54376 388.3625 348.54376Q388.55 348.54376 388.83124 348.5125ZM389.65936 349.45L389.65936 340.85626L392.90936 340.85626Q393.7531 340.85626 394.20624 340.9344Q394.84686 341.04376 395.26874 341.34064Q395.70624 341.6375 395.95624 342.16876Q396.22186 342.7 396.22186 343.34064Q396.22186 344.4344 395.51874 345.2Q394.83124 345.95 393.0031 345.95L390.8 345.95L390.8 349.45L389.65936 349.45ZM390.8 344.95L393.01874 344.95Q394.1281 344.95 394.58124 344.54376Q395.05 344.1219 395.05 343.3719Q395.05 342.84064 394.76874 342.46564Q394.5031 342.075 394.0656 341.95Q393.76874 341.8719 393.0031 341.8719L390.8 341.8719L390.8 344.95ZM401.59686 348.6844Q401.0031 349.1844 400.45624 349.3875Q399.925 349.59064 399.3 349.59064Q398.26874 349.59064 397.72186 349.09064Q397.175 348.59064 397.175 347.8094Q397.175 347.35626 397.3781 346.98126Q397.58124 346.59064 397.925 346.3719Q398.26874 346.1375 398.6906 346.02814Q398.9875 345.9344 399.6281 345.85626Q400.89374 345.71564 401.5031 345.4969Q401.5031 345.27814 401.5031 345.23126Q401.5031 344.575 401.20624 344.3094Q400.8 343.96564 400.0031 343.96564Q399.26874 343.96564 398.90936 344.23126Q398.55 344.48126 398.3781 345.1375L397.34686 344.9969Q397.4875 344.34064 397.8156 343.9344Q398.14374 343.52814 398.7531 343.3094Q399.3625 343.09064 400.15936 343.09064Q400.95624 343.09064 401.45624 343.27814Q401.95624 343.46564 402.1906 343.7469Q402.425 344.02814 402.51874 344.46564Q402.5656 344.73126 402.5656 345.4344L402.5656 346.84064Q402.5656 348.3094 402.6281 348.7Q402.70624 349.09064 402.90936 349.45L401.8 349.45Q401.64374 349.1219 401.59686 348.6844ZM401.5031 346.325Q400.925 346.5594 399.78436 346.73126Q399.1281 346.825 398.8625 346.95Q398.59686 347.0594 398.4406 347.27814Q398.3 347.4969 398.3 347.77814Q398.3 348.2 398.6125 348.48126Q398.9406 348.7625 399.55 348.7625Q400.15936 348.7625 400.6281 348.4969Q401.1125 348.23126 401.33124 347.7625Q401.5031 347.40314 401.5031 346.71564L401.5031 346.325ZM406.83124 348.5125L406.9875 349.4344Q406.53436 349.52814 406.1906 349.52814Q405.6125 349.52814 405.3 349.35626Q404.9875 349.16876 404.84686 348.8719Q404.72186 348.575 404.72186 347.6219L404.72186 344.04376L403.95624 344.04376L403.95624 343.23126L404.72186 343.23126L404.72186 341.6844L405.76874 341.0594L405.76874 343.23126L406.83124 343.23126L406.83124 344.04376L405.76874 344.04376L405.76874 347.6844Q405.76874 348.1375 405.8156 348.2625Q405.8781 348.3875 406.0031 348.46564Q406.1281 348.54376 406.3625 348.54376Q406.55 348.54376 406.83124 348.5125ZM407.53436 349.45L407.53436 340.85626L408.58124 340.85626L408.58124 343.9344Q409.3156 343.09064 410.4406 343.09064Q411.14374 343.09064 411.64374 343.3719Q412.15936 343.6375 412.3781 344.1219Q412.59686 344.59064 412.59686 345.5125L412.59686 349.45L411.55 349.45L411.55 345.5125Q411.55 344.71564 411.20624 344.35626Q410.8625 343.9969 410.2375 343.9969Q409.76874 343.9969 409.34686 344.2469Q408.9406 344.48126 408.7531 344.90314Q408.58124 345.3094 408.58124 346.04376L408.58124 349.45L407.53436 349.45Z" fill-rule="nonzero"/><path fill="#000000" d="M476.13437 349.45L476.13437 340.85626L479.38437 340.85626Q480.22812 340.85626 480.68124 340.9344Q481.32187 341.04376 481.74374 341.34064Q482.18124 341.6375 482.43124 342.16876Q482.69687 342.7 482.69687 343.34064Q482.69687 344.4344 481.99374 345.2Q481.30624 345.95 479.47812 345.95L477.275 345.95L477.275 349.45L476.13437 349.45ZM477.275 344.95L479.49374 344.95Q480.60312 344.95 481.05624 344.54376Q481.525 344.1219 481.525 343.3719Q481.525 342.84064 481.24374 342.46564Q480.97812 342.075 480.54062 341.95Q480.24374 341.8719 479.47812 341.8719L477.275 341.8719L477.275 344.95ZM483.99374 349.45L483.99374 343.23126L484.94687 343.23126L484.94687 344.16876Q485.30624 343.5125 485.60312 343.3094Q485.91562 343.09064 486.29062 343.09064Q486.82187 343.09064 487.36874 343.41876L487.00937 344.40314Q486.61874 344.16876 486.24374 344.16876Q485.88437 344.16876 485.60312 344.3875Q485.3375 344.59064 485.22812 344.96564Q485.04062 345.52814 485.04062 346.1844L485.04062 349.45L483.99374 349.45ZM488.00937 342.075L488.00937 340.85626L489.07187 340.85626L489.07187 342.075L488.00937 342.075ZM488.00937 349.45L488.00937 343.23126L489.07187 343.23126L489.07187 349.45L488.00937 349.45ZM490.61874 346.34064Q490.61874 344.60626 491.57187 343.77814Q492.36874 343.09064 493.525 343.09064Q494.80624 343.09064 495.61874 343.9344Q496.44687 344.7625 496.44687 346.2469Q496.44687 347.45 496.0875 348.1375Q495.72812 348.825 495.025 349.21564Q494.3375 349.59064 493.525 349.59064Q492.22812 349.59064 491.41562 348.7625Q490.61874 347.91876 490.61874 346.34064ZM491.69687 346.34064Q491.69687 347.52814 492.2125 348.1219Q492.74374 348.71564 493.525 348.71564Q494.32187 348.71564 494.8375 348.1219Q495.35312 347.52814 495.35312 346.3094Q495.35312 345.15314 494.82187 344.5594Q494.30624 343.96564 493.525 343.96564Q492.74374 343.96564 492.2125 344.5594Q491.69687 345.1375 491.69687 346.34064ZM497.99374 349.45L497.99374 343.23126L498.94687 343.23126L498.94687 344.16876Q499.30624 343.5125 499.60312 343.3094Q499.91562 343.09064 500.29062 343.09064Q500.82187 343.09064 501.36874 343.41876L501.00937 344.40314Q500.61874 344.16876 500.24374 344.16876Q499.88437 344.16876 499.60312 344.3875Q499.3375 344.59064 499.22812 344.96564Q499.04062 345.52814 499.04062 346.1844L499.04062 349.45L497.99374 349.45ZM502.00937 342.075L502.00937 340.85626L503.07187 340.85626L503.07187 342.075L502.00937 342.075ZM502.00937 349.45L502.00937 343.23126L503.07187 343.23126L503.07187 349.45L502.00937 349.45ZM507.30624 348.5125L507.4625 349.4344Q507.00937 349.52814 506.66562 349.52814Q506.0875 349.52814 505.775 349.35626Q505.4625 349.16876 505.32187 348.8719Q505.19687 348.575 505.19687 347.6219L505.19687 344.04376L504.43124 344.04376L504.43124 343.23126L505.19687 343.23126L505.19687 341.6844L506.24374 341.0594L506.24374 343.23126L507.30624 343.23126L507.30624 344.04376L506.24374 344.04376L506.24374 347.6844Q506.24374 348.1375 506.29062 348.2625Q506.35312 348.3875 506.47812 348.46564Q506.60312 348.54376 506.8375 348.54376Q507.025 348.54376 507.30624 348.5125ZM508.00937 342.075L508.00937 340.85626L509.07187 340.85626L509.07187 342.075L508.00937 342.075ZM508.00937 349.45L508.00937 343.23126L509.07187 343.23126L509.07187 349.45L508.00937 349.45ZM510.44687 349.45L510.44687 348.59064L514.41565 344.04376Q513.72815 344.075 513.2125 344.075L510.68124 344.075L510.68124 343.23126L515.775 343.23126L515.775 343.91876L512.4 347.8719L511.74374 348.59064Q512.4625 348.54376 513.0719 348.54376L515.9625 348.54376L515.9625 349.45L510.44687 349.45ZM520.2594 347.45L521.35315 347.575Q521.10315 348.52814 520.4 349.0594Q519.6969 349.59064 518.6188 349.59064Q517.2594 349.59064 516.4469 348.7469Q515.65 347.90314 515.65 346.3875Q515.65 344.825 516.4625 343.96564Q517.275 343.09064 518.5563 343.09064Q519.8063 343.09064 520.5875 343.9344Q521.3844 344.77814 521.3844 346.325Q521.3844 346.41876 521.3844 346.60626L516.7438 346.60626Q516.8063 347.6375 517.3219 348.1844Q517.8375 348.71564 518.6188 348.71564Q519.1969 348.71564 519.60315 348.41876Q520.025 348.10626 520.2594 347.45ZM516.8063 345.7469L520.275 345.7469Q520.2125 344.95 519.8844 344.5594Q519.3688 343.95 518.5719 343.95Q517.8375 343.95 517.3375 344.4344Q516.85315 344.91876 516.8063 345.7469ZM523.1344 349.45L523.1344 340.85626L526.10315 340.85626Q527.10315 340.85626 527.6344 340.98126Q528.3688 341.15314 528.8844 341.59064Q529.5719 342.16876 529.9 343.075Q530.2438 343.96564 530.2438 345.10626Q530.2438 346.09064 530.0094 346.84064Q529.79065 347.59064 529.4313 348.09064Q529.0719 348.59064 528.6344 348.8719Q528.2125 349.15314 527.6188 349.3094Q527.025 349.45 526.2438 349.45L523.1344 349.45ZM524.275 348.4344L526.10315 348.4344Q526.9625 348.4344 527.4469 348.27814Q527.9313 348.1219 528.2125 347.825Q528.6188 347.4344 528.8375 346.7469Q529.0719 346.0594 529.0719 345.09064Q529.0719 343.7469 528.6188 343.02814Q528.1813 342.29376 527.5563 342.04376Q527.0875 341.8719 526.0875 341.8719L524.275 341.8719L524.275 348.4344ZM531.9938 349.45L531.9938 343.23126L532.9469 343.23126L532.9469 344.16876Q533.3063 343.5125 533.60315 343.3094Q533.91565 343.09064 534.29065 343.09064Q534.8219 343.09064 535.3688 343.41876L535.0094 344.40314Q534.6188 344.16876 534.2438 344.16876Q533.8844 344.16876 533.60315 344.3875Q533.3375 344.59064 533.22815 344.96564Q533.04065 345.52814 533.04065 346.1844L533.04065 349.45L531.9938 349.45ZM535.6188 346.34064Q535.6188 344.60626 536.5719 343.77814Q537.3688 343.09064 538.525 343.09064Q539.8063 343.09064 540.6188 343.9344Q541.4469 344.7625 541.4469 346.2469Q541.4469 347.45 541.0875 348.1375Q540.72815 348.825 540.025 349.21564Q539.3375 349.59064 538.525 349.59064Q537.22815 349.59064 536.41565 348.7625Q535.6188 347.91876 535.6188 346.34064ZM536.6969 346.34064Q536.6969 347.52814 537.2125 348.1219Q537.7438 348.71564 538.525 348.71564Q539.3219 348.71564 539.8375 348.1219Q540.35315 347.52814 540.35315 346.3094Q540.35315 345.15314 539.8219 344.5594Q539.3063 343.96564 538.525 343.96564Q537.7438 343.96564 537.2125 344.5594Q536.6969 345.1375 536.6969 346.34064ZM543.0094 349.45L543.0094 343.23126L543.9469 343.23126L543.9469 344.10626Q544.6344 343.09064 545.9313 343.09064Q546.4938 343.09064 546.9625 343.29376Q547.4469 343.4969 547.6813 343.825Q547.91565 344.15314 548.0094 344.59064Q548.0563 344.8875 548.0563 345.6219L548.0563 349.45L547.0094 349.45L547.0094 345.66876Q547.0094 345.0125 546.8844 344.7Q546.7594 344.3875 546.4469 344.2Q546.1344 343.9969 545.7125 343.9969Q545.04065 343.9969 544.54065 344.4344Q544.0563 344.85626 544.0563 346.04376L544.0563 349.45L543.0094 349.45ZM554.2594 347.45L555.35315 347.575Q555.10315 348.52814 554.4 349.0594Q553.6969 349.59064 552.6188 349.59064Q551.2594 349.59064 550.4469 348.7469Q549.65 347.90314 549.65 346.3875Q549.65 344.825 550.4625 343.96564Q551.275 343.09064 552.5563 343.09064Q553.8063 343.09064 554.5875 343.9344Q555.3844 344.77814 555.3844 346.325Q555.3844 346.41876 555.3844 346.60626L550.7438 346.60626Q550.8063 347.6375 551.3219 348.1844Q551.8375 348.71564 552.6188 348.71564Q553.1969 348.71564 553.60315 348.41876Q554.025 348.10626 554.2594 347.45ZM550.8063 345.7469L554.275 345.7469Q554.2125 344.95 553.8844 344.5594Q553.3688 343.95 552.5719 343.95Q551.8375 343.95 551.3375 344.4344Q550.85315 344.91876 550.8063 345.7469Z" fill-rule="nonzero"/><path stroke="#4285f4" stroke-width="4.0" stroke-linecap="butt" d="M138.5 61.916668L150.5 61.916668" fill-rule="nonzero"/><path fill="#1a1a1a" d="M159.0 63.65104L160.0625 63.510414Q160.23438 64.40104 160.67188 64.80729Q161.10938 65.197914 161.73438 65.197914Q162.48438 65.197914 163.0 64.68229Q163.51562 64.166664 163.51562 63.40104Q163.51562 62.68229 163.03125 62.21354Q162.5625 61.729164 161.82812 61.729164Q161.53125 61.729164 161.07812 61.854164L161.20312 60.916664Q161.3125 60.93229 161.375 60.93229Q162.04688 60.93229 162.57812 60.58854Q163.125 60.229164 163.125 59.49479Q163.125 58.916664 162.73438 58.541664Q162.34375 58.15104 161.71875 58.15104Q161.10938 58.15104 160.6875 58.541664Q160.28125 58.93229 160.17188 59.697914L159.10938 59.510414Q159.29688 58.46354 159.98438 57.885414Q160.67188 57.291664 161.6875 57.291664Q162.39062 57.291664 162.98438 57.604164Q163.57812 57.90104 163.89062 58.416664Q164.20312 58.93229 164.20312 59.52604Q164.20312 60.072914 163.90625 60.541664Q163.60938 60.99479 163.03125 61.260414Q163.78125 61.43229 164.20312 61.99479Q164.625 62.541664 164.625 63.385414Q164.625 64.510414 163.79688 65.291664Q162.98438 66.072914 161.73438 66.072914Q160.60938 66.072914 159.85938 65.40104Q159.10938 64.71354 159.0 63.65104ZM166.4375 65.916664L166.4375 57.322914L170.25 57.322914Q171.40625 57.322914 172.0 57.55729Q172.59375 57.791664 172.95312 58.385414Q173.3125 58.96354 173.3125 59.666664Q173.3125 60.58854 172.71875 61.21354Q172.125 61.83854 170.89062 62.010414Q171.34375 62.229164 171.57812 62.43229Q172.07812 62.885414 172.51562 63.572914L174.01562 65.916664L172.57812 65.916664L171.45312 64.135414Q170.95312 63.354164 170.625 62.947914Q170.3125 62.541664 170.04688 62.385414Q169.79688 62.21354 169.53125 62.135414Q169.34375 62.104164 168.90625 62.104164L167.57812 62.104164L167.57812 65.916664L166.4375 65.916664ZM167.57812 61.11979L170.03125 61.11979Q170.79688 61.11979 171.23438 60.96354Q171.6875 60.791664 171.90625 60.447914Q172.14062 60.08854 172.14062 59.666664Q172.14062 59.05729 171.6875 58.666664Q171.25 58.27604 170.29688 58.27604L167.57812 58.27604L167.57812 61.11979ZM174.90625 62.80729Q174.90625 61.072914 175.85938 60.24479Q176.65625 59.55729 177.8125 59.55729Q179.09375 59.55729 179.90625 60.40104Q180.73438 61.229164 180.73438 62.71354Q180.73438 63.916664 180.375 64.604164Q180.01562 65.291664 179.3125 65.68229Q178.625 66.05729 177.8125 66.05729Q176.51562 66.05729 175.70312 65.229164Q174.90625 64.385414 174.90625 62.80729ZM175.98438 62.80729Q175.98438 63.99479 176.5 64.58854Q177.03125 65.18229 177.8125 65.18229Q178.60938 65.18229 179.125 64.58854Q179.64062 63.99479 179.64062 62.77604Q179.64062 61.61979 179.10938 61.02604Q178.59375 60.43229 177.8125 60.43229Q177.03125 60.43229 176.5 61.02604Q175.98438 61.604164 175.98438 62.80729ZM183.26562 65.916664L182.28125 65.916664L182.28125 57.322914L183.34375 57.322914L183.34375 60.385414Q184.01562 59.55729 185.04688 59.55729Q185.625 59.55729 186.125 59.791664Q186.64062 60.010414 186.96875 60.43229Q187.3125 60.854164 187.5 61.447914Q187.6875 62.041664 187.6875 62.71354Q187.6875 64.30729 186.89062 65.18229Q186.09375 66.05729 185.0 66.05729Q183.89062 66.05729 183.26562 65.135414L183.26562 65.916664ZM183.25 62.760414Q183.25 63.86979 183.5625 64.36979Q184.0625 65.18229 184.90625 65.18229Q185.59375 65.18229 186.09375 64.58854Q186.60938 63.99479 186.60938 62.791664Q186.60938 61.572914 186.125 60.99479Q185.64062 60.416664 184.95312 60.416664Q184.26562 60.416664 183.75 61.02604Q183.25 61.61979 183.25 62.760414ZM188.90625 62.80729Q188.90625 61.072914 189.85938 60.24479Q190.65625 59.55729 191.8125 59.55729Q193.09375 59.55729 193.90625 60.40104Q194.73438 61.229164 194.73438 62.71354Q194.73438 63.916664 194.375 64.604164Q194.01562 65.291664 193.3125 65.68229Q192.625 66.05729 191.8125 66.05729Q190.51562 66.05729 189.70312 65.229164Q188.90625 64.385414 188.90625 62.80729ZM189.98438 62.80729Q189.98438 63.99479 190.5 64.58854Q191.03125 65.18229 191.8125 65.18229Q192.60938 65.18229 193.125 64.58854Q193.64062 63.99479 193.64062 62.77604Q193.64062 61.61979 193.10938 61.02604Q192.59375 60.43229 191.8125 60.43229Q191.03125 60.43229 190.5 61.02604Q189.98438 61.604164 189.98438 62.80729ZM198.59375 64.979164L198.75 65.90104Q198.29688 65.99479 197.95312 65.99479Q197.375 65.99479 197.0625 65.822914Q196.75 65.635414 196.60938 65.33854Q196.48438 65.041664 196.48438 64.08854L196.48438 60.510414L195.71875 60.510414L195.71875 59.697914L196.48438 59.697914L196.48438 58.15104L197.53125 57.52604L197.53125 59.697914L198.59375 59.697914L198.59375 60.510414L197.53125 60.510414L197.53125 64.15104Q197.53125 64.604164 197.57812 64.729164Q197.64062 64.854164 197.76562 64.93229Q197.89062 65.010414 198.125 65.010414Q198.3125 65.010414 198.59375 64.979164ZM198.875 64.05729L199.90625 63.90104Q200.0 64.52604 200.39062 64.854164Q200.79688 65.18229 201.53125 65.18229Q202.25 65.18229 202.59375 64.90104Q202.95312 64.604164 202.95312 64.197914Q202.95312 63.83854 202.64062 63.635414Q202.42188 63.49479 201.5625 63.27604Q200.40625 62.979164 199.95312 62.77604Q199.51562 62.55729 199.28125 62.18229Q199.04688 61.80729 199.04688 61.33854Q199.04688 60.93229 199.23438 60.572914Q199.42188 60.21354 199.75 59.979164Q200.0 59.80729 200.42188 59.68229Q200.84375 59.55729 201.34375 59.55729Q202.0625 59.55729 202.60938 59.77604Q203.17188 59.979164 203.4375 60.33854Q203.70312 60.697914 203.79688 61.291664L202.76562 61.43229Q202.70312 60.96354 202.35938 60.697914Q202.03125 60.416664 201.40625 60.416664Q200.6875 60.416664 200.375 60.666664Q200.0625 60.90104 200.0625 61.229164Q200.0625 61.43229 200.1875 61.58854Q200.32812 61.760414 200.59375 61.86979Q200.75 61.93229 201.53125 62.135414Q202.65625 62.447914 203.09375 62.635414Q203.53125 62.822914 203.78125 63.18229Q204.03125 63.541664 204.03125 64.08854Q204.03125 64.61979 203.71875 65.08854Q203.42188 65.541664 202.84375 65.80729Q202.26562 66.05729 201.53125 66.05729Q200.3125 66.05729 199.67188 65.55729Q199.04688 65.041664 198.875 64.05729Z" fill-rule="nonzero"/><path stroke="#ea4335" stroke-width="4.0" stroke-linecap="butt" d="M221.5 61.916668L233.5 61.916668" fill-rule="nonzero"/><path fill="#1a1a1a" d="M242.0 63.666664L243.10938 63.572914Q243.23438 64.385414 243.67188 64.791664Q244.125 65.197914 244.76562 65.197914Q245.51562 65.197914 246.04688 64.61979Q246.57812 64.041664 246.57812 63.104164Q246.57812 62.197914 246.0625 61.68229Q245.5625 61.15104 244.73438 61.15104Q244.23438 61.15104 243.8125 61.385414Q243.40625 61.61979 243.17188 61.979164L242.1875 61.854164L243.01562 57.447914L247.29688 57.447914L247.29688 58.447914L243.85938 58.447914L243.40625 60.760414Q244.17188 60.21354 245.01562 60.21354Q246.14062 60.21354 246.90625 60.99479Q247.6875 61.77604 247.6875 63.010414Q247.6875 64.166664 247.01562 65.02604Q246.1875 66.05729 244.76562 66.05729Q243.59375 66.05729 242.84375 65.40104Q242.10938 64.74479 242.0 63.666664ZM249.4375 65.916664L249.4375 57.322914L253.25 57.322914Q254.40625 57.322914 255.0 57.55729Q255.59375 57.791664 255.95312 58.385414Q256.3125 58.96354 256.3125 59.666664Q256.3125 60.58854 255.71875 61.21354Q255.125 61.83854 253.89062 62.010414Q254.34375 62.229164 254.57812 62.43229Q255.07812 62.885414 255.51562 63.572914L257.01562 65.916664L255.57812 65.916664L254.45312 64.135414Q253.95312 63.354164 253.625 62.947914Q253.3125 62.541664 253.04688 62.385414Q252.79688 62.21354 252.53125 62.135414Q252.34375 62.104164 251.90625 62.104164L250.57812 62.104164L250.57812 65.916664L249.4375 65.916664ZM250.57812 61.11979L253.03125 61.11979Q253.79688 61.11979 254.23438 60.96354Q254.6875 60.791664 254.90625 60.447914Q255.14062 60.08854 255.14062 59.666664Q255.14062 59.05729 254.6875 58.666664Q254.25 58.27604 253.29688 58.27604L250.57812 58.27604L250.57812 61.11979ZM257.90625 62.80729Q257.90625 61.072914 258.85938 60.24479Q259.65625 59.55729 260.8125 59.55729Q262.09375 59.55729 262.90625 60.40104Q263.73438 61.229164 263.73438 62.71354Q263.73438 63.916664 263.375 64.604164Q263.01562 65.291664 262.3125 65.68229Q261.625 66.05729 260.8125 66.05729Q259.51562 66.05729 258.70312 65.229164Q257.90625 64.385414 257.90625 62.80729ZM258.98438 62.80729Q258.98438 63.99479 259.5 64.58854Q260.03125 65.18229 260.8125 65.18229Q261.60938 65.18229 262.125 64.58854Q262.64062 63.99479 262.64062 62.77604Q262.64062 61.61979 262.10938 61.02604Q261.59375 60.43229 260.8125 60.43229Q260.03125 60.43229 259.5 61.02604Q258.98438 61.604164 258.98438 62.80729ZM266.26562 65.916664L265.28125 65.916664L265.28125 57.322914L266.34375 57.322914L266.34375 60.385414Q267.01562 59.55729 268.04688 59.55729Q268.625 59.55729 269.125 59.791664Q269.64062 60.010414 269.96875 60.43229Q270.3125 60.854164 270.5 61.447914Q270.6875 62.041664 270.6875 62.71354Q270.6875 64.30729 269.89062 65.18229Q269.09375 66.05729 268.0 66.05729Q266.89062 66.05729 266.26562 65.135414L266.26562 65.916664ZM266.25 62.760414Q266.25 63.86979 266.5625 64.36979Q267.0625 65.18229 267.90625 65.18229Q268.59375 65.18229 269.09375 64.58854Q269.60938 63.99479 269.60938 62.791664Q269.60938 61.572914 269.125 60.99479Q268.64062 60.416664 267.95312 60.416664Q267.26562 60.416664 266.75 61.02604Q266.25 61.61979 266.25 62.760414ZM271.90625 62.80729Q271.90625 61.072914 272.85938 60.24479Q273.65625 59.55729 274.8125 59.55729Q276.09375 59.55729 276.90625 60.40104Q277.73438 61.229164 277.73438 62.71354Q277.73438 63.916664 277.375 64.604164Q277.01562 65.291664 276.3125 65.68229Q275.625 66.05729 274.8125 66.05729Q273.51562 66.05729 272.70312 65.229164Q271.90625 64.385414 271.90625 62.80729ZM272.98438 62.80729Q272.98438 63.99479 273.5 64.58854Q274.03125 65.18229 274.8125 65.18229Q275.60938 65.18229 276.125 64.58854Q276.64062 63.99479 276.64062 62.77604Q276.64062 61.61979 276.10938 61.02604Q275.59375 60.43229 274.8125 60.43229Q274.03125 60.43229 273.5 61.02604Q272.98438 61.604164 272.98438 62.80729ZM281.59375 64.979164L281.75 65.90104Q281.29688 65.99479 280.95312 65.99479Q280.375 65.99479 280.0625 65.822914Q279.75 65.635414 279.60938 65.33854Q279.48438 65.041664 279.48438 64.08854L279.48438 60.510414L278.71875 60.510414L278.71875 59.697914L279.48438 59.697914L279.48438 58.15104L280.53125 57.52604L280.53125 59.697914L281.59375 59.697914L281.59375 60.510414L280.53125 60.510414L280.53125 64.15104Q280.53125 64.604164 280.57812 64.729164Q280.64062 64.854164 280.76562 64.93229Q280.89062 65.010414 281.125 65.010414Q281.3125 65.010414 281.59375 64.979164ZM281.875 64.05729L282.90625 63.90104Q283.0 64.52604 283.39062 64.854164Q283.79688 65.18229 284.53125 65.18229Q285.25 65.18229 285.59375 64.90104Q285.95312 64.604164 285.95312 64.197914Q285.95312 63.83854 285.64062 63.635414Q285.42188 63.49479 284.5625 63.27604Q283.40625 62.979164 282.95312 62.77604Q282.51562 62.55729 282.28125 62.18229Q282.04688 61.80729 282.04688 61.33854Q282.04688 60.93229 282.23438 60.572914Q282.42188 60.21354 282.75 59.979164Q283.0 59.80729 283.42188 59.68229Q283.84375 59.55729 284.34375 59.55729Q285.0625 59.55729 285.60938 59.77604Q286.17188 59.979164 286.4375 60.33854Q286.70312 60.697914 286.79688 61.291664L285.76562 61.43229Q285.70312 60.96354 285.35938 60.697914Q285.03125 60.416664 284.40625 60.416664Q283.6875 60.416664 283.375 60.666664Q283.0625 60.90104 283.0625 61.229164Q283.0625 61.43229 283.1875 61.58854Q283.32812 61.760414 283.59375 61.86979Q283.75 61.93229 284.53125 62.135414Q285.65625 62.447914 286.09375 62.635414Q286.53125 62.822914 286.78125 63.18229Q287.03125 63.541664 287.03125 64.08854Q287.03125 64.61979 286.71875 65.08854Q286.42188 65.541664 285.84375 65.80729Q285.26562 66.05729 284.53125 66.05729Q283.3125 66.05729 282.67188 65.55729Q282.04688 65.041664 281.875 64.05729Z" fill-rule="nonzero"/><path stroke="#fbbc04" stroke-width="4.0" stroke-linecap="butt" d="M304.5 61.916668L316.5 61.916668" fill-rule="nonzero"/><path fill="#1a1a1a" d="M325.0625 58.447914L325.0625 57.43229L330.625 57.43229L330.625 58.260414Q329.8125 59.135414 329.0 60.58854Q328.20312 62.02604 327.76562 63.55729Q327.4375 64.635414 327.35938 65.916664L326.26562 65.916664Q326.28125 64.90104 326.65625 63.46354Q327.04688 62.02604 327.75 60.697914Q328.46875 59.36979 329.28125 58.447914L325.0625 58.447914ZM332.4375 65.916664L332.4375 57.322914L336.25 57.322914Q337.40625 57.322914 338.0 57.55729Q338.59375 57.791664 338.95312 58.385414Q339.3125 58.96354 339.3125 59.666664Q339.3125 60.58854 338.71875 61.21354Q338.125 61.83854 336.89062 62.010414Q337.34375 62.229164 337.57812 62.43229Q338.07812 62.885414 338.51562 63.572914L340.01562 65.916664L338.57812 65.916664L337.45312 64.135414Q336.95312 63.354164 336.625 62.947914Q336.3125 62.541664 336.04688 62.385414Q335.79688 62.21354 335.53125 62.135414Q335.34375 62.104164 334.90625 62.104164L333.57812 62.104164L333.57812 65.916664L332.4375 65.916664ZM333.57812 61.11979L336.03125 61.11979Q336.79688 61.11979 337.23438 60.96354Q337.6875 60.791664 337.90625 60.447914Q338.14062 60.08854 338.14062 59.666664Q338.14062 59.05729 337.6875 58.666664Q337.25 58.27604 336.29688 58.27604L333.57812 58.27604L333.57812 61.11979ZM340.90625 62.80729Q340.90625 61.072914 341.85938 60.24479Q342.65625 59.55729 343.8125 59.55729Q345.09375 59.55729 345.90625 60.40104Q346.73438 61.229164 346.73438 62.71354Q346.73438 63.916664 346.375 64.604164Q346.01562 65.291664 345.3125 65.68229Q344.625 66.05729 343.8125 66.05729Q342.51562 66.05729 341.70312 65.229164Q340.90625 64.385414 340.90625 62.80729ZM341.98438 62.80729Q341.98438 63.99479 342.5 64.58854Q343.03125 65.18229 343.8125 65.18229Q344.60938 65.18229 345.125 64.58854Q345.64062 63.99479 345.64062 62.77604Q345.64062 61.61979 345.10938 61.02604Q344.59375 60.43229 343.8125 60.43229Q343.03125 60.43229 342.5 61.02604Q341.98438 61.604164 341.98438 62.80729ZM349.26562 65.916664L348.28125 65.916664L348.28125 57.322914L349.34375 57.322914L349.34375 60.385414Q350.01562 59.55729 351.04688 59.55729Q351.625 59.55729 352.125 59.791664Q352.64062 60.010414 352.96875 60.43229Q353.3125 60.854164 353.5 61.447914Q353.6875 62.041664 353.6875 62.71354Q353.6875 64.30729 352.89062 65.18229Q352.09375 66.05729 351.0 66.05729Q349.89062 66.05729 349.26562 65.135414L349.26562 65.916664ZM349.25 62.760414Q349.25 63.86979 349.5625 64.36979Q350.0625 65.18229 350.90625 65.18229Q351.59375 65.18229 352.09375 64.58854Q352.60938 63.99479 352.60938 62.791664Q352.60938 61.572914 352.125 60.99479Q351.64062 60.416664 350.95312 60.416664Q350.26562 60.416664 349.75 61.02604Q349.25 61.61979 349.25 62.760414ZM354.90625 62.80729Q354.90625 61.072914 355.85938 60.24479Q356.65625 59.55729 357.8125 59.55729Q359.09375 59.55729 359.90625 60.40104Q360.73438 61.229164 360.73438 62.71354Q360.73438 63.916664 360.375 64.604164Q360.01562 65.291664 359.3125 65.68229Q358.625 66.05729 357.8125 66.05729Q356.51562 66.05729 355.70312 65.229164Q354.90625 64.385414 354.90625 62.80729ZM355.98438 62.80729Q355.98438 63.99479 356.5 64.58854Q357.03125 65.18229 357.8125 65.18229Q358.60938 65.18229 359.125 64.58854Q359.64062 63.99479 359.64062 62.77604Q359.64062 61.61979 359.10938 61.02604Q358.59375 60.43229 357.8125 60.43229Q357.03125 60.43229 356.5 61.02604Q355.98438 61.604164 355.98438 62.80729ZM364.59375 64.979164L364.75 65.90104Q364.29688 65.99479 363.95312 65.99479Q363.375 65.99479 363.0625 65.822914Q362.75 65.635414 362.60938 65.33854Q362.48438 65.041664 362.48438 64.08854L362.48438 60.510414L361.71875 60.510414L361.71875 59.697914L362.48438 59.697914L362.48438 58.15104L363.53125 57.52604L363.53125 59.697914L364.59375 59.697914L364.59375 60.510414L363.53125 60.510414L363.53125 64.15104Q363.53125 64.604164 363.57812 64.729164Q363.64062 64.854164 363.76562 64.93229Q363.89062 65.010414 364.125 65.010414Q364.3125 65.010414 364.59375 64.979164ZM364.875 64.05729L365.90625 63.90104Q366.0 64.52604 366.39062 64.854164Q366.79688 65.18229 367.53125 65.18229Q368.25 65.18229 368.59375 64.90104Q368.95312 64.604164 368.95312 64.197914Q368.95312 63.83854 368.64062 63.635414Q368.42188 63.49479 367.5625 63.27604Q366.40625 62.979164 365.95312 62.77604Q365.51562 62.55729 365.28125 62.18229Q365.04688 61.80729 365.04688 61.33854Q365.04688 60.93229 365.23438 60.572914Q365.42188 60.21354 365.75 59.979164Q366.0 59.80729 366.42188 59.68229Q366.84375 59.55729 367.34375 59.55729Q368.0625 59.55729 368.60938 59.77604Q369.17188 59.979164 369.4375 60.33854Q369.70312 60.697914 369.79688 61.291664L368.76562 61.43229Q368.70312 60.96354 368.35938 60.697914Q368.03125 60.416664 367.40625 60.416664Q366.6875 60.416664 366.375 60.666664Q366.0625 60.90104 366.0625 61.229164Q366.0625 61.43229 366.1875 61.58854Q366.32812 61.760414 366.59375 61.86979Q366.75 61.93229 367.53125 62.135414Q368.65625 62.447914 369.09375 62.635414Q369.53125 62.822914 369.78125 63.18229Q370.03125 63.541664 370.03125 64.08854Q370.03125 64.61979 369.71875 65.08854Q369.42188 65.541664 368.84375 65.80729Q368.26562 66.05729 367.53125 66.05729Q366.3125 66.05729 365.67188 65.55729Q365.04688 65.041664 364.875 64.05729Z" fill-rule="nonzero"/><path stroke="#34a853" stroke-width="4.0" stroke-linecap="butt" d="M387.5 61.916668L399.5 61.916668" fill-rule="nonzero"/><path fill="#1a1a1a" d="M411.96875 65.916664L410.92188 65.916664L410.92188 59.197914Q410.53125 59.55729 409.90625 59.93229Q409.29688 60.291664 408.8125 60.46354L408.8125 59.447914Q409.6875 59.02604 410.34375 58.447914Q411.01562 57.854164 411.29688 57.291664L411.96875 57.291664L411.96875 65.916664ZM415.0 61.68229Q415.0 60.15104 415.3125 59.229164Q415.625 58.291664 416.23438 57.791664Q416.85938 57.291664 417.79688 57.291664Q418.48438 57.291664 419.0 57.572914Q419.53125 57.854164 419.875 58.385414Q420.21875 58.90104 420.40625 59.65104Q420.59375 60.40104 420.59375 61.68229Q420.59375 63.197914 420.28125 64.11979Q419.98438 65.041664 419.35938 65.55729Q418.75 66.05729 417.79688 66.05729Q416.5625 66.05729 415.84375 65.166664Q415.0 64.104164 415.0 61.68229ZM416.07812 61.68229Q416.07812 63.791664 416.57812 64.49479Q417.07812 65.197914 417.79688 65.197914Q418.53125 65.197914 419.01562 64.49479Q419.51562 63.791664 419.51562 61.68229Q419.51562 59.55729 419.01562 58.86979Q418.53125 58.166664 417.78125 58.166664Q417.0625 58.166664 416.625 58.77604Q416.07812 59.55729 416.07812 61.68229ZM422.4375 65.916664L422.4375 57.322914L426.25 57.322914Q427.40625 57.322914 428.0 57.55729Q428.59375 57.791664 428.95312 58.385414Q429.3125 58.96354 429.3125 59.666664Q429.3125 60.58854 428.71875 61.21354Q428.125 61.83854 426.89062 62.010414Q427.34375 62.229164 427.57812 62.43229Q428.07812 62.885414 428.51562 63.572914L430.01562 65.916664L428.57812 65.916664L427.45312 64.135414Q426.95312 63.354164 426.625 62.947914Q426.3125 62.541664 426.04688 62.385414Q425.79688 62.21354 425.53125 62.135414Q425.34375 62.104164 424.90625 62.104164L423.57812 62.104164L423.57812 65.916664L422.4375 65.916664ZM423.57812 61.11979L426.03125 61.11979Q426.79688 61.11979 427.23438 60.96354Q427.6875 60.791664 427.90625 60.447914Q428.14062 60.08854 428.14062 59.666664Q428.14062 59.05729 427.6875 58.666664Q427.25 58.27604 426.29688 58.27604L423.57812 58.27604L423.57812 61.11979ZM430.90625 62.80729Q430.90625 61.072914 431.85938 60.24479Q432.65625 59.55729 433.8125 59.55729Q435.09375 59.55729 435.90625 60.40104Q436.73438 61.229164 436.73438 62.71354Q436.73438 63.916664 436.375 64.604164Q436.01562 65.291664 435.3125 65.68229Q434.625 66.05729 433.8125 66.05729Q432.51562 66.05729 431.70312 65.229164Q430.90625 64.385414 430.90625 62.80729ZM431.98438 62.80729Q431.98438 63.99479 432.5 64.58854Q433.03125 65.18229 433.8125 65.18229Q434.60938 65.18229 435.125 64.58854Q435.64062 63.99479 435.64062 62.77604Q435.64062 61.61979 435.10938 61.02604Q434.59375 60.43229 433.8125 60.43229Q433.03125 60.43229 432.5 61.02604Q431.98438 61.604164 431.98438 62.80729ZM439.26562 65.916664L438.28125 65.916664L438.28125 57.322914L439.34375 57.322914L439.34375 60.385414Q440.01562 59.55729 441.04688 59.55729Q441.625 59.55729 442.125 59.791664Q442.64062 60.010414 442.96875 60.43229Q443.3125 60.854164 443.5 61.447914Q443.6875 62.041664 443.6875 62.71354Q443.6875 64.30729 442.89062 65.18229Q442.09375 66.05729 441.0 66.05729Q439.89062 66.05729 439.26562 65.135414L439.26562 65.916664ZM439.25 62.760414Q439.25 63.86979 439.5625 64.36979Q440.0625 65.18229 440.90625 65.18229Q441.59375 65.18229 442.09375 64.58854Q442.60938 63.99479 442.60938 62.791664Q442.60938 61.572914 442.125 60.99479Q441.64062 60.416664 440.95312 60.416664Q440.26562 60.416664 439.75 61.02604Q439.25 61.61979 439.25 62.760414ZM444.90625 62.80729Q444.90625 61.072914 445.85938 60.24479Q446.65625 59.55729 447.8125 59.55729Q449.09375 59.55729 449.90625 60.40104Q450.73438 61.229164 450.73438 62.71354Q450.73438 63.916664 450.375 64.604164Q450.01562 65.291664 449.3125 65.68229Q448.625 66.05729 447.8125 66.05729Q446.51562 66.05729 445.70312 65.229164Q444.90625 64.385414 444.90625 62.80729ZM445.98438 62.80729Q445.98438 63.99479 446.5 64.58854Q447.03125 65.18229 447.8125 65.18229Q448.60938 65.18229 449.125 64.58854Q449.64062 63.99479 449.64062 62.77604Q449.64062 61.61979 449.10938 61.02604Q448.59375 60.43229 447.8125 60.43229Q447.03125 60.43229 446.5 61.02604Q445.98438 61.604164 445.98438 62.80729ZM454.59375 64.979164L454.75 65.90104Q454.29688 65.99479 453.95312 65.99479Q453.375 65.99479 453.0625 65.822914Q452.75 65.635414 452.60938 65.33854Q452.48438 65.041664 452.48438 64.08854L452.48438 60.510414L451.71875 60.510414L451.71875 59.697914L452.48438 59.697914L452.48438 58.15104L453.53125 57.52604L453.53125 59.697914L454.59375 59.697914L454.59375 60.510414L453.53125 60.510414L453.53125 64.15104Q453.53125 64.604164 453.57812 64.729164Q453.64062 64.854164 453.76562 64.93229Q453.89062 65.010414 454.125 65.010414Q454.3125 65.010414 454.59375 64.979164ZM454.875 64.05729L455.90625 63.90104Q456.0 64.52604 456.39062 64.854164Q456.79688 65.18229 457.53125 65.18229Q458.25 65.18229 458.59375 64.90104Q458.95312 64.604164 458.95312 64.197914Q458.95312 63.83854 458.64062 63.635414Q458.42188 63.49479 457.5625 63.27604Q456.40625 62.979164 455.95312 62.77604Q455.51562 62.55729 455.28125 62.18229Q455.04688 61.80729 455.04688 61.33854Q455.04688 60.93229 455.23438 60.572914Q455.42188 60.21354 455.75 59.979164Q456.0 59.80729 456.42188 59.68229Q456.84375 59.55729 457.34375 59.55729Q458.0625 59.55729 458.60938 59.77604Q459.17188 59.979164 459.4375 60.33854Q459.70312 60.697914 459.79688 61.291664L458.76562 61.43229Q458.70312 60.96354 458.35938 60.697914Q458.03125 60.416664 457.40625 60.416664Q456.6875 60.416664 456.375 60.666664Q456.0625 60.90104 456.0625 61.229164Q456.0625 61.43229 456.1875 61.58854Q456.32812 61.760414 456.59375 61.86979Q456.75 61.93229 457.53125 62.135414Q458.65625 62.447914 459.09375 62.635414Q459.53125 62.822914 459.78125 63.18229Q460.03125 63.541664 460.03125 64.08854Q460.03125 64.61979 459.71875 65.08854Q459.42188 65.541664 458.84375 65.80729Q458.26562 66.05729 457.53125 66.05729Q456.3125 66.05729 455.67188 65.55729Q455.04688 65.041664 454.875 64.05729Z" fill-rule="nonzero"/><path fill="#757575" d="M270.76562 32.534374L272.65625 33.003124Q272.0625 35.346874 270.51562 36.58125Q268.96875 37.8 266.71875 37.8Q264.40625 37.8 262.95312 36.8625Q261.51562 35.909374 260.75 34.128124Q260.0 32.33125 260.0 30.284374Q260.0 28.05 260.84375 26.39375Q261.70312 24.721874 263.28125 23.8625Q264.85938 22.9875 266.75 22.9875Q268.90625 22.9875 270.35938 24.08125Q271.82812 25.175 272.40625 27.159374L270.54688 27.596874Q270.04688 26.034374 269.09375 25.33125Q268.15625 24.6125 266.71875 24.6125Q265.0625 24.6125 263.95312 25.409374Q262.84375 26.190624 262.39062 27.534374Q261.95312 28.8625 261.95312 30.26875Q261.95312 32.096874 262.48438 33.471874Q263.01562 34.83125 264.14062 35.503124Q265.26562 36.175 266.5625 36.175Q268.15625 36.175 269.26562 35.253124Q270.375 34.33125 270.76562 32.534374ZM273.67188 32.3625Q273.67188 29.4875 275.26562 28.096874Q276.60938 26.940624 278.53125 26.940624Q280.67188 26.940624 282.01562 28.346874Q283.375 29.753124 283.375 32.221874Q283.375 34.221874 282.78125 35.378124Q282.1875 36.51875 281.03125 37.159374Q279.89062 37.784374 278.53125 37.784374Q276.34375 37.784374 275.0 36.39375Q273.67188 34.9875 273.67188 32.3625ZM275.46875 32.3625Q275.46875 34.3625 276.32812 35.346874Q277.20312 36.33125 278.53125 36.33125Q279.84375 36.33125 280.70312 35.346874Q281.57812 34.346874 281.57812 32.3Q281.57812 30.378124 280.70312 29.39375Q279.82812 28.39375 278.53125 28.39375Q277.20312 28.39375 276.32812 29.39375Q275.46875 30.378124 275.46875 32.3625ZM285.28125 37.55L285.28125 23.2375L287.03125 23.2375L287.03125 37.55L285.28125 37.55ZM289.28125 37.55L289.28125 23.2375L291.03125 23.2375L291.03125 37.55L289.28125 37.55ZM293.32812 25.253124L293.32812 23.2375L295.09375 23.2375L295.09375 25.253124L293.32812 25.253124ZM293.32812 37.55L293.32812 27.175L295.09375 27.175L295.09375 37.55L293.32812 37.55ZM296.60938 34.45625L298.35938 34.175Q298.5 35.221874 299.17188 35.784374Q299.84375 36.33125 301.04688 36.33125Q302.25 36.33125 302.82812 35.846874Q303.42188 35.346874 303.42188 34.690624Q303.42188 34.096874 302.90625 33.753124Q302.54688 33.51875 301.10938 33.159374Q299.17188 32.659374 298.42188 32.315624Q297.6875 31.95625 297.29688 31.33125Q296.90625 30.690624 296.90625 29.925Q296.90625 29.2375 297.21875 28.64375Q297.54688 28.05 298.09375 27.659374Q298.5 27.3625 299.20312 27.159374Q299.92188 26.940624 300.73438 26.940624Q301.95312 26.940624 302.875 27.3Q303.79688 27.64375 304.23438 28.253124Q304.67188 28.846874 304.84375 29.846874L303.125 30.08125Q303.0 29.284374 302.4375 28.846874Q301.875 28.39375 300.85938 28.39375Q299.64062 28.39375 299.125 28.8Q298.60938 29.190624 298.60938 29.721874Q298.60938 30.065624 298.82812 30.346874Q299.03125 30.628124 299.5 30.815624Q299.76562 30.909374 301.04688 31.253124Q302.92188 31.753124 303.65625 32.08125Q304.39062 32.39375 304.8125 33.003124Q305.23438 33.596874 305.23438 34.503124Q305.23438 35.378124 304.71875 36.159374Q304.20312 36.940624 303.23438 37.3625Q302.26562 37.784374 301.04688 37.784374Q299.03125 37.784374 297.96875 36.940624Q296.90625 36.096874 296.60938 34.45625ZM307.32812 25.253124L307.32812 23.2375L309.09375 23.2375L309.09375 25.253124L307.32812 25.253124ZM307.32812 37.55L307.32812 27.175L309.09375 27.175L309.09375 37.55L307.32812 37.55ZM310.67188 32.3625Q310.67188 29.4875 312.26562 28.096874Q313.60938 26.940624 315.53125 26.940624Q317.67188 26.940624 319.01562 28.346874Q320.375 29.753124 320.375 32.221874Q320.375 34.221874 319.78125 35.378124Q319.1875 36.51875 318.03125 37.159374Q316.89062 37.784374 315.53125 37.784374Q313.34375 37.784374 312.0 36.39375Q310.67188 34.9875 310.67188 32.3625ZM312.46875 32.3625Q312.46875 34.3625 313.32812 35.346874Q314.20312 36.33125 315.53125 36.33125Q316.84375 36.33125 317.70312 35.346874Q318.57812 34.346874 318.57812 32.3Q318.57812 30.378124 317.70312 29.39375Q316.82812 28.39375 315.53125 28.39375Q314.20312 28.39375 313.32812 29.39375Q312.46875 30.378124 312.46875 32.3625ZM322.3125 37.55L322.3125 27.175L323.90625 27.175L323.90625 28.659374Q325.04688 26.940624 327.20312 26.940624Q328.14062 26.940624 328.92188 27.284374Q329.71875 27.6125 330.10938 28.159374Q330.5 28.70625 330.65625 29.45625Q330.75 29.95625 330.75 31.175L330.75 37.55L328.98438 37.55L328.98438 31.2375Q328.98438 30.159374 328.78125 29.628124Q328.57812 29.096874 328.04688 28.784374Q327.53125 28.471874 326.82812 28.471874Q325.70312 28.471874 324.89062 29.190624Q324.07812 29.89375 324.07812 31.878124L324.07812 37.55L322.3125 37.55ZM331.60938 34.45625L333.35938 34.175Q333.5 35.221874 334.17188 35.784374Q334.84375 36.33125 336.04688 36.33125Q337.25 36.33125 337.82812 35.846874Q338.42188 35.346874 338.42188 34.690624Q338.42188 34.096874 337.90625 33.753124Q337.54688 33.51875 336.10938 33.159374Q334.17188 32.659374 333.42188 32.315624Q332.6875 31.95625 332.29688 31.33125Q331.90625 30.690624 331.90625 29.925Q331.90625 29.2375 332.21875 28.64375Q332.54688 28.05 333.09375 27.659374Q333.5 27.3625 334.20312 27.159374Q334.92188 26.940624 335.73438 26.940624Q336.95312 26.940624 337.875 27.3Q338.79688 27.64375 339.23438 28.253124Q339.67188 28.846874 339.84375 29.846874L338.125 30.08125Q338.0 29.284374 337.4375 28.846874Q336.875 28.39375 335.85938 28.39375Q334.64062 28.39375 334.125 28.8Q333.60938 29.190624 333.60938 29.721874Q333.60938 30.065624 333.82812 30.346874Q334.03125 30.628124 334.5 30.815624Q334.76562 30.909374 336.04688 31.253124Q337.92188 31.753124 338.65625 32.08125Q339.39062 32.39375 339.8125 33.003124Q340.23438 33.596874 340.23438 34.503124Q340.23438 35.378124 339.71875 36.159374Q339.20312 36.940624 338.23438 37.3625Q337.26562 37.784374 336.04688 37.784374Q334.03125 37.784374 332.96875 36.940624Q331.90625 36.096874 331.60938 34.45625Z" fill-rule="nonzero"/></svg>