<svg version="1.1" viewBox="0.0 0.0 600.0 371.0" fill="none" stroke="none" stroke-linecap="square" stroke-miterlimit="10" width="600" height="371" xmlns:xlink="http://www.w3.org/1999/xlink" xmlns="http://www.w3.org/2000/svg"><path fill="#ffffff" d="M0 0L600.0 0L600.0 371.0L0 371.0L0 0Z" fill-rule="nonzero"/><path stroke="#333333" stroke-width="1.0" stroke-linecap="butt" d="M62.5 332.5L581.5 332.5" fill-rule="nonzero"/><path stroke="#cccccc" stroke-width="1.0" stroke-linecap="butt" d="M62.5 271.5L581.5 271.5" fill-rule="nonzero"/><path stroke="#cccccc" stroke-width="1.0" stroke-linecap="butt" d="M62.5 210.5L581.5 210.5" fill-rule="nonzero"/><path stroke="#cccccc" stroke-width="1.0" stroke-linecap="butt" d="M62.5 149.5L581.5 149.5" fill-rule="nonzero"/><path stroke="#cccccc" stroke-width="1.0" stroke-linecap="butt" d="M62.5 88.5L581.5 88.5" fill-rule="nonzero"/><clipPath id="id_0"><path d="M62.55 88.28333L581.45 88.28333L581.45 332.45L62.55 332.45L62.55 88.28333Z" clip-rule="nonzero"/></clipPath><path stroke="#4285f4" stroke-width="2.0" stroke-linecap="butt" clip-path="url(#id_0)" d="M127.4125 270.0996L257.1375 241.72011L386.8625 241.2562L516.5875 246.72064" fill-rule="nonzero"/><path stroke="#ea4335" stroke-width="2.0" stroke-linecap="butt" clip-path="url(#id_0)" d="M127.4125 232.36853L257.1375 203.24432L386.8625 205.93016L516.5875 196.99365" fill-rule="nonzero"/><path stroke="#fbbc04" stroke-width="2.0" stroke-linecap="butt" clip-path="url(#id_0)" d="M127.4125 222.40408L257.1375 157.79758L386.8625 157.70236L516.5875 159.35292" fill-rule="nonzero"/><path stroke="#34a853" stroke-width="2.0" stroke-linecap="butt" clip-path="url(#id_0)" d="M127.4125 186.33578L257.1375 121.2263L386.8625 122.718155L516.5875 127.25966" fill-rule="nonzero"/><path fill="#000000" fill-opacity="0.0" clip-path="url(#id_0)" d="M130.4125 270.0996C130.4125 271.75644 129.06935 273.0996 127.4125 273.0996C125.755646 273.0996 124.4125 271.75644 124.4125 270.0996C124.4125 268.44275 125.755646 267.0996 127.4125 267.0996C129.06935 267.0996 130.4125 268.44275 130.4125 270.0996Z" fill-rule="nonzero"/><path fill="#000000" fill-opacity="0.0" clip-path="url(#id_0)" d="M260.1375 241.72011C260.1375 243.37697 258.79434 244.72011 257.1375 244.72011C255.48065 244.72011 254.1375 243.37697 254.1375 241.72011C254.1375 240.06325 255.48065 238.72011 257.1375 238.72011C258.79434 238.72011 260.1375 240.06325 260.1375 241.72011Z" fill-rule="nonzero"/><path fill="#000000" fill-opacity="0.0" clip-path="url(#id_0)" d="M389.8625 241.2562C389.8625 242.91304 388.51935 244.2562 386.8625 244.2562C385.20566 244.2562 383.8625 242.91304 383.8625 241.2562C383.8625 239.59933 385.20566 238.2562 386.8625 238.2562C388.51935 238.2562 389.8625 239.59933 389.8625 241.2562Z" fill-rule="nonzero"/><path fill="#000000" fill-opacity="0.0" clip-path="url(#id_0)" d="M519.5875 246.72064C519.5875 248.3775 518.2444 249.72064 516.5875 249.72064C514.93066 249.72064 513.5875 248.3775 513.5875 246.72064C513.5875 245.06378 514.93066 243.72064 516.5875 243.72064C518.2444 243.72064 519.5875 245.06378 519.5875 246.72064Z" fill-rule="nonzero"/><path fill="#000000" fill-opacity="0.0" clip-path="url(#id_0)" d="M130.4125 232.36853C130.4125 234.02538 129.06935 235.36853 127.4125 235.36853C125.755646 235.36853 124.4125 234.02538 124.4125 232.36853C124.4125 230.71167 125.755646 229.36853 127.4125 229.36853C129.06935 229.36853 130.4125 230.71167 130.4125 232.36853Z" fill-rule="nonzero"/><path fill="#000000" fill-opacity="0.0" clip-path="url(#id_0)" d="M260.1375 203.24432C260.1375 204.90118 258.79434 206.24432 257.1375 206.24432C255.48065 206.24432 254.1375 204.90118 254.1375 203.24432C254.1375 201.58746 255.48065 200.24432 257.1375 200.24432C258.79434 200.24432 260.1375 201.58746 260.1375 203.24432Z" fill-rule="nonzero"/><path fill="#000000" fill-opacity="0.0" clip-path="url(#id_0)" d="M389.8625 205.93016C389.8625 207.587 388.51935 208.93016 386.8625 208.93016C385.20566 208.93016 383.8625 207.587 383.8625 205.93016C383.8625 204.2733 385.20566 202.93016 386.8625 202.93016C388.51935 202.93016 389.8625 204.2733 389.8625 205.93016Z" fill-rule="nonzero"/><path fill="#000000" fill-opacity="0.0" clip-path="url(#id_0)" d="M519.5875 196.99365C519.5875 198.65051 518.2444 199.99365 516.5875 199.99365C514.93066 199.99365 513.5875 198.65051 513.5875 196.99365C513.5875 195.3368 514.93066 193.99365 516.5875 193.99365C518.2444 193.99365 519.5875 195.3368 519.5875 196.99365Z" fill-rule="nonzero"/><path fill="#000000" fill-opacity="0.0" clip-path="url(#id_0)" d="M130.4125 222.40408C130.4125 224.06094 129.06935 225.40408 127.4125 225.40408C125.755646 225.40408 124.4125 224.06094 124.4125 222.40408C124.4125 220.74722 125.755646 219.40408 127.4125 219.40408C129.06935 219.40408 130.4125 220.74722 130.4125 222.40408Z" fill-rule="nonzero"/><path fill="#000000" fill-opacity="0.0" clip-path="url(#id_0)" d="M260.1375 157.79758C260.1375 159.45444 258.79434 160.79758 257.1375 160.79758C255.48065 160.79758 254.1375 159.45444 254.1375 157.79758C254.1375 156.14073 255.48065 154.79758 257.1375 154.79758C258.79434 154.79758 260.1375 156.14073 260.1375 157.79758Z" fill-rule="nonzero"/><path fill="#000000" fill-opacity="0.0" clip-path="url(#id_0)" d="M389.8625 157.70236C389.8625 159.3592 388.51935 160.70236 386.8625 160.70236C385.20566 160.70236 383.8625 159.3592 383.8625 157.70236C383.8625 156.0455 385.20566 154.70236 386.8625 154.70236C388.51935 154.70236 389.8625 156.0455 389.8625 157.70236Z" fill-rule="nonzero"/><path fill="#000000" fill-opacity="0.0" clip-path="url(#id_0)" d="M519.5875 159.35292C519.5875 161.00978 518.2444 162.35292 516.5875 162.35292C514.93066 162.35292 513.5875 161.00978 513.5875 159.35292C513.5875 157.69608 514.93066 156.35292 516.5875 156.35292C518.2444 156.35292 519.5875 157.69608 519.5875 159.35292Z" fill-rule="nonzero"/><path fill="#000000" fill-opacity="0.0" clip-path="url(#id_0)" d="M130.4125 186.33578C130.4125 187.99263 129.06935 189.33578 127.4125 189.33578C125.755646 189.33578 124.4125 187.99263 124.4125 186.33578C124.4125 184.67892 125.755646 183.33578 127.4125 183.33578C129.06935 183.33578 130.4125 184.67892 130.4125 186.33578Z" fill-rule="nonzero"/><path fill="#000000" fill-opacity="0.0" clip-path="url(#id_0)" d="M260.1375 121.2263C260.1375 122.883156 258.79434 124.2263 257.1375 124.2263C255.48065 124.2263 254.1375 122.883156 254.1375 121.2263C254.1375 119.56944 255.48065 118.2263 257.1375 118.2263C258.79434 118.2263 260.1375 119.56944 260.1375 121.2263Z" fill-rule="nonzero"/><path fill="#000000" fill-opacity="0.0" clip-path="url(#id_0)" d="M389.8625 122.718155C389.8625 124.375015 388.51935 125.718155 386.8625 125.718155C385.20566 125.718155 383.8625 124.375015 383.8625 122.718155C383.8625 121.0613 385.20566 119.718155 386.8625 119.718155C388.51935 119.718155 389.8625 121.0613 389.8625 122.718155Z" fill-rule="nonzero"/><path fill="#000000" fill-opacity="0.0" clip-path="url(#id_0)" d="M519.5875 127.25966C519.5875 128.91652 518.2444 130.25966 516.5875 130.25966C514.93066 130.25966 513.5875 128.91652 513.5875 127.25966C513.5875 125.602806 514.93066 124.25966 516.5875 124.25966C518.2444 124.25966 519.5875 125.602806 519.5875 127.25966Z" fill-rule="nonzero"/><path fill="#000000" d="M33.05 332.21564Q33.05 330.6844 33.3625 329.7625Q33.675 328.825 34.284374 328.325Q34.909374 327.825 35.846874 327.825Q36.534374 327.825 37.05 328.10626Q37.58125 328.3875 37.925 328.91876Q38.26875 329.4344 38.45625 330.1844Q38.64375 330.9344 38.64375 332.21564Q38.64375 333.73126 38.33125 334.65314Q38.034374 335.575 37.409374 336.09064Q36.8 336.59064 35.846874 336.59064Q34.6125 336.59064 33.89375 335.7Q33.05 334.6375 33.05 332.21564ZM34.128124 332.21564Q34.128124 334.325 34.628124 335.02814Q35.128124 335.73126 35.846874 335.73126Q36.58125 335.73126 37.065624 335.02814Q37.565624 334.325 37.565624 332.21564Q37.565624 330.09064 37.065624 329.40314Q36.58125 328.7 35.83125 328.7Q35.1125 328.7 34.675 329.3094Q34.128124 330.09064 34.128124 332.21564ZM40.64375 336.45L40.64375 335.2469L41.846874 335.2469L41.846874 336.45L40.64375 336.45ZM43.05 332.21564Q43.05 330.6844 43.3625 329.7625Q43.675 328.825 44.284374 328.325Q44.909374 327.825 45.846874 327.825Q46.534374 327.825 47.05 328.10626Q47.58125 328.3875 47.925 328.91876Q48.26875 329.4344 48.45625 330.1844Q48.64375 330.9344 48.64375 332.21564Q48.64375 333.73126 48.33125 334.65314Q48.034374 335.575 47.409374 336.09064Q46.8 336.59064 45.846874 336.59064Q44.6125 336.59064 43.89375 335.7Q43.05 334.6375 43.05 332.21564ZM44.128124 332.21564Q44.128124 334.325 44.628124 335.02814Q45.128124 335.73126 45.846874 335.73126Q46.58125 335.73126 47.065624 335.02814Q47.565624 334.325 47.565624 332.21564Q47.565624 330.09064 47.065624 329.40314Q46.58125 328.7 45.83125 328.7Q45.1125 328.7 44.675 329.3094Q44.128124 330.09064 44.128124 332.21564ZM50.05 332.21564Q50.05 330.6844 50.3625 329.7625Q50.675 328.825 51.284374 328.325Q51.909374 327.825 52.846874 327.825Q53.534374 327.825 54.05 328.10626Q54.58125 328.3875 54.925 328.91876Q55.26875 329.4344 55.45625 330.1844Q55.64375 330.9344 55.64375 332.21564Q55.64375 333.73126 55.33125 334.65314Q55.034374 335.575 54.409374 336.09064Q53.8 336.59064 52.846874 336.59064Q51.6125 336.59064 50.89375 335.7Q50.05 334.6375 50.05 332.21564ZM51.128124 332.21564Q51.128124 334.325 51.628124 335.02814Q52.128124 335.73126 52.846874 335.73126Q53.58125 335.73126 54.065624 335.02814Q54.565624 334.325 54.565624 332.21564Q54.565624 330.09064 54.065624 329.40314Q53.58125 328.7 52.83125 328.7Q52.1125 328.7 51.675 329.3094Q51.128124 330.09064 51.128124 332.21564Z" fill-rule="nonzero"/><path fill="#000000" d="M31.596874 274.3927L31.596874 275.40833L25.909374 275.40833Q25.909374 275.03333 26.034374 274.67395Q26.253124 274.09583 26.721874 273.53333Q27.20625 272.97083 28.1125 272.23645Q29.51875 271.0802 30.003124 270.40833Q30.503124 269.73645 30.503124 269.1427Q30.503124 268.5177 30.05 268.09583Q29.596874 267.65833 28.878124 267.65833Q28.1125 267.65833 27.659374 268.11145Q27.20625 268.56458 27.190624 269.37708L26.1125 269.2677Q26.221874 268.04895 26.940624 267.42395Q27.675 266.78333 28.909374 266.78333Q30.14375 266.78333 30.8625 267.47083Q31.58125 268.15833 31.58125 269.17395Q31.58125 269.68958 31.3625 270.18958Q31.159374 270.67395 30.659374 271.23645Q30.175 271.78333 29.05 272.73645Q28.096874 273.53333 27.815624 273.8302Q27.55 274.11145 27.378124 274.3927L31.596874 274.3927ZM33.05 273.15833L34.159374 273.06458Q34.284374 273.87708 34.721874 274.28333Q35.175 274.68958 35.815624 274.68958Q36.565624 274.68958 37.096874 274.11145Q37.628124 273.53333 37.628124 272.59583Q37.628124 271.68958 37.1125 271.17395Q36.6125 270.6427 35.784374 270.6427Q35.284374 270.6427 34.8625 270.87708Q34.45625 271.11145 34.221874 271.47083L33.2375 271.34583L34.065624 266.93958L38.346874 266.93958L38.346874 267.93958L34.909374 267.93958L34.45625 270.25208Q35.221874 269.7052 36.065624 269.7052Q37.190624 269.7052 37.95625 270.48645Q38.7375 271.2677 38.7375 272.50208Q38.7375 273.65833 38.065624 274.5177Q37.2375 275.54895 35.815624 275.54895Q34.64375 275.54895 33.89375 274.8927Q33.159374 274.23645 33.05 273.15833ZM40.64375 275.40833L40.64375 274.2052L41.846874 274.2052L41.846874 275.40833L40.64375 275.40833ZM43.05 271.17395Q43.05 269.6427 43.3625 268.72083Q43.675 267.78333 44.284374 267.28333Q44.909374 266.78333 45.846874 266.78333Q46.534374 266.78333 47.05 267.06458Q47.58125 267.34583 47.925 267.87708Q48.26875 268.3927 48.45625 269.1427Q48.64375 269.8927 48.64375 271.17395Q48.64375 272.68958 48.33125 273.61145Q48.034374 274.53333 47.409374 275.04895Q46.8 275.54895 45.846874 275.54895Q44.6125 275.54895 43.89375 274.65833Q43.05 273.59583 43.05 271.17395ZM44.128124 271.17395Q44.128124 273.28333 44.628124 273.98645Q45.128124 274.68958 45.846874 274.68958Q46.58125 274.68958 47.065624 273.98645Q47.565624 273.28333 47.565624 271.17395Q47.565624 269.04895 47.065624 268.36145Q46.58125 267.65833 45.83125 267.65833Q45.1125 267.65833 44.675 268.2677Q44.128124 269.04895 44.128124 271.17395ZM50.05 271.17395Q50.05 269.6427 50.3625 268.72083Q50.675 267.78333 51.284374 267.28333Q51.909374 266.78333 52.846874 266.78333Q53.534374 266.78333 54.05 267.06458Q54.58125 267.34583 54.925 267.87708Q55.26875 268.3927 55.45625 269.1427Q55.64375 269.8927 55.64375 271.17395Q55.64375 272.68958 55.33125 273.61145Q55.034374 274.53333 54.409374 275.04895Q53.8 275.54895 52.846874 275.54895Q51.6125 275.54895 50.89375 274.65833Q50.05 273.59583 50.05 271.17395ZM51.128124 271.17395Q51.128124 273.28333 51.628124 273.98645Q52.128124 274.68958 52.846874 274.68958Q53.58125 274.68958 54.065624 273.98645Q54.565624 273.28333 54.565624 271.17395Q54.565624 269.04895 54.065624 268.36145Q53.58125 267.65833 52.83125 267.65833Q52.1125 267.65833 51.675 268.2677Q51.128124 269.04895 51.128124 271.17395Z" fill-rule="nonzero"/><path fill="#000000" d="M26.05 212.11667L27.159374 212.02292Q27.284374 212.83542 27.721874 213.24167Q28.175 213.64792 28.815624 213.64792Q29.565624 213.64792 30.096874 213.0698Q30.628124 212.49167 30.628124 211.55417Q30.628124 210.64792 30.1125 210.1323Q29.6125 209.60104 28.784374 209.60104Q28.284374 209.60104 27.8625 209.83542Q27.45625 210.0698 27.221874 210.42917L26.2375 210.30417L27.065624 205.89792L31.346874 205.89792L31.346874 206.89792L27.909374 206.89792L27.45625 209.21042Q28.221874 208.66354 29.065624 208.66354Q30.190624 208.66354 30.95625 209.4448Q31.7375 210.22604 31.7375 211.46042Q31.7375 212.61667 31.065624 213.47604Q30.2375 214.5073 28.815624 214.5073Q27.64375 214.5073 26.89375 213.85104Q26.159374 213.1948 26.05 212.11667ZM33.05 210.1323Q33.05 208.60104 33.3625 207.67917Q33.675 206.74167 34.284374 206.24167Q34.909374 205.74167 35.846874 205.74167Q36.534374 205.74167 37.05 206.02292Q37.58125 206.30417 37.925 206.83542Q38.26875 207.35104 38.45625 208.10104Q38.64375 208.85104 38.64375 210.1323Q38.64375 211.64792 38.33125 212.5698Q38.034374 213.49167 37.409374 214.0073Q36.8 214.5073 35.846874 214.5073Q34.6125 214.5073 33.89375 213.61667Q33.05 212.55417 33.05 210.1323ZM34.128124 210.1323Q34.128124 212.24167 34.628124 212.9448Q35.128124 213.64792 35.846874 213.64792Q36.58125 213.64792 37.065624 212.9448Q37.565624 212.24167 37.565624 210.1323Q37.565624 208.0073 37.065624 207.3198Q36.58125 206.61667 35.83125 206.61667Q35.1125 206.61667 34.675 207.22604Q34.128124 208.0073 34.128124 210.1323ZM40.64375 214.36667L40.64375 213.16354L41.846874 213.16354L41.846874 214.36667L40.64375 214.36667ZM43.05 210.1323Q43.05 208.60104 43.3625 207.67917Q43.675 206.74167 44.284374 206.24167Q44.909374 205.74167 45.846874 205.74167Q46.534374 205.74167 47.05 206.02292Q47.58125 206.30417 47.925 206.83542Q48.26875 207.35104 48.45625 208.10104Q48.64375 208.85104 48.64375 210.1323Q48.64375 211.64792 48.33125 212.5698Q48.034374 213.49167 47.409374 214.0073Q46.8 214.5073 45.846874 214.5073Q44.6125 214.5073 43.89375 213.61667Q43.05 212.55417 43.05 210.1323ZM44.128124 210.1323Q44.128124 212.24167 44.628124 212.9448Q45.128124 213.64792 45.846874 213.64792Q46.58125 213.64792 47.065624 212.9448Q47.565624 212.24167 47.565624 210.1323Q47.565624 208.0073 47.065624 207.3198Q46.58125 206.61667 45.83125 206.61667Q45.1125 206.61667 44.675 207.22604Q44.128124 208.0073 44.128124 210.1323ZM50.05 210.1323Q50.05 208.60104 50.3625 207.67917Q50.675 206.74167 51.284374 206.24167Q51.909374 205.74167 52.846874 205.74167Q53.534374 205.74167 54.05 206.02292Q54.58125 206.30417 54.925 206.83542Q55.26875 207.35104 55.45625 208.10104Q55.64375 208.85104 55.64375 210.1323Q55.64375 211.64792 55.33125 212.5698Q55.034374 213.49167 54.409374 214.0073Q53.8 214.5073 52.846874 214.5073Q51.6125 214.5073 50.89375 213.61667Q50.05 212.55417 50.05 210.1323ZM51.128124 210.1323Q51.128124 212.24167 51.628124 212.9448Q52.128124 213.64792 52.846874 213.64792Q53.58125 213.64792 54.065624 212.9448Q54.565624 212.24167 54.565624 210.1323Q54.565624 208.0073 54.065624 207.3198Q53.58125 206.61667 52.83125 206.61667Q52.1125 206.61667 51.675 207.22604Q51.128124 208.0073 51.128124 210.1323Z" fill-rule="nonzero"/><path fill="#000000" d="M26.1125 145.85625L26.1125 144.84062L31.675 144.84062L31.675 145.66875Q30.8625 146.54375 30.05 147.99687Q29.253124 149.43437 28.815624 150.96562Q28.4875 152.04375 28.409374 153.325L27.315624 153.325Q27.33125 152.30937 27.70625 150.87187Q28.096874 149.43437 28.8 148.10625Q29.51875 146.77812 30.33125 145.85625L26.1125 145.85625ZM33.05 151.075L34.159374 150.98125Q34.284374 151.79375 34.721874 152.2Q35.175 152.60625 35.815624 152.60625Q36.565624 152.60625 37.096874 152.02812Q37.628124 151.45 37.628124 150.5125Q37.628124 149.60625 37.1125 149.09062Q36.6125 148.55937 35.784374 148.55937Q35.284374 148.55937 34.8625 148.79375Q34.45625 149.02812 34.221874 149.3875L33.2375 149.2625L34.065624 144.85625L38.346874 144.85625L38.346874 145.85625L34.909374 145.85625L34.45625 148.16875Q35.221874 147.62187 36.065624 147.62187Q37.190624 147.62187 37.95625 148.40312Q38.7375 149.18437 38.7375 150.41875Q38.7375 151.575 38.065624 152.43437Q37.2375 153.46562 35.815624 153.46562Q34.64375 153.46562 33.89375 152.80937Q33.159374 152.15312 33.05 151.075ZM40.64375 153.325L40.64375 152.12187L41.846874 152.12187L41.846874 153.325L40.64375 153.325ZM43.05 149.09062Q43.05 147.55937 43.3625 146.6375Q43.675 145.7 44.284374 145.2Q44.909374 144.7 45.846874 144.7Q46.534374 144.7 47.05 144.98125Q47.58125 145.2625 47.925 145.79375Q48.26875 146.30937 48.45625 147.05937Q48.64375 147.80937 48.64375 149.09062Q48.64375 150.60625 48.33125 151.52812Q48.034374 152.45 47.409374 152.96562Q46.8 153.46562 45.846874 153.46562Q44.6125 153.46562 43.89375 152.575Q43.05 151.5125 43.05 149.09062ZM44.128124 149.09062Q44.128124 151.2 44.628124 151.90312Q45.128124 152.60625 45.846874 152.60625Q46.58125 152.60625 47.065624 151.90312Q47.565624 151.2 47.565624 149.09062Q47.565624 146.96562 47.065624 146.27812Q46.58125 145.575 45.83125 145.575Q45.1125 145.575 44.675 146.18437Q44.128124 146.96562 44.128124 149.09062ZM50.05 149.09062Q50.05 147.55937 50.3625 146.6375Q50.675 145.7 51.284374 145.2Q51.909374 144.7 52.846874 144.7Q53.534374 144.7 54.05 144.98125Q54.58125 145.2625 54.925 145.79375Q55.26875 146.30937 55.45625 147.05937Q55.64375 147.80937 55.64375 149.09062Q55.64375 150.60625 55.33125 151.52812Q55.034374 152.45 54.409374 152.96562Q53.8 153.46562 52.846874 153.46562Q51.6125 153.46562 50.89375 152.575Q50.05 151.5125 50.05 149.09062ZM51.128124 149.09062Q51.128124 151.2 51.628124 151.90312Q52.128124 152.60625 52.846874 152.60625Q53.58125 152.60625 54.065624 151.90312Q54.565624 151.2 54.565624 149.09062Q54.565624 146.96562 54.065624 146.27812Q53.58125 145.575 52.83125 145.575Q52.1125 145.575 51.675 146.18437Q51.128124 146.96562 51.128124 149.09062Z" fill-rule="nonzero"/><path fill="#000000" d="M23.01875 92.28333L21.971874 92.28333L21.971874 85.56458Q21.58125 85.92396 20.95625 86.29896Q20.346874 86.65833 19.8625 86.83021L19.8625 85.81458Q20.7375 85.39271 21.39375 84.81458Q22.065624 84.22083 22.346874 83.65833L23.01875 83.65833L23.01875 92.28333ZM26.05 88.04896Q26.05 86.51771 26.3625 85.59583Q26.675 84.65833 27.284374 84.15833Q27.909374 83.65833 28.846874 83.65833Q29.534374 83.65833 30.05 83.93958Q30.58125 84.22083 30.925 84.75208Q31.26875 85.26771 31.45625 86.01771Q31.64375 86.76771 31.64375 88.04896Q31.64375 89.56458 31.33125 90.48646Q31.034374 91.40833 30.409374 91.92396Q29.8 92.42396 28.846874 92.42396Q27.6125 92.42396 26.89375 91.53333Q26.05 90.47083 26.05 88.04896ZM27.128124 88.04896Q27.128124 90.15833 27.628124 90.86146Q28.128124 91.56458 28.846874 91.56458Q29.58125 91.56458 30.065624 90.86146Q30.565624 90.15833 30.565624 88.04896Q30.565624 85.92396 30.065624 85.23646Q29.58125 84.53333 28.83125 84.53333Q28.1125 84.53333 27.675 85.14271Q27.128124 85.92396 27.128124 88.04896ZM33.05 88.04896Q33.05 86.51771 33.3625 85.59583Q33.675 84.65833 34.284374 84.15833Q34.909374 83.65833 35.846874 83.65833Q36.534374 83.65833 37.05 83.93958Q37.58125 84.22083 37.925 84.75208Q38.26875 85.26771 38.45625 86.01771Q38.64375 86.76771 38.64375 88.04896Q38.64375 89.56458 38.33125 90.48646Q38.034374 91.40833 37.409374 91.92396Q36.8 92.42396 35.846874 92.42396Q34.6125 92.42396 33.89375 91.53333Q33.05 90.47083 33.05 88.04896ZM34.128124 88.04896Q34.128124 90.15833 34.628124 90.86146Q35.128124 91.56458 35.846874 91.56458Q36.58125 91.56458 37.065624 90.86146Q37.565624 90.15833 37.565624 88.04896Q37.565624 85.92396 37.065624 85.23646Q36.58125 84.53333 35.83125 84.53333Q35.1125 84.53333 34.675 85.14271Q34.128124 85.92396 34.128124 88.04896ZM40.64375 92.28333L40.64375 91.08021L41.846874 91.08021L41.846874 92.28333L40.64375 92.28333ZM43.05 88.04896Q43.05 86.51771 43.3625 85.59583Q43.675 84.65833 44.284374 84.15833Q44.909374 83.65833 45.846874 83.65833Q46.534374 83.65833 47.05 83.93958Q47.58125 84.22083 47.925 84.75208Q48.26875 85.26771 48.45625 86.01771Q48.64375 86.76771 48.64375 88.04896Q48.64375 89.56458 48.33125 90.48646Q48.034374 91.40833 47.409374 91.92396Q46.8 92.42396 45.846874 92.42396Q44.6125 92.42396 43.89375 91.53333Q43.05 90.47083 43.05 88.04896ZM44.128124 88.04896Q44.128124 90.15833 44.628124 90.86146Q45.128124 91.56458 45.846874 91.56458Q46.58125 91.56458 47.065624 90.86146Q47.565624 90.15833 47.565624 88.04896Q47.565624 85.92396 47.065624 85.23646Q46.58125 84.53333 45.83125 84.53333Q45.1125 84.53333 44.675 85.14271Q44.128124 85.92396 44.128124 88.04896ZM50.05 88.04896Q50.05 86.51771 50.3625 85.59583Q50.675 84.65833 51.284374 84.15833Q51.909374 83.65833 52.846874 83.65833Q53.534374 83.65833 54.05 83.93958Q54.58125 84.22083 54.925 84.75208Q55.26875 85.26771 55.45625 86.01771Q55.64375 86.76771 55.64375 88.04896Q55.64375 89.56458 55.33125 90.48646Q55.034374 91.40833 54.409374 91.92396Q53.8 92.42396 52.846874 92.42396Q51.6125 92.42396 50.89375 91.53333Q50.05 90.47083 50.05 88.04896ZM51.128124 88.04896Q51.128124 90.15833 51.628124 90.86146Q52.128124 91.56458 52.846874 91.56458Q53.58125 91.56458 54.065624 90.86146Q54.565624 90.15833 54.565624 88.04896Q54.565624 85.92396 54.065624 85.23646Q53.58125 84.53333 52.83125 84.53333Q52.1125 84.53333 51.675 85.14271Q51.128124 85.92396 51.128124 88.04896Z" fill-rule="nonzero"/><path fill="#000000" d="M114.475 346.4344L115.6 346.73126Q115.24062 348.1219 114.31875 348.85626Q113.39687 349.59064 112.05312 349.59064Q110.6625 349.59064 109.7875 349.02814Q108.9125 348.46564 108.45937 347.40314Q108.00625 346.325 108.00625 345.09064Q108.00625 343.7469 108.52187 342.7469Q109.0375 341.7469 109.975 341.23126Q110.92812 340.71564 112.06875 340.71564Q113.35 340.71564 114.225 341.3719Q115.11562 342.02814 115.45937 343.21564L114.33437 343.48126Q114.0375 342.54376 113.45937 342.1219Q112.89687 341.6844 112.0375 341.6844Q111.05312 341.6844 110.38125 342.16876Q109.725 342.6375 109.44375 343.4344Q109.17812 344.23126 109.17812 345.09064Q109.17812 346.1844 109.49062 346.9969Q109.81875 347.8094 110.49062 348.21564Q111.1625 348.6219 111.95937 348.6219Q112.9125 348.6219 113.56875 348.075Q114.24062 347.52814 114.475 346.4344ZM116.81875 346.34064Q116.81875 344.60626 117.77187 343.77814Q118.56875 343.09064 119.725 343.09064Q121.00625 343.09064 121.81875 343.9344Q122.64687 344.7625 122.64687 346.2469Q122.64687 347.45 122.2875 348.1375Q121.92812 348.825 121.225 349.21564Q120.5375 349.59064 119.725 349.59064Q118.42812 349.59064 117.61562 348.7625Q116.81875 347.91876 116.81875 346.34064ZM117.89687 346.34064Q117.89687 347.52814 118.4125 348.1219Q118.94375 348.71564 119.725 348.71564Q120.52187 348.71564 121.0375 348.1219Q121.55312 347.52814 121.55312 346.3094Q121.55312 345.15314 121.02187 344.5594Q120.50625 343.96564 119.725 343.96564Q118.94375 343.96564 118.4125 344.5594Q117.89687 345.1375 117.89687 346.34064ZM124.20937 349.45L124.20937 343.23126L125.14687 343.23126L125.14687 344.10626Q125.83437 343.09064 127.13125 343.09064Q127.69375 343.09064 128.1625 343.29376Q128.64688 343.4969 128.88126 343.825Q129.11563 344.15314 129.20938 344.59064Q129.25626 344.8875 129.25626 345.6219L129.25626 349.45L128.20938 349.45L128.20938 345.66876Q128.20938 345.0125 128.08438 344.7Q127.95937 344.3875 127.64687 344.2Q127.33437 343.9969 126.9125 343.9969Q126.24062 343.9969 125.74062 344.4344Q125.25625 344.85626 125.25625 346.04376L125.25625 349.45L124.20937 349.45ZM133.50626 348.5125L133.6625 349.4344Q133.20938 349.52814 132.86563 349.52814Q132.2875 349.52814 131.975 349.35626Q131.6625 349.16876 131.52188 348.8719Q131.39688 348.575 131.39688 347.6219L131.39688 344.04376L130.63126 344.04376L130.63126 343.23126L131.39688 343.23126L131.39688 341.6844L132.44376 341.0594L132.44376 343.23126L133.50626 343.23126L133.50626 344.04376L132.44376 344.04376L132.44376 347.6844Q132.44376 348.1375 132.49063 348.2625Q132.55313 348.3875 132.67813 348.46564Q132.80313 348.54376 133.0375 348.54376Q133.225 348.54376 133.50626 348.5125ZM134.19376 349.45L134.19376 343.23126L135.14688 343.23126L135.14688 344.16876Q135.50626 343.5125 135.80313 343.3094Q136.11563 343.09064 136.49063 343.09064Q137.02188 343.09064 137.56876 343.41876L137.20938 344.40314Q136.81876 344.16876 136.44376 344.16876Q136.08438 344.16876 135.80313 344.3875Q135.5375 344.59064 135.42813 344.96564Q135.24063 345.52814 135.24063 346.1844L135.24063 349.45L134.19376 349.45ZM137.81876 346.34064Q137.81876 344.60626 138.77188 343.77814Q139.56876 343.09064 140.725 343.09064Q142.00626 343.09064 142.81876 343.9344Q143.64688 344.7625 143.64688 346.2469Q143.64688 347.45 143.2875 348.1375Q142.92813 348.825 142.225 349.21564Q141.5375 349.59064 140.725 349.59064Q139.42813 349.59064 138.61563 348.7625Q137.81876 347.91876 137.81876 346.34064ZM138.89688 346.34064Q138.89688 347.52814 139.4125 348.1219Q139.94376 348.71564 140.725 348.71564Q141.52188 348.71564 142.0375 348.1219Q142.55313 347.52814 142.55313 346.3094Q142.55313 345.15314 142.02188 344.5594Q141.50626 343.96564 140.725 343.96564Q139.94376 343.96564 139.4125 344.5594Q138.89688 345.1375 138.89688 346.34064ZM145.17813 349.45L145.17813 340.85626L146.24063 340.85626L146.24063 349.45L145.17813 349.45Z" fill-rule="nonzero"/><path fill="#000000" d="M230.18437 346.6844L231.24687 346.59064Q231.325 347.2469 231.60625 347.65314Q231.8875 348.0594 232.46562 348.325Q233.05937 348.575 233.79375 348.575Q234.43437 348.575 234.93437 348.3875Q235.43437 348.1844 235.66875 347.85626Q235.91875 347.5125 235.91875 347.1219Q235.91875 346.71564 235.68437 346.41876Q235.45 346.10626 234.91875 345.90314Q234.55937 345.7625 233.37187 345.48126Q232.2 345.2 231.73125 344.95Q231.10625 344.6219 230.80937 344.15314Q230.5125 343.66876 230.5125 343.075Q230.5125 342.4344 230.87187 341.8719Q231.24687 341.29376 231.95 341.0125Q232.66875 340.71564 233.52812 340.71564Q234.48125 340.71564 235.21562 341.02814Q235.95 341.325 236.34062 341.9344Q236.73125 342.52814 236.7625 343.27814L235.66875 343.35626Q235.575 342.54376 235.05937 342.1375Q234.55937 341.71564 233.575 341.71564Q232.54375 341.71564 232.075 342.09064Q231.60625 342.46564 231.60625 342.9969Q231.60625 343.46564 231.93437 343.7625Q232.2625 344.0594 233.6375 344.3719Q235.02812 344.6844 235.54375 344.91876Q236.29375 345.27814 236.65312 345.8094Q237.0125 346.325 237.0125 347.02814Q237.0125 347.71564 236.62187 348.325Q236.23125 348.91876 235.49687 349.2625Q234.7625 349.59064 233.84062 349.59064Q232.66875 349.59064 231.87187 349.2625Q231.09062 348.91876 230.6375 348.23126Q230.2 347.54376 230.18437 346.6844ZM242.68437 347.45L243.77812 347.575Q243.52812 348.52814 242.825 349.0594Q242.12187 349.59064 241.04375 349.59064Q239.68437 349.59064 238.87187 348.7469Q238.075 347.90314 238.075 346.3875Q238.075 344.825 238.8875 343.96564Q239.7 343.09064 240.98125 343.09064Q242.23125 343.09064 243.0125 343.9344Q243.80937 344.77814 243.80937 346.325Q243.80937 346.41876 243.80937 346.60626L239.16875 346.60626Q239.23125 347.6375 239.74687 348.1844Q240.2625 348.71564 241.04375 348.71564Q241.62187 348.71564 242.02812 348.41876Q242.45 348.10626 242.68437 347.45ZM239.23125 345.7469L242.7 345.7469Q242.6375 344.95 242.30937 344.5594Q241.79375 343.95 240.99687 343.95Q240.2625 343.95 239.7625 344.4344Q239.27812 344.91876 239.23125 345.7469ZM245.43437 349.45L245.43437 343.23126L246.37187 343.23126L246.37187 344.10626Q247.05937 343.09064 248.35625 343.09064Q248.91875 343.09064 249.3875 343.29376Q249.87187 343.4969 250.10625 343.825Q250.34062 344.15314 250.43437 344.59064Q250.48125 344.8875 250.48125 345.6219L250.48125 349.45L249.43437 349.45L249.43437 345.66876Q249.43437 345.0125 249.30937 344.7Q249.18437 344.3875 248.87187 344.2Q248.55937 343.9969 248.1375 343.9969Q247.46562 343.9969 246.96562 344.4344Q246.48125 344.85626 246.48125 346.04376L246.48125 349.45L245.43437 349.45ZM256.46564 349.45L256.46564 348.66876Q255.87187 349.59064 254.73125 349.59064Q253.98125 349.59064 253.35625 349.1844Q252.73125 348.7625 252.3875 348.02814Q252.04375 347.29376 252.04375 346.34064Q252.04375 345.41876 252.35625 344.65314Q252.66875 343.8875 253.29375 343.4969Q253.91875 343.09064 254.68437 343.09064Q255.24687 343.09064 255.68437 343.325Q256.1219 343.5594 256.40314 343.9344L256.40314 340.85626L257.45 340.85626L257.45 349.45L256.46564 349.45ZM253.1375 346.34064Q253.1375 347.54376 253.6375 348.1375Q254.1375 348.71564 254.825 348.71564Q255.5125 348.71564 255.99687 348.15314Q256.48126 347.59064 256.48126 346.4344Q256.48126 345.15314 255.98125 344.5594Q255.49687 343.96564 254.77812 343.96564Q254.075 343.96564 253.60625 344.54376Q253.1375 345.10626 253.1375 346.34064ZM259.5594 349.45L259.5594 340.85626L262.52814 340.85626Q263.52814 340.85626 264.0594 340.98126Q264.79376 341.15314 265.3094 341.59064Q265.9969 342.16876 266.325 343.075Q266.66876 343.96564 266.66876 345.10626Q266.66876 346.09064 266.4344 346.84064Q266.21564 347.59064 265.85626 348.09064Q265.4969 348.59064 265.0594 348.8719Q264.6375 349.15314 264.04376 349.3094Q263.45 349.45 262.66876 349.45L259.5594 349.45ZM260.7 348.4344L262.52814 348.4344Q263.3875 348.4344 263.8719 348.27814Q264.35626 348.1219 264.6375 347.825Q265.04376 347.4344 265.2625 346.7469Q265.4969 346.0594 265.4969 345.09064Q265.4969 343.7469 265.04376 343.02814Q264.60626 342.29376 263.98126 342.04376Q263.5125 341.8719 262.5125 341.8719L260.7 341.8719L260.7 348.4344ZM272.4969 348.6844Q271.90314 349.1844 271.35626 349.3875Q270.825 349.59064 270.2 349.59064Q269.16876 349.59064 268.6219 349.09064Q268.075 348.59064 268.075 347.8094Q268.075 347.35626 268.27814 346.98126Q268.48126 346.59064 268.825 346.3719Q269.16876 346.1375 269.59064 346.02814Q269.8875 345.9344 270.52814 345.85626Q271.79376 345.71564 272.40314 345.4969Q272.40314 345.27814 272.40314 345.23126Q272.40314 344.575 272.10626 344.3094Q271.7 343.96564 270.90314 343.96564Q270.16876 343.96564 269.8094 344.23126Q269.45 344.48126 269.27814 345.1375L268.2469 344.9969Q268.3875 344.34064 268.71564 343.9344Q269.04376 343.52814 269.65314 343.3094Q270.2625 343.09064 271.0594 343.09064Q271.85626 343.09064 272.35626 343.27814Q272.85626 343.46564 273.09064 343.7469Q273.325 344.02814 273.41876 344.46564Q273.46564 344.73126 273.46564 345.4344L273.46564 346.84064Q273.46564 348.3094 273.52814 348.7Q273.60626 349.09064 273.8094 349.45L272.7 349.45Q272.54376 349.1219 272.4969 348.6844ZM272.40314 346.325Q271.825 346.5594 270.6844 346.73126Q270.02814 346.825 269.7625 346.95Q269.4969 347.0594 269.34064 347.27814Q269.2 347.4969 269.2 347.77814Q269.2 348.2 269.5125 348.48126Q269.84064 348.7625 270.45 348.7625Q271.0594 348.7625 271.52814 348.4969Q272.0125 348.23126 272.23126 347.7625Q272.40314 347.40314 272.40314 346.71564L272.40314 346.325ZM277.73126 348.5125L277.8875 349.4344Q277.4344 349.52814 277.09064 349.52814Q276.5125 349.52814 276.2 349.35626Q275.8875 349.16876 275.7469 348.8719Q275.6219 348.575 275.6219 347.6219L275.6219 344.04376L274.85626 344.04376L274.85626 343.23126L275.6219 343.23126L275.6219 341.6844L276.66876 341.0594L276.66876 343.23126L277.73126 343.23126L277.73126 344.04376L276.66876 344.04376L276.66876 347.6844Q276.66876 348.1375 276.71564 348.2625Q276.77814 348.3875 276.90314 348.46564Q277.02814 348.54376 277.2625 348.54376Q277.45 348.54376 277.73126 348.5125ZM282.4969 348.6844Q281.90314 349.1844 281.35626 349.3875Q280.825 349.59064 280.2 349.59064Q279.16876 349.59064 278.6219 349.09064Q278.075 348.59064 278.075 347.8094Q278.075 347.35626 278.27814 346.98126Q278.48126 346.59064 278.825 346.3719Q279.16876 346.1375 279.59064 346.02814Q279.8875 345.9344 280.52814 345.85626Q281.79376 345.71564 282.40314 345.4969Q282.40314 345.27814 282.40314 345.23126Q282.40314 344.575 282.10626 344.3094Q281.7 343.96564 280.90314 343.96564Q280.16876 343.96564 279.8094 344.23126Q279.45 344.48126 279.27814 345.1375L278.2469 344.9969Q278.3875 344.34064 278.71564 343.9344Q279.04376 343.52814 279.65314 343.3094Q280.2625 343.09064 281.0594 343.09064Q281.85626 343.09064 282.35626 343.27814Q282.85626 343.46564 283.09064 343.7469Q283.325 344.02814 283.41876 344.46564Q283.46564 344.73126 283.46564 345.4344L283.46564 346.84064Q283.46564 348.3094 283.52814 348.7Q283.60626 349.09064 283.8094 349.45L282.7 349.45Q282.54376 349.1219 282.4969 348.6844ZM282.40314 346.325Q281.825 346.5594 280.6844 346.73126Q280.02814 346.825 279.7625 346.95Q279.4969 347.0594 279.34064 347.27814Q279.2 347.4969 279.2 347.77814Q279.2 348.2 279.5125 348.48126Q279.84064 348.7625 280.45 348.7625Q281.0594 348.7625 281.52814 348.4969Q282.0125 348.23126 282.23126 347.7625Q282.40314 347.40314 282.40314 346.71564L282.40314 346.325Z" fill-rule="nonzero"/><path fill="#000000" d="M357.34686 349.45L360.64374 340.85626L361.8625 340.85626L365.3781 349.45L364.09686 349.45L363.08124 346.84064L359.5031 346.84064L358.55 349.45L357.34686 349.45ZM359.83124 345.91876L362.7375 345.91876L361.84686 343.54376Q361.425 342.46564 361.2375 341.7625Q361.0656 342.59064 360.76874 343.40314L359.83124 345.91876ZM369.1906 349.45L369.1906 348.66876Q368.59686 349.59064 367.45624 349.59064Q366.70624 349.59064 366.08124 349.1844Q365.45624 348.7625 365.1125 348.02814Q364.76874 347.29376 364.76874 346.34064Q364.76874 345.41876 365.08124 344.65314Q365.39374 343.8875 366.01874 343.4969Q366.64374 343.09064 367.40936 343.09064Q367.97186 343.09064 368.40936 343.325Q368.84686 343.5594 369.1281 343.9344L369.1281 340.85626L370.175 340.85626L370.175 349.45L369.1906 349.45ZM365.8625 346.34064Q365.8625 347.54376 366.3625 348.1375Q366.8625 348.71564 367.55 348.71564Q368.2375 348.71564 368.72186 348.15314Q369.20624 347.59064 369.20624 346.4344Q369.20624 345.15314 368.70624 344.5594Q368.22186 343.96564 367.5031 343.96564Q366.8 343.96564 366.33124 344.54376Q365.8625 345.10626 365.8625 346.34064ZM372.14374 342.09064L372.14374 340.85626L373.20624 340.85626L373.20624 342.09064L372.14374 342.09064ZM370.8156 351.8719L371.0031 350.96564Q371.33124 351.04376 371.5031 351.04376Q371.83124 351.04376 371.9875 350.825Q372.14374 350.6219 372.14374 349.7625L372.14374 343.23126L373.20624 343.23126L373.20624 349.79376Q373.20624 350.9344 372.90936 351.3875Q372.51874 351.98126 371.64374 351.98126Q371.20624 351.98126 370.8156 351.8719ZM379.2375 349.45L379.2375 348.52814Q378.5031 349.59064 377.2531 349.59064Q376.70624 349.59064 376.22186 349.3875Q375.7531 349.16876 375.51874 348.85626Q375.28436 348.52814 375.1906 348.0594Q375.1281 347.7625 375.1281 347.075L375.1281 343.23126L376.1906 343.23126L376.1906 346.6844Q376.1906 347.4969 376.2531 347.79376Q376.34686 348.2 376.65936 348.45Q376.9875 348.6844 377.47186 348.6844Q377.9406 348.6844 378.34686 348.45Q378.76874 348.2 378.9406 347.77814Q379.1281 347.35626 379.1281 346.5594L379.1281 343.23126L380.175 343.23126L380.175 349.45L379.2375 349.45ZM381.7375 347.59064L382.76874 347.4344Q382.8625 348.0594 383.2531 348.3875Q383.65936 348.71564 384.39374 348.71564Q385.1125 348.71564 385.45624 348.4344Q385.8156 348.1375 385.8156 347.73126Q385.8156 347.3719 385.5031 347.16876Q385.28436 347.02814 384.425 346.8094Q383.26874 346.5125 382.8156 346.3094Q382.3781 346.09064 382.14374 345.71564Q381.90936 345.34064 381.90936 344.8719Q381.90936 344.46564 382.09686 344.10626Q382.28436 343.7469 382.6125 343.5125Q382.8625 343.34064 383.28436 343.21564Q383.70624 343.09064 384.20624 343.09064Q384.925 343.09064 385.47186 343.3094Q386.03436 343.5125 386.3 343.8719Q386.5656 344.23126 386.65936 344.825L385.6281 344.96564Q385.5656 344.4969 385.22186 344.23126Q384.89374 343.95 384.26874 343.95Q383.55 343.95 383.2375 344.2Q382.925 344.4344 382.925 344.7625Q382.925 344.96564 383.05 345.1219Q383.1906 345.29376 383.45624 345.40314Q383.6125 345.46564 384.39374 345.66876Q385.51874 345.98126 385.95624 346.16876Q386.39374 346.35626 386.64374 346.71564Q386.89374 347.075 386.89374 347.6219Q386.89374 348.15314 386.58124 348.6219Q386.28436 349.075 385.70624 349.34064Q385.1281 349.59064 384.39374 349.59064Q383.175 349.59064 382.53436 349.09064Q381.90936 348.575 381.7375 347.59064ZM391.45624 348.5125L391.6125 349.4344Q391.15936 349.52814 390.8156 349.52814Q390.2375 349.52814 389.925 349.35626Q389.6125 349.16876 389.47186 348.8719Q389.34686 348.575 389.34686 347.6219L389.34686 344.04376L388.58124 344.04376L388.58124 343.23126L389.34686 343.23126L389.34686 341.6844L390.39374 341.0594L390.39374 343.23126L391.45624 343.23126L391.45624 344.04376L390.39374 344.04376L390.39374 347.6844Q390.39374 348.1375 390.4406 348.2625Q390.5031 348.3875 390.6281 348.46564Q390.7531 348.54376 390.9875 348.54376Q391.175 348.54376 391.45624 348.5125ZM392.28436 349.45L392.28436 340.85626L395.53436 340.85626Q396.3781 340.85626 396.83124 340.9344Q397.47186 341.04376 397.89374 341.34064Q398.33124 341.6375 398.58124 342.16876Q398.84686 342.7 398.84686 343.34064Q398.84686 344.4344 398.14374 345.2Q397.45624 345.95 395.6281 345.95L393.425 345.95L393.425 349.45L392.28436 349.45ZM393.425 344.95L395.64374 344.95Q396.7531 344.95 397.20624 344.54376Q397.675 344.1219 397.675 343.3719Q397.675 342.84064 397.39374 342.46564Q397.1281 342.075 396.6906 341.95Q396.39374 341.8719 395.6281 341.8719L393.425 341.8719L393.425 344.95ZM404.22186 348.6844Q403.6281 349.1844 403.08124 349.3875Q402.55 349.59064 401.925 349.59064Q400.89374 349.59064 400.34686 349.09064Q399.8 348.59064 399.8 347.8094Q399.8 347.35626 400.0031 346.98126Q400.20624 346.59064 400.55 346.3719Q400.89374 346.1375 401.3156 346.02814Q401.6125 345.9344 402.2531 345.85626Q403.51874 345.71564 404.1281 345.4969Q404.1281 345.27814 404.1281 345.23126Q404.1281 344.575 403.83124 344.3094Q403.425 343.96564 402.6281 343.96564Q401.89374 343.96564 401.53436 344.23126Q401.175 344.48126 401.0031 345.1375L399.97186 344.9969Q400.1125 344.34064 400.4406 343.9344Q400.76874 343.52814 401.3781 343.3094Q401.9875 343.09064 402.78436 343.09064Q403.58124 343.09064 404.08124 343.27814Q404.58124 343.46564 404.8156 343.7469Q405.05 344.02814 405.14374 344.46564Q405.1906 344.73126 405.1906 345.4344L405.1906 346.84064Q405.1906 348.3094 405.2531 348.7Q405.33124 349.09064 405.53436 349.45L404.425 349.45Q404.26874 349.1219 404.22186 348.6844ZM404.1281 346.325Q403.55 346.5594 402.40936 346.73126Q401.7531 346.825 401.4875 346.95Q401.22186 347.0594 401.0656 347.27814Q400.925 347.4969 400.925 347.77814Q400.925 348.2 401.2375 348.48126Q401.5656 348.7625 402.175 348.7625Q402.78436 348.7625 403.2531 348.4969Q403.7375 348.23126 403.95624 347.7625Q404.1281 347.40314 404.1281 346.71564L404.1281 346.325ZM409.45624 348.5125L409.6125 349.4344Q409.15936 349.52814 408.8156 349.52814Q408.2375 349.52814 407.925 349.35626Q407.6125 349.16876 407.47186 348.8719Q407.34686 348.575 407.34686 347.6219L407.34686 344.04376L406.58124 344.04376L406.58124 343.23126L407.34686 343.23126L407.34686 341.6844L408.39374 341.0594L408.39374 343.23126L409.45624 343.23126L409.45624 344.04376L408.39374 344.04376L408.39374 347.6844Q408.39374 348.1375 408.4406 348.2625Q408.5031 348.3875 408.6281 348.46564Q408.7531 348.54376 408.9875 348.54376Q409.175 348.54376 409.45624 348.5125ZM410.15936 349.45L410.15936 340.85626L411.20624 340.85626L411.20624 343.9344Q411.9406 343.09064 413.0656 343.09064Q413.76874 343.09064 414.26874 343.3719Q414.78436 343.6375 415.0031 344.1219Q415.22186 344.59064 415.22186 345.5125L415.22186 349.45L414.175 349.45L414.175 345.5125Q414.175 344.71564 413.83124 344.35626Q413.4875 343.9969 412.8625 343.9969Q412.39374 343.9969 411.97186 344.2469Q411.5656 344.48126 411.3781 344.90314Q411.20624 345.3094 411.20624 346.04376L411.20624 349.45L410.15936 349.45Z" fill-rule="nonzero"/><path fill="#000000" d="M477.00937 349.45L477.00937 340.85626L480.25937 340.85626Q481.10312 340.85626 481.55624 340.9344Q482.19687 341.04376 482.61874 341.34064Q483.05624 341.6375 483.30624 342.16876Q483.57187 342.7 483.57187 343.34064Q483.57187 344.4344 482.86874 345.2Q482.18124 345.95 480.35312 345.95L478.15 345.95L478.15 349.45L477.00937 349.45ZM478.15 344.95L480.36874 344.95Q481.47812 344.95 481.93124 344.54376Q482.4 344.1219 482.4 343.3719Q482.4 342.84064 482.11874 342.46564Q481.85312 342.075 481.41562 341.95Q481.11874 341.8719 480.35312 341.8719L478.15 341.8719L478.15 344.95ZM484.86874 349.45L484.86874 343.23126L485.82187 343.23126L485.82187 344.16876Q486.18124 343.5125 486.47812 343.3094Q486.79062 343.09064 487.16562 343.09064Q487.69687 343.09064 488.24374 343.41876L487.88437 344.40314Q487.49374 344.16876 487.11874 344.16876Q486.75937 344.16876 486.47812 344.3875Q486.2125 344.59064 486.10312 344.96564Q485.91562 345.52814 485.91562 346.1844L485.91562 349.45L484.86874 349.45ZM488.88437 342.075L488.88437 340.85626L489.94687 340.85626L489.94687 342.075L488.88437 342.075ZM488.88437 349.45L488.88437 343.23126L489.94687 343.23126L489.94687 349.45L488.88437 349.45ZM491.49374 346.34064Q491.49374 344.60626 492.44687 343.77814Q493.24374 343.09064 494.4 343.09064Q495.68124 343.09064 496.49374 343.9344Q497.32187 344.7625 497.32187 346.2469Q497.32187 347.45 496.9625 348.1375Q496.60312 348.825 495.9 349.21564Q495.2125 349.59064 494.4 349.59064Q493.10312 349.59064 492.29062 348.7625Q491.49374 347.91876 491.49374 346.34064ZM492.57187 346.34064Q492.57187 347.52814 493.0875 348.1219Q493.61874 348.71564 494.4 348.71564Q495.19687 348.71564 495.7125 348.1219Q496.22812 347.52814 496.22812 346.3094Q496.22812 345.15314 495.69687 344.5594Q495.18124 343.96564 494.4 343.96564Q493.61874 343.96564 493.0875 344.5594Q492.57187 345.1375 492.57187 346.34064ZM498.86874 349.45L498.86874 343.23126L499.82187 343.23126L499.82187 344.16876Q500.18124 343.5125 500.47812 343.3094Q500.79062 343.09064 501.16562 343.09064Q501.69687 343.09064 502.24374 343.41876L501.88437 344.40314Q501.49374 344.16876 501.11874 344.16876Q500.75937 344.16876 500.47812 344.3875Q500.2125 344.59064 500.10312 344.96564Q499.91562 345.52814 499.91562 346.1844L499.91562 349.45L498.86874 349.45ZM502.88437 342.075L502.88437 340.85626L503.94687 340.85626L503.94687 342.075L502.88437 342.075ZM502.88437 349.45L502.88437 343.23126L503.94687 343.23126L503.94687 349.45L502.88437 349.45ZM508.18124 348.5125L508.3375 349.4344Q507.88437 349.52814 507.54062 349.52814Q506.9625 349.52814 506.65 349.35626Q506.3375 349.16876 506.19687 348.8719Q506.07187 348.575 506.07187 347.6219L506.07187 344.04376L505.30624 344.04376L505.30624 343.23126L506.07187 343.23126L506.07187 341.6844L507.11874 341.0594L507.11874 343.23126L508.18124 343.23126L508.18124 344.04376L507.11874 344.04376L507.11874 347.6844Q507.11874 348.1375 507.16562 348.2625Q507.22812 348.3875 507.35312 348.46564Q507.47812 348.54376 507.7125 348.54376Q507.9 348.54376 508.18124 348.5125ZM508.88437 342.075L508.88437 340.85626L509.94687 340.85626L509.94687 342.075L508.88437 342.075ZM508.88437 349.45L508.88437 343.23126L509.94687 343.23126L509.94687 349.45L508.88437 349.45ZM511.32187 349.45L511.32187 348.59064L515.29065 344.04376Q514.60315 344.075 514.0875 344.075L511.55624 344.075L511.55624 343.23126L516.65 343.23126L516.65 343.91876L513.275 347.8719L512.6188 348.59064Q513.3375 348.54376 513.9469 348.54376L516.8375 348.54376L516.8375 349.45L511.32187 349.45ZM521.1344 347.45L522.22815 347.575Q521.97815 348.52814 521.275 349.0594Q520.5719 349.59064 519.4938 349.59064Q518.1344 349.59064 517.3219 348.7469Q516.525 347.90314 516.525 346.3875Q516.525 344.825 517.3375 343.96564Q518.15 343.09064 519.4313 343.09064Q520.6813 343.09064 521.4625 343.9344Q522.2594 344.77814 522.2594 346.325Q522.2594 346.41876 522.2594 346.60626L517.6188 346.60626Q517.6813 347.6375 518.1969 348.1844Q518.7125 348.71564 519.4938 348.71564Q520.0719 348.71564 520.47815 348.41876Q520.9 348.10626 521.1344 347.45ZM517.6813 345.7469L521.15 345.7469Q521.0875 344.95 520.7594 344.5594Q520.2438 343.95 519.4469 343.95Q518.7125 343.95 518.2125 344.4344Q517.72815 344.91876 517.6813 345.7469ZM524.0094 349.45L524.0094 340.85626L526.97815 340.85626Q527.97815 340.85626 528.5094 340.98126Q529.2438 341.15314 529.7594 341.59064Q530.4469 342.16876 530.775 343.075Q531.1188 343.96564 531.1188 345.10626Q531.1188 346.09064 530.8844 346.84064Q530.66565 347.59064 530.3063 348.09064Q529.9469 348.59064 529.5094 348.8719Q529.0875 349.15314 528.4938 349.3094Q527.9 349.45 527.1188 349.45L524.0094 349.45ZM525.15 348.4344L526.97815 348.4344Q527.8375 348.4344 528.3219 348.27814Q528.8063 348.1219 529.0875 347.825Q529.4938 347.4344 529.7125 346.7469Q529.9469 346.0594 529.9469 345.09064Q529.9469 343.7469 529.4938 343.02814Q529.0563 342.29376 528.4313 342.04376Q527.9625 341.8719 526.9625 341.8719L525.15 341.8719L525.15 348.4344ZM532.8688 349.45L532.8688 343.23126L533.8219 343.23126L533.8219 344.16876Q534.1813 343.5125 534.47815 343.3094Q534.79065 343.09064 535.16565 343.09064Q535.6969 343.09064 536.2438 343.41876L535.8844 344.40314Q535.4938 344.16876 535.1188 344.16876Q534.7594 344.16876 534.47815 344.3875Q534.2125 344.59064 534.10315 344.96564Q533.91565 345.52814 533.91565 346.1844L533.91565 349.45L532.8688 349.45ZM536.4938 346.34064Q536.4938 344.60626 537.4469 343.77814Q538.2438 343.09064 539.4 343.09064Q540.6813 343.09064 541.4938 343.9344Q542.3219 344.7625 542.3219 346.2469Q542.3219 347.45 541.9625 348.1375Q541.60315 348.825 540.9 349.21564Q540.2125 349.59064 539.4 349.59064Q538.10315 349.59064 537.29065 348.7625Q536.4938 347.91876 536.4938 346.34064ZM537.5719 346.34064Q537.5719 347.52814 538.0875 348.1219Q538.6188 348.71564 539.4 348.71564Q540.1969 348.71564 540.7125 348.1219Q541.22815 347.52814 541.22815 346.3094Q541.22815 345.15314 540.6969 344.5594Q540.1813 343.96564 539.4 343.96564Q538.6188 343.96564 538.0875 344.5594Q537.5719 345.1375 537.5719 346.34064ZM543.8844 349.45L543.8844 343.23126L544.8219 343.23126L544.8219 344.10626Q545.5094 343.09064 546.8063 343.09064Q547.3688 343.09064 547.8375 343.29376Q548.3219 343.4969 548.5563 343.825Q548.79065 344.15314 548.8844 344.59064Q548.9313 344.8875 548.9313 345.6219L548.9313 349.45L547.8844 349.45L547.8844 345.66876Q547.8844 345.0125 547.7594 344.7Q547.6344 344.3875 547.3219 344.2Q547.0094 343.9969 546.5875 343.9969Q545.91565 343.9969 545.41565 344.4344Q544.9313 344.85626 544.9313 346.04376L544.9313 349.45L543.8844 349.45ZM555.1344 347.45L556.22815 347.575Q555.97815 348.52814 555.275 349.0594Q554.5719 349.59064 553.4938 349.59064Q552.1344 349.59064 551.3219 348.7469Q550.525 347.90314 550.525 346.3875Q550.525 344.825 551.3375 343.96564Q552.15 343.09064 553.4313 343.09064Q554.6813 343.09064 555.4625 343.9344Q556.2594 344.77814 556.2594 346.325Q556.2594 346.41876 556.2594 346.60626L551.6188 346.60626Q551.6813 347.6375 552.1969 348.1844Q552.7125 348.71564 553.4938 348.71564Q554.0719 348.71564 554.47815 348.41876Q554.9 348.10626 555.1344 347.45ZM551.6813 345.7469L555.15 345.7469Q555.0875 344.95 554.7594 344.5594Q554.2438 343.95 553.4469 343.95Q552.7125 343.95 552.2125 344.4344Q551.72815 344.91876 551.6813 345.7469Z" fill-rule="nonzero"/><path stroke="#4285f4" stroke-width="4.0" stroke-linecap="butt" d="M138.5 61.916668L150.5 61.916668" fill-rule="nonzero"/><path fill="#1a1a1a" d="M159.0 63.65104L160.0625 63.510414Q160.23438 64.40104 160.67188 64.80729Q161.10938 65.197914 161.73438 65.197914Q162.48438 65.197914 163.0 64.68229Q163.51562 64.166664 163.51562 63.40104Q163.51562 62.68229 163.03125 62.21354Q162.5625 61.729164 161.82812 61.729164Q161.53125 61.729164 161.07812 61.854164L161.20312 60.916664Q161.3125 60.93229 161.375 60.93229Q162.04688 60.93229 162.57812 60.58854Q163.125 60.229164 163.125 59.49479Q163.125 58.916664 162.73438 58.541664Q162.34375 58.15104 161.71875 58.15104Q161.10938 58.15104 160.6875 58.541664Q160.28125 58.93229 160.17188 59.697914L159.10938 59.510414Q159.29688 58.46354 159.98438 57.885414Q160.67188 57.291664 161.6875 57.291664Q162.39062 57.291664 162.98438 57.604164Q163.57812 57.90104 163.89062 58.416664Q164.20312 58.93229 164.20312 59.52604Q164.20312 60.072914 163.90625 60.541664Q163.60938 60.99479 163.03125 61.260414Q163.78125 61.43229 164.20312 61.99479Q164.625 62.541664 164.625 63.385414Q164.625 64.510414 163.79688 65.291664Q162.98438 66.072914 161.73438 66.072914Q160.60938 66.072914 159.85938 65.40104Q159.10938 64.71354 159.0 63.65104ZM166.4375 65.916664L166.4375 57.322914L170.25 57.322914Q171.40625 57.322914 172.0 57.55729Q172.59375 57.791664 172.95312 58.385414Q173.3125 58.96354 173.3125 59.666664Q173.3125 60.58854 172.71875 61.21354Q172.125 61.83854 170.89062 62.010414Q171.34375 62.229164 171.57812 62.43229Q172.07812 62.885414 172.51562 63.572914L174.01562 65.916664L172.57812 65.916664L171.45312 64.135414Q170.95312 63.354164 170.625 62.947914Q170.3125 62.541664 170.04688 62.385414Q169.79688 62.21354 169.53125 62.135414Q169.34375 62.104164 168.90625 62.104164L167.57812 62.104164L167.57812 65.916664L166.4375 65.916664ZM167.57812 61.11979L170.03125 61.11979Q170.79688 61.11979 171.23438 60.96354Q171.6875 60.791664 171.90625 60.447914Q172.14062 60.08854 172.14062 59.666664Q172.14062 59.05729 171.6875 58.666664Q171.25 58.27604 170.29688 58.27604L167.57812 58.27604L167.57812 61.11979ZM174.90625 62.80729Q174.90625 61.072914 175.85938 60.24479Q176.65625 59.55729 177.8125 59.55729Q179.09375 59.55729 179.90625 60.40104Q180.73438 61.229164 180.73438 62.71354Q180.73438 63.916664 180.375 64.604164Q180.01562 65.291664 179.3125 65.68229Q178.625 66.05729 177.8125 66.05729Q176.51562 66.05729 175.70312 65.229164Q174.90625 64.385414 174.90625 62.80729ZM175.98438 62.80729Q175.98438 63.99479 176.5 64.58854Q177.03125 65.18229 177.8125 65.18229Q178.60938 65.18229 179.125 64.58854Q179.64062 63.99479 179.64062 62.77604Q179.64062 61.61979 179.10938 61.02604Q178.59375 60.43229 177.8125 60.43229Q177.03125 60.43229 176.5 61.02604Q175.98438 61.604164 175.98438 62.80729ZM183.26562 65.916664L182.28125 65.916664L182.28125 57.322914L183.34375 57.322914L183.34375 60.385414Q184.01562 59.55729 185.04688 59.55729Q185.625 59.55729 186.125 59.791664Q186.64062 60.010414 186.96875 60.43229Q187.3125 60.854164 187.5 61.447914Q187.6875 62.041664 187.6875 62.71354Q187.6875 64.30729 186.89062 65.18229Q186.09375 66.05729 185.0 66.05729Q183.89062 66.05729 183.26562 65.135414L183.26562 65.916664ZM183.25 62.760414Q183.25 63.86979 183.5625 64.36979Q184.0625 65.18229 184.90625 65.18229Q185.59375 65.18229 186.09375 64.58854Q186.60938 63.99479 186.60938 62.791664Q186.60938 61.572914 186.125 60.99479Q185.64062 60.416664 184.95312 60.416664Q184.26562 60.416664 183.75 61.02604Q183.25 61.61979 183.25 62.760414ZM188.90625 62.80729Q188.90625 61.072914 189.85938 60.24479Q190.65625 59.55729 191.8125 59.55729Q193.09375 59.55729 193.90625 60.40104Q194.73438 61.229164 194.73438 62.71354Q194.73438 63.916664 194.375 64.604164Q194.01562 65.291664 193.3125 65.68229Q192.625 66.05729 191.8125 66.05729Q190.51562 66.05729 189.70312 65.229164Q188.90625 64.385414 188.90625 62.80729ZM189.98438 62.80729Q189.98438 63.99479 190.5 64.58854Q191.03125 65.18229 191.8125 65.18229Q192.60938 65.18229 193.125 64.58854Q193.64062 63.99479 193.64062 62.77604Q193.64062 61.61979 193.10938 61.02604Q192.59375 60.43229 191.8125 60.43229Q191.03125 60.43229 190.5 61.02604Q189.98438 61.604164 189.98438 62.80729ZM198.59375 64.979164L198.75 65.90104Q198.29688 65.99479 197.95312 65.99479Q197.375 65.99479 197.0625 65.822914Q196.75 65.635414 196.60938 65.33854Q196.48438 65.041664 196.48438 64.08854L196.48438 60.510414L195.71875 60.510414L195.71875 59.697914L196.48438 59.697914L196.48438 58.15104L197.53125 57.52604L197.53125 59.697914L198.59375 59.697914L198.59375 60.510414L197.53125 60.510414L197.53125 64.15104Q197.53125 64.604164 197.57812 64.729164Q197.64062 64.854164 197.76562 64.93229Q197.89062 65.010414 198.125 65.010414Q198.3125 65.010414 198.59375 64.979164ZM198.875 64.05729L199.90625 63.90104Q200.0 64.52604 200.39062 64.854164Q200.79688 65.18229 201.53125 65.18229Q202.25 65.18229 202.59375 64.90104Q202.95312 64.604164 202.95312 64.197914Q202.95312 63.83854 202.64062 63.635414Q202.42188 63.49479 201.5625 63.27604Q200.40625 62.979164 199.95312 62.77604Q199.51562 62.55729 199.28125 62.18229Q199.04688 61.80729 199.04688 61.33854Q199.04688 60.93229 199.23438 60.572914Q199.42188 60.21354 199.75 59.979164Q200.0 59.80729 200.42188 59.68229Q200.84375 59.55729 201.34375 59.55729Q202.0625 59.55729 202.60938 59.77604Q203.17188 59.979164 203.4375 60.33854Q203.70312 60.697914 203.79688 61.291664L202.76562 61.43229Q202.70312 60.96354 202.35938 60.697914Q202.03125 60.416664 201.40625 60.416664Q200.6875 60.416664 200.375 60.666664Q200.0625 60.90104 200.0625 61.229164Q200.0625 61.43229 200.1875 61.58854Q200.32812 61.760414 200.59375 61.86979Q200.75 61.93229 201.53125 62.135414Q202.65625 62.447914 203.09375 62.635414Q203.53125 62.822914 203.78125 63.18229Q204.03125 63.541664 204.03125 64.08854Q204.03125 64.61979 203.71875 65.08854Q203.42188 65.541664 202.84375 65.80729Q202.26562 66.05729 201.53125 66.05729Q200.3125 66.05729 199.67188 65.55729Q199.04688 65.041664 198.875 64.05729Z" fill-rule="nonzero"/><path stroke="#ea4335" stroke-width="4.0" stroke-linecap="butt" d="M221.5 61.916668L233.5 61.916668" fill-rule="nonzero"/><path fill="#1a1a1a" d="M242.0 63.666664L243.10938 63.572914Q243.23438 64.385414 243.67188 64.791664Q244.125 65.197914 244.76562 65.197914Q245.51562 65.197914 246.04688 64.61979Q246.57812 64.041664 246.57812 63.104164Q246.57812 62.197914 246.0625 61.68229Q245.5625 61.15104 244.73438 61.15104Q244.23438 61.15104 243.8125 61.385414Q243.40625 61.61979 243.17188 61.979164L242.1875 61.854164L243.01562 57.447914L247.29688 57.447914L247.29688 58.447914L243.85938 58.447914L243.40625 60.760414Q244.17188 60.21354 245.01562 60.21354Q246.14062 60.21354 246.90625 60.99479Q247.6875 61.77604 247.6875 63.010414Q247.6875 64.166664 247.01562 65.02604Q246.1875 66.05729 244.76562 66.05729Q243.59375 66.05729 242.84375 65.40104Q242.10938 64.74479 242.0 63.666664ZM249.4375 65.916664L249.4375 57.322914L253.25 57.322914Q254.40625 57.322914 255.0 57.55729Q255.59375 57.791664 255.95312 58.385414Q256.3125 58.96354 256.3125 59.666664Q256.3125 60.58854 255.71875 61.21354Q255.125 61.83854 253.89062 62.010414Q254.34375 62.229164 254.57812 62.43229Q255.07812 62.885414 255.51562 63.572914L257.01562 65.916664L255.57812 65.916664L254.45312 64.135414Q253.95312 63.354164 253.625 62.947914Q253.3125 62.541664 253.04688 62.385414Q252.79688 62.21354 252.53125 62.135414Q252.34375 62.104164 251.90625 62.104164L250.57812 62.104164L250.57812 65.916664L249.4375 65.916664ZM250.57812 61.11979L253.03125 61.11979Q253.79688 61.11979 254.23438 60.96354Q254.6875 60.791664 254.90625 60.447914Q255.14062 60.08854 255.14062 59.666664Q255.14062 59.05729 254.6875 58.666664Q254.25 58.27604 253.29688 58.27604L250.57812 58.27604L250.57812 61.11979ZM257.90625 62.80729Q257.90625 61.072914 258.85938 60.24479Q259.65625 59.55729 260.8125 59.55729Q262.09375 59.55729 262.90625 60.40104Q263.73438 61.229164 263.73438 62.71354Q263.73438 63.916664 263.375 64.604164Q263.01562 65.291664 262.3125 65.68229Q261.625 66.05729 260.8125 66.05729Q259.51562 66.05729 258.70312 65.229164Q257.90625 64.385414 257.90625 62.80729ZM258.98438 62.80729Q258.98438 63.99479 259.5 64.58854Q260.03125 65.18229 260.8125 65.18229Q261.60938 65.18229 262.125 64.58854Q262.64062 63.99479 262.64062 62.77604Q262.64062 61.61979 262.10938 61.02604Q261.59375 60.43229 260.8125 60.43229Q260.03125 60.43229 259.5 61.02604Q258.98438 61.604164 258.98438 62.80729ZM266.26562 65.916664L265.28125 65.916664L265.28125 57.322914L266.34375 57.322914L266.34375 60.385414Q267.01562 59.55729 268.04688 59.55729Q268.625 59.55729 269.125 59.791664Q269.64062 60.010414 269.96875 60.43229Q270.3125 60.854164 270.5 61.447914Q270.6875 62.041664 270.6875 62.71354Q270.6875 64.30729 269.89062 65.18229Q269.09375 66.05729 268.0 66.05729Q266.89062 66.05729 266.26562 65.135414L266.26562 65.916664ZM266.25 62.760414Q266.25 63.86979 266.5625 64.36979Q267.0625 65.18229 267.90625 65.18229Q268.59375 65.18229 269.09375 64.58854Q269.60938 63.99479 269.60938 62.791664Q269.60938 61.572914 269.125 60.99479Q268.64062 60.416664 267.95312 60.416664Q267.26562 60.416664 266.75 61.02604Q266.25 61.61979 266.25 62.760414ZM271.90625 62.80729Q271.90625 61.072914 272.85938 60.24479Q273.65625 59.55729 274.8125 59.55729Q276.09375 59.55729 276.90625 60.40104Q277.73438 61.229164 277.73438 62.71354Q277.73438 63.916664 277.375 64.604164Q277.01562 65.291664 276.3125 65.68229Q275.625 66.05729 274.8125 66.05729Q273.51562 66.05729 272.70312 65.229164Q271.90625 64.385414 271.90625 62.80729ZM272.98438 62.80729Q272.98438 63.99479 273.5 64.58854Q274.03125 65.18229 274.8125 65.18229Q275.60938 65.18229 276.125 64.58854Q276.64062 63.99479 276.64062 62.77604Q276.64062 61.61979 276.10938 61.02604Q275.59375 60.43229 274.8125 60.43229Q274.03125 60.43229 273.5 61.02604Q272.98438 61.604164 272.98438 62.80729ZM281.59375 64.979164L281.75 65.90104Q281.29688 65.99479 280.95312 65.99479Q280.375 65.99479 280.0625 65.822914Q279.75 65.635414 279.60938 65.33854Q279.48438 65.041664 279.48438 64.08854L279.48438 60.510414L278.71875 60.510414L278.71875 59.697914L279.48438 59.697914L279.48438 58.15104L280.53125 57.52604L280.53125 59.697914L281.59375 59.697914L281.59375 60.510414L280.53125 60.510414L280.53125 64.15104Q280.53125 64.604164 280.57812 64.729164Q280.64062 64.854164 280.76562 64.93229Q280.89062 65.010414 281.125 65.010414Q281.3125 65.010414 281.59375 64.979164ZM281.875 64.05729L282.90625 63.90104Q283.0 64.52604 283.39062 64.854164Q283.79688 65.18229 284.53125 65.18229Q285.25 65.18229 285.59375 64.90104Q285.95312 64.604164 285.95312 64.197914Q285.95312 63.83854 285.64062 63.635414Q285.42188 63.49479 284.5625 63.27604Q283.40625 62.979164 282.95312 62.77604Q282.51562 62.55729 282.28125 62.18229Q282.04688 61.80729 282.04688 61.33854Q282.04688 60.93229 282.23438 60.572914Q282.42188 60.21354 282.75 59.979164Q283.0 59.80729 283.42188 59.68229Q283.84375 59.55729 284.34375 59.55729Q285.0625 59.55729 285.60938 59.77604Q286.17188 59.979164 286.4375 60.33854Q286.70312 60.697914 286.79688 61.291664L285.76562 61.43229Q285.70312 60.96354 285.35938 60.697914Q285.03125 60.416664 284.40625 60.416664Q283.6875 60.416664 283.375 60.666664Q283.0625 60.90104 283.0625 61.229164Q283.0625 61.43229 283.1875 61.58854Q283.32812 61.760414 283.59375 61.86979Q283.75 61.93229 284.53125 62.135414Q285.65625 62.447914 286.09375 62.635414Q286.53125 62.822914 286.78125 63.18229Q287.03125 63.541664 287.03125 64.08854Q287.03125 64.61979 286.71875 65.08854Q286.42188 65.541664 285.84375 65.80729Q285.26562 66.05729 284.53125 66.05729Q283.3125 66.05729 282.67188 65.55729Q282.04688 65.041664 281.875 64.05729Z" fill-rule="nonzero"/><path stroke="#fbbc04" stroke-width="4.0" stroke-linecap="butt" d="M304.5 61.916668L316.5 61.916668" fill-rule="nonzero"/><path fill="#1a1a1a" d="M325.0625 58.447914L325.0625 57.43229L330.625 57.43229L330.625 58.260414Q329.8125 59.135414 329.0 60.58854Q328.20312 62.02604 327.76562 63.55729Q327.4375 64.635414 327.35938 65.916664L326.26562 65.916664Q326.28125 64.90104 326.65625 63.46354Q327.04688 62.02604 327.75 60.697914Q328.46875 59.36979 329.28125 58.447914L325.0625 58.447914ZM332.4375 65.916664L332.4375 57.322914L336.25 57.322914Q337.40625 57.322914 338.0 57.55729Q338.59375 57.791664 338.95312 58.385414Q339.3125 58.96354 339.3125 59.666664Q339.3125 60.58854 338.71875 61.21354Q338.125 61.83854 336.89062 62.010414Q337.34375 62.229164 337.57812 62.43229Q338.07812 62.885414 338.51562 63.572914L340.01562 65.916664L338.57812 65.916664L337.45312 64.135414Q336.95312 63.354164 336.625 62.947914Q336.3125 62.541664 336.04688 62.385414Q335.79688 62.21354 335.53125 62.135414Q335.34375 62.104164 334.90625 62.104164L333.57812 62.104164L333.57812 65.916664L332.4375 65.916664ZM333.57812 61.11979L336.03125 61.11979Q336.79688 61.11979 337.23438 60.96354Q337.6875 60.791664 337.90625 60.447914Q338.14062 60.08854 338.14062 59.666664Q338.14062 59.05729 337.6875 58.666664Q337.25 58.27604 336.29688 58.27604L333.57812 58.27604L333.57812 61.11979ZM340.90625 62.80729Q340.90625 61.072914 341.85938 60.24479Q342.65625 59.55729 343.8125 59.55729Q345.09375 59.55729 345.90625 60.40104Q346.73438 61.229164 346.73438 62.71354Q346.73438 63.916664 346.375 64.604164Q346.01562 65.291664 345.3125 65.68229Q344.625 66.05729 343.8125 66.05729Q342.51562 66.05729 341.70312 65.229164Q340.90625 64.385414 340.90625 62.80729ZM341.98438 62.80729Q341.98438 63.99479 342.5 64.58854Q343.03125 65.18229 343.8125 65.18229Q344.60938 65.18229 345.125 64.58854Q345.64062 63.99479 345.64062 62.77604Q345.64062 61.61979 345.10938 61.02604Q344.59375 60.43229 343.8125 60.43229Q343.03125 60.43229 342.5 61.02604Q341.98438 61.604164 341.98438 62.80729ZM349.26562 65.916664L348.28125 65.916664L348.28125 57.322914L349.34375 57.322914L349.34375 60.385414Q350.01562 59.55729 351.04688 59.55729Q351.625 59.55729 352.125 59.791664Q352.64062 60.010414 352.96875 60.43229Q353.3125 60.854164 353.5 61.447914Q353.6875 62.041664 353.6875 62.71354Q353.6875 64.30729 352.89062 65.18229Q352.09375 66.05729 351.0 66.05729Q349.89062 66.05729 349.26562 65.135414L349.26562 65.916664ZM349.25 62.760414Q349.25 63.86979 349.5625 64.36979Q350.0625 65.18229 350.90625 65.18229Q351.59375 65.18229 352.09375 64.58854Q352.60938 63.99479 352.60938 62.791664Q352.60938 61.572914 352.125 60.99479Q351.64062 60.416664 350.95312 60.416664Q350.26562 60.416664 349.75 61.02604Q349.25 61.61979 349.25 62.760414ZM354.90625 62.80729Q354.90625 61.072914 355.85938 60.24479Q356.65625 59.55729 357.8125 59.55729Q359.09375 59.55729 359.90625 60.40104Q360.73438 61.229164 360.73438 62.71354Q360.73438 63.916664 360.375 64.604164Q360.01562 65.291664 359.3125 65.68229Q358.625 66.05729 357.8125 66.05729Q356.51562 66.05729 355.70312 65.229164Q354.90625 64.385414 354.90625 62.80729ZM355.98438 62.80729Q355.98438 63.99479 356.5 64.58854Q357.03125 65.18229 357.8125 65.18229Q358.60938 65.18229 359.125 64.58854Q359.64062 63.99479 359.64062 62.77604Q359.64062 61.61979 359.10938 61.02604Q358.59375 60.43229 357.8125 60.43229Q357.03125 60.43229 356.5 61.02604Q355.98438 61.604164 355.98438 62.80729ZM364.59375 64.979164L364.75 65.90104Q364.29688 65.99479 363.95312 65.99479Q363.375 65.99479 363.0625 65.822914Q362.75 65.635414 362.60938 65.33854Q362.48438 65.041664 362.48438 64.08854L362.48438 60.510414L361.71875 60.510414L361.71875 59.697914L362.48438 59.697914L362.48438 58.15104L363.53125 57.52604L363.53125 59.697914L364.59375 59.697914L364.59375 60.510414L363.53125 60.510414L363.53125 64.15104Q363.53125 64.604164 363.57812 64.729164Q363.64062 64.854164 363.76562 64.93229Q363.89062 65.010414 364.125 65.010414Q364.3125 65.010414 364.59375 64.979164ZM364.875 64.05729L365.90625 63.90104Q366.0 64.52604 366.39062 64.854164Q366.79688 65.18229 367.53125 65.18229Q368.25 65.18229 368.59375 64.90104Q368.95312 64.604164 368.95312 64.197914Q368.95312 63.83854 368.64062 63.635414Q368.42188 63.49479 367.5625 63.27604Q366.40625 62.979164 365.95312 62.77604Q365.51562 62.55729 365.28125 62.18229Q365.04688 61.80729 365.04688 61.33854Q365.04688 60.93229 365.23438 60.572914Q365.42188 60.21354 365.75 59.979164Q366.0 59.80729 366.42188 59.68229Q366.84375 59.55729 367.34375 59.55729Q368.0625 59.55729 368.60938 59.77604Q369.17188 59.979164 369.4375 60.33854Q369.70312 60.697914 369.79688 61.291664L368.76562 61.43229Q368.70312 60.96354 368.35938 60.697914Q368.03125 60.416664 367.40625 60.416664Q366.6875 60.416664 366.375 60.666664Q366.0625 60.90104 366.0625 61.229164Q366.0625 61.43229 366.1875 61.58854Q366.32812 61.760414 366.59375 61.86979Q366.75 61.93229 367.53125 62.135414Q368.65625 62.447914 369.09375 62.635414Q369.53125 62.822914 369.78125 63.18229Q370.03125 63.541664 370.03125 64.08854Q370.03125 64.61979 369.71875 65.08854Q369.42188 65.541664 368.84375 65.80729Q368.26562 66.05729 367.53125 66.05729Q366.3125 66.05729 365.67188 65.55729Q365.04688 65.041664 364.875 64.05729Z" fill-rule="nonzero"/><path stroke="#34a853" stroke-width="4.0" stroke-linecap="butt" d="M387.5 61.916668L399.5 61.916668" fill-rule="nonzero"/><path fill="#1a1a1a" d="M411.96875 65.916664L410.92188 65.916664L410.92188 59.197914Q410.53125 59.55729 409.90625 59.93229Q409.29688 60.291664 408.8125 60.46354L408.8125 59.447914Q409.6875 59.02604 410.34375 58.447914Q411.01562 57.854164 411.29688 57.291664L411.96875 57.291664L411.96875 65.916664ZM415.0 61.68229Q415.0 60.15104 415.3125 59.229164Q415.625 58.291664 416.23438 57.791664Q416.85938 57.291664 417.79688 57.291664Q418.48438 57.291664 419.0 57.572914Q419.53125 57.854164 419.875 58.385414Q420.21875 58.90104 420.40625 59.65104Q420.59375 60.40104 420.59375 61.68229Q420.59375 63.197914 420.28125 64.11979Q419.98438 65.041664 419.35938 65.55729Q418.75 66.05729 417.79688 66.05729Q416.5625 66.05729 415.84375 65.166664Q415.0 64.104164 415.0 61.68229ZM416.07812 61.68229Q416.07812 63.791664 416.57812 64.49479Q417.07812 65.197914 417.79688 65.197914Q418.53125 65.197914 419.01562 64.49479Q419.51562 63.791664 419.51562 61.68229Q419.51562 59.55729 419.01562 58.86979Q418.53125 58.166664 417.78125 58.166664Q417.0625 58.166664 416.625 58.77604Q416.07812 59.55729 416.07812 61.68229ZM422.4375 65.916664L422.4375 57.322914L426.25 57.322914Q427.40625 57.322914 428.0 57.55729Q428.59375 57.791664 428.95312 58.385414Q429.3125 58.96354 429.3125 59.666664Q429.3125 60.58854 428.71875 61.21354Q428.125 61.83854 426.89062 62.010414Q427.34375 62.229164 427.57812 62.43229Q428.07812 62.885414 428.51562 63.572914L430.01562 65.916664L428.57812 65.916664L427.45312 64.135414Q426.95312 63.354164 426.625 62.947914Q426.3125 62.541664 426.04688 62.385414Q425.79688 62.21354 425.53125 62.135414Q425.34375 62.104164 424.90625 62.104164L423.57812 62.104164L423.57812 65.916664L422.4375 65.916664ZM423.57812 61.11979L426.03125 61.11979Q426.79688 61.11979 427.23438 60.96354Q427.6875 60.791664 427.90625 60.447914Q428.14062 60.08854 428.14062 59.666664Q428.14062 59.05729 427.6875 58.666664Q427.25 58.27604 426.29688 58.27604L423.57812 58.27604L423.57812 61.11979ZM430.90625 62.80729Q430.90625 61.072914 431.85938 60.24479Q432.65625 59.55729 433.8125 59.55729Q435.09375 59.55729 435.90625 60.40104Q436.73438 61.229164 436.73438 62.71354Q436.73438 63.916664 436.375 64.604164Q436.01562 65.291664 435.3125 65.68229Q434.625 66.05729 433.8125 66.05729Q432.51562 66.05729 431.70312 65.229164Q430.90625 64.385414 430.90625 62.80729ZM431.98438 62.80729Q431.98438 63.99479 432.5 64.58854Q433.03125 65.18229 433.8125 65.18229Q434.60938 65.18229 435.125 64.58854Q435.64062 63.99479 435.64062 62.77604Q435.64062 61.61979 435.10938 61.02604Q434.59375 60.43229 433.8125 60.43229Q433.03125 60.43229 432.5 61.02604Q431.98438 61.604164 431.98438 62.80729ZM439.26562 65.916664L438.28125 65.916664L438.28125 57.322914L439.34375 57.322914L439.34375 60.385414Q440.01562 59.55729 441.04688 59.55729Q441.625 59.55729 442.125 59.791664Q442.64062 60.010414 442.96875 60.43229Q443.3125 60.854164 443.5 61.447914Q443.6875 62.041664 443.6875 62.71354Q443.6875 64.30729 442.89062 65.18229Q442.09375 66.05729 441.0 66.05729Q439.89062 66.05729 439.26562 65.135414L439.26562 65.916664ZM439.25 62.760414Q439.25 63.86979 439.5625 64.36979Q440.0625 65.18229 440.90625 65.18229Q441.59375 65.18229 442.09375 64.58854Q442.60938 63.99479 442.60938 62.791664Q442.60938 61.572914 442.125 60.99479Q441.64062 60.416664 440.95312 60.416664Q440.26562 60.416664 439.75 61.02604Q439.25 61.61979 439.25 62.760414ZM444.90625 62.80729Q444.90625 61.072914 445.85938 60.24479Q446.65625 59.55729 447.8125 59.55729Q449.09375 59.55729 449.90625 60.40104Q450.73438 61.229164 450.73438 62.71354Q450.73438 63.916664 450.375 64.604164Q450.01562 65.291664 449.3125 65.68229Q448.625 66.05729 447.8125 66.05729Q446.51562 66.05729 445.70312 65.229164Q444.90625 64.385414 444.90625 62.80729ZM445.98438 62.80729Q445.98438 63.99479 446.5 64.58854Q447.03125 65.18229 447.8125 65.18229Q448.60938 65.18229 449.125 64.58854Q449.64062 63.99479 449.64062 62.77604Q449.64062 61.61979 449.10938 61.02604Q448.59375 60.43229 447.8125 60.43229Q447.03125 60.43229 446.5 61.02604Q445.98438 61.604164 445.98438 62.80729ZM454.59375 64.979164L454.75 65.90104Q454.29688 65.99479 453.95312 65.99479Q453.375 65.99479 453.0625 65.822914Q452.75 65.635414 452.60938 65.33854Q452.48438 65.041664 452.48438 64.08854L452.48438 60.510414L451.71875 60.510414L451.71875 59.697914L452.48438 59.697914L452.48438 58.15104L453.53125 57.52604L453.53125 59.697914L454.59375 59.697914L454.59375 60.510414L453.53125 60.510414L453.53125 64.15104Q453.53125 64.604164 453.57812 64.729164Q453.64062 64.854164 453.76562 64.93229Q453.89062 65.010414 454.125 65.010414Q454.3125 65.010414 454.59375 64.979164ZM454.875 64.05729L455.90625 63.90104Q456.0 64.52604 456.39062 64.854164Q456.79688 65.18229 457.53125 65.18229Q458.25 65.18229 458.59375 64.90104Q458.95312 64.604164 458.95312 64.197914Q458.95312 63.83854 458.64062 63.635414Q458.42188 63.49479 457.5625 63.27604Q456.40625 62.979164 455.95312 62.77604Q455.51562 62.55729 455.28125 62.18229Q455.04688 61.80729 455.04688 61.33854Q455.04688 60.93229 455.23438 60.572914Q455.42188 60.21354 455.75 59.979164Q456.0 59.80729 456.42188 59.68229Q456.84375 59.55729 457.34375 59.55729Q458.0625 59.55729 458.60938 59.77604Q459.17188 59.979164 459.4375 60.33854Q459.70312 60.697914 459.79688 61.291664L458.76562 61.43229Q458.70312 60.96354 458.35938 60.697914Q458.03125 60.416664 457.40625 60.416664Q456.6875 60.416664 456.375 60.666664Q456.0625 60.90104 456.0625 61.229164Q456.0625 61.43229 456.1875 61.58854Q456.32812 61.760414 456.59375 61.86979Q456.75 61.93229 457.53125 62.135414Q458.65625 62.447914 459.09375 62.635414Q459.53125 62.822914 459.78125 63.18229Q460.03125 63.541664 460.03125 64.08854Q460.03125 64.61979 459.71875 65.08854Q459.42188 65.541664 458.84375 65.80729Q458.26562 66.05729 457.53125 66.05729Q456.3125 66.05729 455.67188 65.55729Q455.04688 65.041664 454.875 64.05729Z" fill-rule="nonzero"/><path fill="#757575" d="M226.04688 37.55L226.04688 23.2375L231.4375 23.2375Q232.875 23.2375 233.625 23.3625Q234.67188 23.55 235.39062 24.05Q236.10938 24.534374 236.53125 25.425Q236.96875 26.315624 236.96875 27.378124Q236.96875 29.20625 235.79688 30.471874Q234.64062 31.721874 231.60938 31.721874L227.9375 31.721874L227.9375 37.55L226.04688 37.55ZM227.9375 30.034374L231.64062 30.034374Q233.46875 30.034374 234.23438 29.3625Q235.01562 28.675 235.01562 27.425Q235.01562 26.534374 234.5625 25.89375Q234.10938 25.253124 233.375 25.05Q232.89062 24.925 231.59375 24.925L227.9375 24.925L227.9375 30.034374ZM245.92188 34.20625L247.73438 34.440624Q247.3125 36.01875 246.14062 36.909374Q244.98438 37.784374 243.17188 37.784374Q240.90625 37.784374 239.5625 36.39375Q238.23438 34.9875 238.23438 32.45625Q238.23438 29.83125 239.57812 28.39375Q240.92188 26.940624 243.07812 26.940624Q245.15625 26.940624 246.46875 28.3625Q247.79688 29.76875 247.79688 32.346874Q247.79688 32.503124 247.78125 32.815624L240.04688 32.815624Q240.14062 34.51875 241.01562 35.425Q241.89062 36.33125 243.1875 36.33125Q244.15625 36.33125 244.82812 35.83125Q245.51562 35.315624 245.92188 34.20625ZM240.14062 31.3625L245.9375 31.3625Q245.82812 30.065624 245.28125 29.409374Q244.4375 28.39375 243.09375 28.39375Q241.89062 28.39375 241.0625 29.20625Q240.23438 30.003124 240.14062 31.3625ZM249.79688 37.55L249.79688 27.175L251.375 27.175L251.375 28.753124Q251.98438 27.64375 252.5 27.3Q253.01562 26.940624 253.625 26.940624Q254.51562 26.940624 255.4375 27.503124L254.82812 29.14375Q254.1875 28.753124 253.54688 28.753124Q252.96875 28.753124 252.5 29.1125Q252.04688 29.45625 251.84375 30.065624Q251.5625 31.003124 251.5625 32.1125L251.5625 37.55L249.79688 37.55ZM263.59375 33.753124L265.3125 33.971874Q265.03125 35.76875 263.85938 36.784374Q262.70312 37.784374 261.0 37.784374Q258.875 37.784374 257.57812 36.39375Q256.28125 35.003124 256.28125 32.409374Q256.28125 30.721874 256.82812 29.471874Q257.39062 28.20625 258.53125 27.58125Q259.67188 26.940624 261.01562 26.940624Q262.70312 26.940624 263.76562 27.8Q264.84375 28.659374 265.15625 30.221874L263.4375 30.4875Q263.20312 29.440624 262.57812 28.925Q261.95312 28.39375 261.07812 28.39375Q259.75 28.39375 258.92188 29.346874Q258.09375 30.3 258.09375 32.346874Q258.09375 34.440624 258.89062 35.39375Q259.6875 36.33125 260.98438 36.33125Q262.01562 36.33125 262.70312 35.70625Q263.40625 35.065624 263.59375 33.753124ZM273.92188 34.20625L275.73438 34.440624Q275.3125 36.01875 274.14062 36.909374Q272.98438 37.784374 271.17188 37.784374Q268.90625 37.784374 267.5625 36.39375Q266.23438 34.9875 266.23438 32.45625Q266.23438 29.83125 267.57812 28.39375Q268.92188 26.940624 271.07812 26.940624Q273.15625 26.940624 274.46875 28.3625Q275.79688 29.76875 275.79688 32.346874Q275.79688 32.503124 275.78125 32.815624L268.04688 32.815624Q268.14062 34.51875 269.01562 35.425Q269.89062 36.33125 271.1875 36.33125Q272.15625 36.33125 272.82812 35.83125Q273.51562 35.315624 273.92188 34.20625ZM268.14062 31.3625L273.9375 31.3625Q273.82812 30.065624 273.28125 29.409374Q272.4375 28.39375 271.09375 28.39375Q269.89062 28.39375 269.0625 29.20625Q268.23438 30.003124 268.14062 31.3625ZM277.8125 37.55L277.8125 27.175L279.40625 27.175L279.40625 28.659374Q280.54688 26.940624 282.70312 26.940624Q283.64062 26.940624 284.42188 27.284374Q285.21875 27.6125 285.60938 28.159374Q286.0 28.70625 286.15625 29.45625Q286.25 29.95625 286.25 31.175L286.25 37.55L284.48438 37.55L284.48438 31.2375Q284.48438 30.159374 284.28125 29.628124Q284.07812 29.096874 283.54688 28.784374Q283.03125 28.471874 282.32812 28.471874Q281.20312 28.471874 280.39062 29.190624Q279.57812 29.89375 279.57812 31.878124L279.57812 37.55L277.8125 37.55ZM291.65625 35.971874L291.90625 37.534374Q291.17188 37.690624 290.57812 37.690624Q289.625 37.690624 289.09375 37.39375Q288.57812 37.08125 288.35938 36.596874Q288.14062 36.096874 288.14062 34.51875L288.14062 28.55L286.85938 28.55L286.85938 27.175L288.14062 27.175L288.14062 24.6125L289.89062 23.55L289.89062 27.175L291.65625 27.175L291.65625 28.55L289.89062 28.55L289.89062 34.6125Q289.89062 35.3625 289.98438 35.58125Q290.07812 35.784374 290.28125 35.925Q290.5 36.05 290.89062 36.05Q291.17188 36.05 291.65625 35.971874ZM300.07812 37.55L300.07812 23.2375L310.4375 23.2375L310.4375 24.925L301.98438 24.925L301.98438 29.3L309.89062 29.3L309.89062 30.9875L301.98438 30.9875L301.98438 35.8625L310.76562 35.8625L310.76562 37.55L300.07812 37.55ZM311.64062 37.55L315.4375 32.159374L311.9375 27.175L314.125 27.175L315.71875 29.6125Q316.17188 30.3 316.4375 30.76875Q316.875 30.128124 317.23438 29.628124L318.98438 27.175L321.07812 27.175L317.5 32.065624L321.35938 37.55L319.20312 37.55L317.0625 34.33125L316.5 33.45625L313.78125 37.55L311.64062 37.55ZM321.8125 41.51875L321.8125 27.175L323.42188 27.175L323.42188 28.51875Q323.98438 27.7375 324.6875 27.346874Q325.40625 26.940624 326.42188 26.940624Q327.75 26.940624 328.76562 27.628124Q329.78125 28.315624 330.29688 29.565624Q330.82812 30.8 330.82812 32.284374Q330.82812 33.878124 330.25 35.159374Q329.6875 36.425 328.59375 37.1125Q327.5 37.784374 326.29688 37.784374Q325.42188 37.784374 324.71875 37.409374Q324.03125 37.034374 323.57812 36.471874L323.57812 41.51875L321.8125 41.51875ZM323.40625 32.425Q323.40625 34.425 324.21875 35.378124Q325.03125 36.33125 326.1875 36.33125Q327.35938 36.33125 328.1875 35.346874Q329.03125 34.3625 329.03125 32.26875Q329.03125 30.3 328.20312 29.315624Q327.39062 28.315624 326.26562 28.315624Q325.14062 28.315624 324.26562 29.378124Q323.40625 30.425 323.40625 32.425ZM332.78125 37.55L332.78125 23.2375L334.53125 23.2375L334.53125 37.55L332.78125 37.55ZM336.17188 32.3625Q336.17188 29.4875 337.76562 28.096874Q339.10938 26.940624 341.03125 26.940624Q343.17188 26.940624 344.51562 28.346874Q345.875 29.753124 345.875 32.221874Q345.875 34.221874 345.28125 35.378124Q344.6875 36.51875 343.53125 37.159374Q342.39062 37.784374 341.03125 37.784374Q338.84375 37.784374 337.5 36.39375Q336.17188 34.9875 336.17188 32.3625ZM337.96875 32.3625Q337.96875 34.3625 338.82812 35.346874Q339.70312 36.33125 341.03125 36.33125Q342.34375 36.33125 343.20312 35.346874Q344.07812 34.346874 344.07812 32.3Q344.07812 30.378124 343.20312 29.39375Q342.32812 28.39375 341.03125 28.39375Q339.70312 28.39375 338.82812 29.39375Q337.96875 30.378124 337.96875 32.3625ZM347.79688 37.55L347.79688 27.175L349.375 27.175L349.375 28.753124Q349.98438 27.64375 350.5 27.3Q351.01562 26.940624 351.625 26.940624Q352.51562 26.940624 353.4375 27.503124L352.82812 29.14375Q352.1875 28.753124 351.54688 28.753124Q350.96875 28.753124 350.5 29.1125Q350.04688 29.45625 349.84375 30.065624Q349.5625 31.003124 349.5625 32.1125L349.5625 37.55L347.79688 37.55ZM361.92188 34.20625L363.73438 34.440624Q363.3125 36.01875 362.14062 36.909374Q360.98438 37.784374 359.17188 37.784374Q356.90625 37.784374 355.5625 36.39375Q354.23438 34.9875 354.23438 32.45625Q354.23438 29.83125 355.57812 28.39375Q356.92188 26.940624 359.07812 26.940624Q361.15625 26.940624 362.46875 28.3625Q363.79688 29.76875 363.79688 32.346874Q363.79688 32.503124 363.78125 32.815624L356.04688 32.815624Q356.14062 34.51875 357.01562 35.425Q357.89062 36.33125 359.1875 36.33125Q360.15625 36.33125 360.82812 35.83125Q361.51562 35.315624 361.92188 34.20625ZM356.14062 31.3625L361.9375 31.3625Q361.82812 30.065624 361.28125 29.409374Q360.4375 28.39375 359.09375 28.39375Q357.89062 28.39375 357.0625 29.20625Q356.23438 30.003124 356.14062 31.3625ZM372.54688 37.55L372.54688 36.2375Q371.5625 37.784374 369.64062 37.784374Q368.40625 37.784374 367.35938 37.096874Q366.32812 36.409374 365.75 35.190624Q365.1875 33.971874 365.1875 32.378124Q365.1875 30.815624 365.70312 29.55Q366.21875 28.284374 367.25 27.6125Q368.29688 26.940624 369.5625 26.940624Q370.5 26.940624 371.23438 27.346874Q371.96875 27.7375 372.4375 28.3625L372.4375 23.2375L374.17188 23.2375L374.17188 37.55L372.54688 37.55ZM366.98438 32.378124Q366.98438 34.3625 367.82812 35.346874Q368.67188 36.33125 369.8125 36.33125Q370.96875 36.33125 371.76562 35.39375Q372.57812 34.45625 372.57812 32.51875Q372.57812 30.39375 371.75 29.39375Q370.9375 28.39375 369.73438 28.39375Q368.5625 28.39375 367.76562 29.3625Q366.98438 30.315624 366.98438 32.378124Z" fill-rule="nonzero"/></svg>