<svg version="1.1" viewBox="0.0 0.0 600.0 371.0" fill="none" stroke="none" stroke-linecap="square" stroke-miterlimit="10" width="600" height="371" xmlns:xlink="http://www.w3.org/1999/xlink" xmlns="http://www.w3.org/2000/svg"><path fill="#ffffff" d="M0 0L600.0 0L600.0 371.0L0 371.0L0 0Z" fill-rule="nonzero"/><path stroke="#333333" stroke-width="1.0" stroke-linecap="butt" d="M45.5 332.5L581.5 332.5" fill-rule="nonzero"/><path stroke="#cccccc" stroke-width="1.0" stroke-linecap="butt" d="M45.5 271.5L581.5 271.5" fill-rule="nonzero"/><path stroke="#cccccc" stroke-width="1.0" stroke-linecap="butt" d="M45.5 210.5L581.5 210.5" fill-rule="nonzero"/><path stroke="#cccccc" stroke-width="1.0" stroke-linecap="butt" d="M45.5 149.5L581.5 149.5" fill-rule="nonzero"/><path stroke="#cccccc" stroke-width="1.0" stroke-linecap="butt" d="M45.5 88.5L581.5 88.5" fill-rule="nonzero"/><clipPath id="id_0"><path d="M45.55 88.28333L581.45 88.28333L581.45 332.45L45.55 332.45L45.55 88.28333Z" clip-rule="nonzero"/></clipPath><path stroke="#4285f4" stroke-width="2.0" stroke-linecap="butt" clip-path="url(#id_0)" d="M134.86667 194.89261L313.5 110.319374L492.13333 104.76458" fill-rule="nonzero"/><path stroke="#ea4335" stroke-width="2.0" stroke-linecap="butt" clip-path="url(#id_0)" d="M134.86667 194.89261L313.5 114.134476L492.13333 114.01545" fill-rule="nonzero"/><path stroke="#fbbc04" stroke-width="2.0" stroke-linecap="butt" clip-path="url(#id_0)" d="M134.86667 194.89261L313.5 132.35542L492.13333 130.55469" fill-rule="nonzero"/><path fill="#000000" fill-opacity="0.0" clip-path="url(#id_0)" d="M137.86667 194.89261C137.86667 196.54945 136.52351 197.89261 134.86667 197.89261C133.20981 197.89261 131.86667 196.54945 131.86667 194.89261C131.86667 193.23575 133.20981 191.89261 134.86667 191.89261C136.52351 191.89261 137.86667 193.23575 137.86667 194.89261Z" fill-rule="nonzero"/><path fill="#000000" fill-opacity="0.0" clip-path="url(#id_0)" d="M316.5 110.319374C316.5 111.97623 315.15686 113.319374 313.5 113.319374C311.84314 113.319374 310.5 111.97623 310.5 110.319374C310.5 108.66252 311.84314 107.319374 313.5 107.319374C315.15686 107.319374 316.5 108.66252 316.5 110.319374Z" fill-rule="nonzero"/><path fill="#000000" fill-opacity="0.0" clip-path="url(#id_0)" d="M495.13333 104.76458C495.13333 106.42144 493.7902 107.76458 492.13333 107.76458C490.47647 107.76458 489.13333 106.42144 489.13333 104.76458C489.13333 103.10773 490.47647 101.76458 492.13333 101.76458C493.7902 101.76458 495.13333 103.10773 495.13333 104.76458Z" fill-rule="nonzero"/><path fill="#000000" fill-opacity="0.0" clip-path="url(#id_0)" d="M137.86667 194.89261C137.86667 196.54945 136.52351 197.89261 134.86667 197.89261C133.20981 197.89261 131.86667 196.54945 131.86667 194.89261C131.86667 193.23575 133.20981 191.89261 134.86667 191.89261C136.52351 191.89261 137.86667 193.23575 137.86667 194.89261Z" fill-rule="nonzero"/><path fill="#000000" fill-opacity="0.0" clip-path="url(#id_0)" d="M316.5 114.134476C316.5 115.791336 315.15686 117.134476 313.5 117.134476C311.84314 117.134476 310.5 115.791336 310.5 114.134476C310.5 112.47762 311.84314 111.134476 313.5 111.134476C315.15686 111.134476 316.5 112.47762 316.5 114.134476Z" fill-rule="nonzero"/><path fill="#000000" fill-opacity="0.0" clip-path="url(#id_0)" d="M495.13333 114.01545C495.13333 115.6723 493.7902 117.01545 492.13333 117.01545C490.47647 117.01545 489.13333 115.6723 489.13333 114.01545C489.13333 112.3586 490.47647 111.01545 492.13333 111.01545C493.7902 111.01545 495.13333 112.3586 495.13333 114.01545Z" fill-rule="nonzero"/><path fill="#000000" fill-opacity="0.0" clip-path="url(#id_0)" d="M137.86667 194.89261C137.86667 196.54945 136.52351 197.89261 134.86667 197.89261C133.20981 197.89261 131.86667 196.54945 131.86667 194.89261C131.86667 193.23575 133.20981 191.89261 134.86667 191.89261C136.52351 191.89261 137.86667 193.23575 137.86667 194.89261Z" fill-rule="nonzero"/><path fill="#000000" fill-opacity="0.0" clip-path="url(#id_0)" d="M316.5 132.35542C316.5 134.01227 315.15686 135.35542 313.5 135.35542C311.84314 135.35542 310.5 134.01227 310.5 132.35542C310.5 130.69856 311.84314 129.35542 313.5 129.35542C315.15686 129.35542 316.5 130.69856 316.5 132.35542Z" fill-rule="nonzero"/><path fill="#000000" fill-opacity="0.0" clip-path="url(#id_0)" d="M495.13333 130.55469C495.13333 132.21155 493.7902 133.55469 492.13333 133.55469C490.47647 133.55469 489.13333 132.21155 489.13333 130.55469C489.13333 128.89783 490.47647 127.55469 492.13333 127.55469C493.7902 127.55469 495.13333 128.89783 495.13333 130.55469Z" fill-rule="nonzero"/><path fill="#000000" d="M33.05 332.21564Q33.05 330.6844 33.3625 329.7625Q33.675 328.825 34.284374 328.325Q34.909374 327.825 35.846874 327.825Q36.534374 327.825 37.05 328.10626Q37.58125 328.3875 37.925 328.91876Q38.26875 329.4344 38.45625 330.1844Q38.64375 330.9344 38.64375 332.21564Q38.64375 333.73126 38.33125 334.65314Q38.034374 335.575 37.409374 336.09064Q36.8 336.59064 35.846874 336.59064Q34.6125 336.59064 33.89375 335.7Q33.05 334.6375 33.05 332.21564ZM34.128124 332.21564Q34.128124 334.325 34.628124 335.02814Q35.128124 335.73126 35.846874 335.73126Q36.58125 335.73126 37.065624 335.02814Q37.565624 334.325 37.565624 332.21564Q37.565624 330.09064 37.065624 329.40314Q36.58125 328.7 35.83125 328.7Q35.1125 328.7 34.675 329.3094Q34.128124 330.09064 34.128124 332.21564Z" fill-rule="nonzero"/><path fill="#000000" d="M31.596874 274.3927L31.596874 275.40833L25.909374 275.40833Q25.909374 275.03333 26.034374 274.67395Q26.253124 274.09583 26.721874 273.53333Q27.20625 272.97083 28.1125 272.23645Q29.51875 271.0802 30.003124 270.40833Q30.503124 269.73645 30.503124 269.1427Q30.503124 268.5177 30.05 268.09583Q29.596874 267.65833 28.878124 267.65833Q28.1125 267.65833 27.659374 268.11145Q27.20625 268.56458 27.190624 269.37708L26.1125 269.2677Q26.221874 268.04895 26.940624 267.42395Q27.675 266.78333 28.909374 266.78333Q30.14375 266.78333 30.8625 267.47083Q31.58125 268.15833 31.58125 269.17395Q31.58125 269.68958 31.3625 270.18958Q31.159374 270.67395 30.659374 271.23645Q30.175 271.78333 29.05 272.73645Q28.096874 273.53333 27.815624 273.8302Q27.55 274.11145 27.378124 274.3927L31.596874 274.3927ZM33.05 271.17395Q33.05 269.6427 33.3625 268.72083Q33.675 267.78333 34.284374 267.28333Q34.909374 266.78333 35.846874 266.78333Q36.534374 266.78333 37.05 267.06458Q37.58125 267.34583 37.925 267.87708Q38.26875 268.3927 38.45625 269.1427Q38.64375 269.8927 38.64375 271.17395Q38.64375 272.68958 38.33125 273.61145Q38.034374 274.53333 37.409374 275.04895Q36.8 275.54895 35.846874 275.54895Q34.6125 275.54895 33.89375 274.65833Q33.05 273.59583 33.05 271.17395ZM34.128124 271.17395Q34.128124 273.28333 34.628124 273.98645Q35.128124 274.68958 35.846874 274.68958Q36.58125 274.68958 37.065624 273.98645Q37.565624 273.28333 37.565624 271.17395Q37.565624 269.04895 37.065624 268.36145Q36.58125 267.65833 35.83125 267.65833Q35.1125 267.65833 34.675 268.2677Q34.128124 269.04895 34.128124 271.17395Z" fill-rule="nonzero"/><path fill="#000000" d="M29.425 214.36667L29.425 212.30417L25.70625 212.30417L25.70625 211.33542L29.628124 205.77292L30.4875 205.77292L30.4875 211.33542L31.64375 211.33542L31.64375 212.30417L30.4875 212.30417L30.4875 214.36667L29.425 214.36667ZM29.425 211.33542L29.425 207.47604L26.7375 211.33542L29.425 211.33542ZM33.05 210.1323Q33.05 208.60104 33.3625 207.67917Q33.675 206.74167 34.284374 206.24167Q34.909374 205.74167 35.846874 205.74167Q36.534374 205.74167 37.05 206.02292Q37.58125 206.30417 37.925 206.83542Q38.26875 207.35104 38.45625 208.10104Q38.64375 208.85104 38.64375 210.1323Q38.64375 211.64792 38.33125 212.5698Q38.034374 213.49167 37.409374 214.0073Q36.8 214.5073 35.846874 214.5073Q34.6125 214.5073 33.89375 213.61667Q33.05 212.55417 33.05 210.1323ZM34.128124 210.1323Q34.128124 212.24167 34.628124 212.9448Q35.128124 213.64792 35.846874 213.64792Q36.58125 213.64792 37.065624 212.9448Q37.565624 212.24167 37.565624 210.1323Q37.565624 208.0073 37.065624 207.3198Q36.58125 206.61667 35.83125 206.61667Q35.1125 206.61667 34.675 207.22604Q34.128124 208.0073 34.128124 210.1323Z" fill-rule="nonzero"/><path fill="#000000" d="M31.51875 146.84062L30.471874 146.91875Q30.33125 146.29375 30.08125 146.0125Q29.64375 145.55937 29.01875 145.55937Q28.51875 145.55937 28.128124 145.84062Q27.64375 146.21562 27.346874 146.91875Q27.065624 147.60625 27.05 148.8875Q27.425 148.30937 27.971874 148.02812Q28.534374 147.74687 29.14375 147.74687Q30.190624 147.74687 30.925 148.52812Q31.675 149.30937 31.675 150.52812Q31.675 151.34062 31.315624 152.04375Q30.971874 152.73125 30.3625 153.10625Q29.753124 153.46562 28.9875 153.46562Q27.659374 153.46562 26.83125 152.49687Q26.003124 151.52812 26.003124 149.30937Q26.003124 146.80937 26.925 145.68437Q27.721874 144.7 29.08125 144.7Q30.096874 144.7 30.7375 145.27812Q31.39375 145.84062 31.51875 146.84062ZM27.221874 150.54375Q27.221874 151.09062 27.440624 151.59062Q27.675 152.075 28.08125 152.34062Q28.503124 152.60625 28.971874 152.60625Q29.628124 152.60625 30.1125 152.075Q30.596874 151.52812 30.596874 150.60625Q30.596874 149.71562 30.1125 149.2Q29.64375 148.68437 28.925 148.68437Q28.20625 148.68437 27.70625 149.2Q27.221874 149.71562 27.221874 150.54375ZM33.05 149.09062Q33.05 147.55937 33.3625 146.6375Q33.675 145.7 34.284374 145.2Q34.909374 144.7 35.846874 144.7Q36.534374 144.7 37.05 144.98125Q37.58125 145.2625 37.925 145.79375Q38.26875 146.30937 38.45625 147.05937Q38.64375 147.80937 38.64375 149.09062Q38.64375 150.60625 38.33125 151.52812Q38.034374 152.45 37.409374 152.96562Q36.8 153.46562 35.846874 153.46562Q34.6125 153.46562 33.89375 152.575Q33.05 151.5125 33.05 149.09062ZM34.128124 149.09062Q34.128124 151.2 34.628124 151.90312Q35.128124 152.60625 35.846874 152.60625Q36.58125 152.60625 37.065624 151.90312Q37.565624 151.2 37.565624 149.09062Q37.565624 146.96562 37.065624 146.27812Q36.58125 145.575 35.83125 145.575Q35.1125 145.575 34.675 146.18437Q34.128124 146.96562 34.128124 149.09062Z" fill-rule="nonzero"/><path fill="#000000" d="M27.675 87.62708Q27.01875 87.37708 26.690624 86.93958Q26.378124 86.48646 26.378124 85.87708Q26.378124 84.93958 27.05 84.29896Q27.7375 83.65833 28.846874 83.65833Q29.971874 83.65833 30.659374 84.31458Q31.346874 84.97083 31.346874 85.90833Q31.346874 86.50208 31.034374 86.93958Q30.721874 87.37708 30.08125 87.62708Q30.878124 87.87708 31.284374 88.45521Q31.690624 89.03333 31.690624 89.83021Q31.690624 90.92396 30.909374 91.67396Q30.14375 92.42396 28.8625 92.42396Q27.596874 92.42396 26.815624 91.67396Q26.034374 90.92396 26.034374 89.79896Q26.034374 88.95521 26.45625 88.39271Q26.89375 87.83021 27.675 87.62708ZM27.45625 85.83021Q27.45625 86.43958 27.846874 86.83021Q28.253124 87.22083 28.878124 87.22083Q29.4875 87.22083 29.878124 86.84583Q30.26875 86.45521 30.26875 85.89271Q30.26875 85.31458 29.8625 84.92396Q29.45625 84.51771 28.8625 84.51771Q28.253124 84.51771 27.846874 84.90833Q27.45625 85.29896 27.45625 85.83021ZM27.128124 89.79896Q27.128124 90.25208 27.33125 90.67396Q27.55 91.09583 27.971874 91.33021Q28.39375 91.56458 28.878124 91.56458Q29.628124 91.56458 30.1125 91.08021Q30.6125 90.59583 30.6125 89.84583Q30.6125 89.08021 30.1125 88.58021Q29.6125 88.08021 28.846874 88.08021Q28.096874 88.08021 27.6125 88.58021Q27.128124 89.06458 27.128124 89.79896ZM33.05 88.04896Q33.05 86.51771 33.3625 85.59583Q33.675 84.65833 34.284374 84.15833Q34.909374 83.65833 35.846874 83.65833Q36.534374 83.65833 37.05 83.93958Q37.58125 84.22083 37.925 84.75208Q38.26875 85.26771 38.45625 86.01771Q38.64375 86.76771 38.64375 88.04896Q38.64375 89.56458 38.33125 90.48646Q38.034374 91.40833 37.409374 91.92396Q36.8 92.42396 35.846874 92.42396Q34.6125 92.42396 33.89375 91.53333Q33.05 90.47083 33.05 88.04896ZM34.128124 88.04896Q34.128124 90.15833 34.628124 90.86146Q35.128124 91.56458 35.846874 91.56458Q36.58125 91.56458 37.065624 90.86146Q37.565624 90.15833 37.565624 88.04896Q37.565624 85.92396 37.065624 85.23646Q36.58125 84.53333 35.83125 84.53333Q35.1125 84.53333 34.675 85.14271Q34.128124 85.92396 34.128124 88.04896Z" fill-rule="nonzero"/><path fill="#000000" d="M89.42917 346.4344L90.55417 346.73126Q90.19479 348.1219 89.27292 348.85626Q88.35104 349.59064 87.00729 349.59064Q85.61667 349.59064 84.74167 349.02814Q83.86667 348.46564 83.41354 347.40314Q82.96042 346.325 82.96042 345.09064Q82.96042 343.7469 83.47604 342.7469Q83.99167 341.7469 84.92917 341.23126Q85.88229 340.71564 87.02292 340.71564Q88.30417 340.71564 89.17917 341.3719Q90.06979 342.02814 90.41354 343.21564L89.28854 343.48126Q88.99167 342.54376 88.41354 342.1219Q87.85104 341.6844 86.99167 341.6844Q86.00729 341.6844 85.33542 342.16876Q84.67917 342.6375 84.39792 343.4344Q84.13229 344.23126 84.13229 345.09064Q84.13229 346.1844 84.44479 346.9969Q84.77292 347.8094 85.44479 348.21564Q86.11667 348.6219 86.91354 348.6219Q87.86667 348.6219 88.52292 348.075Q89.19479 347.52814 89.42917 346.4344ZM91.77292 346.34064Q91.77292 344.60626 92.72604 343.77814Q93.52292 343.09064 94.67917 343.09064Q95.96042 343.09064 96.77292 343.9344Q97.60104 344.7625 97.60104 346.2469Q97.60104 347.45 97.24167 348.1375Q96.88229 348.825 96.17917 349.21564Q95.49167 349.59064 94.67917 349.59064Q93.38229 349.59064 92.56979 348.7625Q91.77292 347.91876 91.77292 346.34064ZM92.85104 346.34064Q92.85104 347.52814 93.36667 348.1219Q93.89792 348.71564 94.67917 348.71564Q95.47604 348.71564 95.99167 348.1219Q96.50729 347.52814 96.50729 346.3094Q96.50729 345.15314 95.97604 344.5594Q95.46042 343.96564 94.67917 343.96564Q93.89792 343.96564 93.36667 344.5594Q92.85104 345.1375 92.85104 346.34064ZM99.16354 349.45L99.16354 343.23126L100.10104 343.23126L100.10104 344.10626Q100.78854 343.09064 102.08542 343.09064Q102.64792 343.09064 103.11667 343.29376Q103.60104 343.4969 103.83542 343.825Q104.06979 344.15314 104.16354 344.59064Q104.21042 344.8875 104.21042 345.6219L104.21042 349.45L103.16354 349.45L103.16354 345.66876Q103.16354 345.0125 103.03854 344.7Q102.91354 344.3875 102.60104 344.2Q102.28854 343.9969 101.86667 343.9969Q101.19479 343.9969 100.69479 344.4344Q100.21042 344.85626 100.21042 346.04376L100.21042 349.45L99.16354 349.45ZM108.46042 348.5125L108.61667 349.4344Q108.16354 349.52814 107.81979 349.52814Q107.24167 349.52814 106.92917 349.35626Q106.61667 349.16876 106.47604 348.8719Q106.35104 348.575 106.35104 347.6219L106.35104 344.04376L105.58542 344.04376L105.58542 343.23126L106.35104 343.23126L106.35104 341.6844L107.39792 341.0594L107.39792 343.23126L108.46042 343.23126L108.46042 344.04376L107.39792 344.04376L107.39792 347.6844Q107.39792 348.1375 107.44479 348.2625Q107.50729 348.3875 107.63229 348.46564Q107.75729 348.54376 107.99167 348.54376Q108.17917 348.54376 108.46042 348.5125ZM109.14792 349.45L109.14792 343.23126L110.10104 343.23126L110.10104 344.16876Q110.46042 343.5125 110.75729 343.3094Q111.06979 343.09064 111.44479 343.09064Q111.97604 343.09064 112.52292 343.41876L112.16354 344.40314Q111.77292 344.16876 111.39792 344.16876Q111.03854 344.16876 110.75729 344.3875Q110.49167 344.59064 110.38229 344.96564Q110.19479 345.52814 110.19479 346.1844L110.19479 349.45L109.14792 349.45ZM112.77292 346.34064Q112.77292 344.60626 113.72604 343.77814Q114.52292 343.09064 115.67917 343.09064Q116.96042 343.09064 117.77292 343.9344Q118.60104 344.7625 118.60104 346.2469Q118.60104 347.45 118.24167 348.1375Q117.88229 348.825 117.17917 349.21564Q116.49167 349.59064 115.67917 349.59064Q114.38229 349.59064 113.56979 348.7625Q112.77292 347.91876 112.77292 346.34064ZM113.85104 346.34064Q113.85104 347.52814 114.36667 348.1219Q114.89792 348.71564 115.67917 348.71564Q116.47604 348.71564 116.99167 348.1219Q117.50729 347.52814 117.50729 346.3094Q117.50729 345.15314 116.97604 344.5594Q116.46042 343.96564 115.67917 343.96564Q114.89792 343.96564 114.36667 344.5594Q113.85104 345.1375 113.85104 346.34064ZM120.13229 349.45L120.13229 340.85626L121.19479 340.85626L121.19479 349.45L120.13229 349.45ZM126.06979 342.91876Q126.06979 341.9969 126.52292 341.35626Q126.99167 340.71564 127.86667 340.71564Q128.67917 340.71564 129.21042 341.29376Q129.74167 341.8719 129.74167 342.98126Q129.74167 344.075 129.1948 344.66876Q128.66354 345.2469 127.88229 345.2469Q127.10104 345.2469 126.58542 344.66876Q126.06979 344.09064 126.06979 342.91876ZM127.89792 341.4344Q127.50729 341.4344 127.24167 341.77814Q126.99167 342.1219 126.99167 343.02814Q126.99167 343.85626 127.24167 344.2Q127.50729 344.52814 127.89792 344.52814Q128.30417 344.52814 128.55417 344.1844Q128.8198 343.84064 128.8198 342.95Q128.8198 342.10626 128.55417 341.77814Q128.28854 341.4344 127.89792 341.4344ZM127.89792 349.7625L132.60104 340.71564L133.46042 340.71564L128.77292 349.7625L127.89792 349.7625ZM131.61667 347.4344Q131.61667 346.5125 132.0698 345.8719Q132.53854 345.23126 133.42917 345.23126Q134.24167 345.23126 134.77292 345.8094Q135.30417 346.3719 135.30417 347.4969Q135.30417 348.59064 134.7573 349.1844Q134.22604 349.7625 133.42917 349.7625Q132.66354 349.7625 132.1323 349.1844Q131.61667 348.60626 131.61667 347.4344ZM133.46042 345.95Q133.05417 345.95 132.78854 346.29376Q132.53854 346.6375 132.53854 347.54376Q132.53854 348.35626 132.80417 348.7Q133.0698 349.04376 133.46042 349.04376Q133.85104 349.04376 134.11667 348.7Q134.3823 348.35626 134.3823 347.45Q134.3823 346.6219 134.11667 346.29376Q133.85104 345.95 133.46042 345.95ZM140.3198 349.45L140.3198 340.85626L146.52292 340.85626L146.52292 341.8719L141.46042 341.8719L141.46042 344.4969L146.21042 344.4969L146.21042 345.5125L141.46042 345.5125L141.46042 348.4344L146.72604 348.4344L146.72604 349.45L140.3198 349.45ZM147.46042 349.45L149.72604 346.21564L147.6323 343.23126L148.9448 343.23126L149.89792 344.6844Q150.16354 345.10626 150.33542 345.3875Q150.58542 344.9969 150.80417 344.7L151.85104 343.23126L153.11667 343.23126L150.96042 346.15314L153.27292 349.45L151.99167 349.45L150.71042 347.5125L150.36667 346.9969L148.72604 349.45L147.46042 349.45ZM153.16354 351.84064L153.16354 343.23126L154.11667 343.23126L154.11667 344.02814Q154.46042 343.5594 154.8823 343.325Q155.3198 343.09064 155.92917 343.09064Q156.72604 343.09064 157.33542 343.4969Q157.9448 343.90314 158.24167 344.65314Q158.55417 345.40314 158.55417 346.29376Q158.55417 347.2469 158.21042 348.0125Q157.8823 348.77814 157.22604 349.1844Q156.5698 349.59064 155.85104 349.59064Q155.3198 349.59064 154.89792 349.3719Q154.47604 349.1375 154.21042 348.8094L154.21042 351.84064L153.16354 351.84064ZM154.11667 346.3719Q154.11667 347.575 154.60104 348.15314Q155.08542 348.71564 155.77292 348.71564Q156.47604 348.71564 156.97604 348.1219Q157.47604 347.52814 157.47604 346.27814Q157.47604 345.09064 156.99167 344.5125Q156.5073 343.91876 155.8198 343.91876Q155.14792 343.91876 154.6323 344.54376Q154.11667 345.16876 154.11667 346.3719ZM160.1323 349.45L160.1323 340.85626L161.1948 340.85626L161.1948 349.45L160.1323 349.45ZM162.77292 346.34064Q162.77292 344.60626 163.72604 343.77814Q164.52292 343.09064 165.67917 343.09064Q166.96042 343.09064 167.77292 343.9344Q168.60104 344.7625 168.60104 346.2469Q168.60104 347.45 168.24167 348.1375Q167.8823 348.825 167.17917 349.21564Q166.49167 349.59064 165.67917 349.59064Q164.3823 349.59064 163.5698 348.7625Q162.77292 347.91876 162.77292 346.34064ZM163.85104 346.34064Q163.85104 347.52814 164.36667 348.1219Q164.89792 348.71564 165.67917 348.71564Q166.47604 348.71564 166.99167 348.1219Q167.5073 347.52814 167.5073 346.3094Q167.5073 345.15314 166.97604 344.5594Q166.46042 343.96564 165.67917 343.96564Q164.89792 343.96564 164.36667 344.5594Q163.85104 345.1375 163.85104 346.34064ZM170.14792 349.45L170.14792 343.23126L171.10104 343.23126L171.10104 344.16876Q171.46042 343.5125 171.7573 343.3094Q172.0698 343.09064 172.4448 343.09064Q172.97604 343.09064 173.52292 343.41876L173.16354 344.40314Q172.77292 344.16876 172.39792 344.16876Q172.03854 344.16876 171.7573 344.3875Q171.49167 344.59064 171.3823 344.96564Q171.1948 345.52814 171.1948 346.1844L171.1948 349.45L170.14792 349.45ZM178.41354 347.45L179.5073 347.575Q179.2573 348.52814 178.55417 349.0594Q177.85104 349.59064 176.77292 349.59064Q175.41354 349.59064 174.60104 348.7469Q173.80417 347.90314 173.80417 346.3875Q173.80417 344.825 174.61667 343.96564Q175.42917 343.09064 176.71042 343.09064Q177.96042 343.09064 178.74167 343.9344Q179.53854 344.77814 179.53854 346.325Q179.53854 346.41876 179.53854 346.60626L174.89792 346.60626Q174.96042 347.6375 175.47604 348.1844Q175.99167 348.71564 176.77292 348.71564Q177.35104 348.71564 177.7573 348.41876Q178.17917 348.10626 178.41354 347.45ZM174.96042 345.7469L178.42917 345.7469Q178.36667 344.95 178.03854 344.5594Q177.52292 343.95 176.72604 343.95Q175.99167 343.95 175.49167 344.4344Q175.0073 344.91876 174.96042 345.7469ZM185.1948 349.45L185.1948 348.66876Q184.60104 349.59064 183.46042 349.59064Q182.71042 349.59064 182.08542 349.1844Q181.46042 348.7625 181.11667 348.02814Q180.77292 347.29376 180.77292 346.34064Q180.77292 345.41876 181.08542 344.65314Q181.39792 343.8875 182.02292 343.4969Q182.64792 343.09064 183.41354 343.09064Q183.97604 343.09064 184.41354 343.325Q184.85104 343.5594 185.1323 343.9344L185.1323 340.85626L186.17917 340.85626L186.17917 349.45L185.1948 349.45ZM181.86667 346.34064Q181.86667 347.54376 182.36667 348.1375Q182.86667 348.71564 183.55417 348.71564Q184.24167 348.71564 184.72604 348.15314Q185.21042 347.59064 185.21042 346.4344Q185.21042 345.15314 184.71042 344.5594Q184.22604 343.96564 183.5073 343.96564Q182.80417 343.96564 182.33542 344.54376Q181.86667 345.10626 181.86667 346.34064Z" fill-rule="nonzero"/><path fill="#000000" d="M254.04688 346.6844L255.10938 346.59064Q255.1875 347.2469 255.46875 347.65314Q255.75 348.0594 256.32812 348.325Q256.92188 348.575 257.65625 348.575Q258.29688 348.575 258.79688 348.3875Q259.29688 348.1844 259.53125 347.85626Q259.78125 347.5125 259.78125 347.1219Q259.78125 346.71564 259.54688 346.41876Q259.3125 346.10626 258.78125 345.90314Q258.42188 345.7625 257.23438 345.48126Q256.0625 345.2 255.59375 344.95Q254.96875 344.6219 254.67188 344.15314Q254.375 343.66876 254.375 343.075Q254.375 342.4344 254.73438 341.8719Q255.10938 341.29376 255.8125 341.0125Q256.53125 340.71564 257.39062 340.71564Q258.34375 340.71564 259.07812 341.02814Q259.8125 341.325 260.20312 341.9344Q260.59375 342.52814 260.625 343.27814L259.53125 343.35626Q259.4375 342.54376 258.92188 342.1375Q258.42188 341.71564 257.4375 341.71564Q256.40625 341.71564 255.9375 342.09064Q255.46875 342.46564 255.46875 342.9969Q255.46875 343.46564 255.79688 343.7625Q256.125 344.0594 257.5 344.3719Q258.89062 344.6844 259.40625 344.91876Q260.15625 345.27814 260.51562 345.8094Q260.875 346.325 260.875 347.02814Q260.875 347.71564 260.48438 348.325Q260.09375 348.91876 259.35938 349.2625Q258.625 349.59064 257.70312 349.59064Q256.53125 349.59064 255.73438 349.2625Q254.95312 348.91876 254.5 348.23126Q254.0625 347.54376 254.04688 346.6844ZM266.54688 347.45L267.64062 347.575Q267.39062 348.52814 266.6875 349.0594Q265.98438 349.59064 264.90625 349.59064Q263.54688 349.59064 262.73438 348.7469Q261.9375 347.90314 261.9375 346.3875Q261.9375 344.825 262.75 343.96564Q263.5625 343.09064 264.84375 343.09064Q266.09375 343.09064 266.875 343.9344Q267.67188 344.77814 267.67188 346.325Q267.67188 346.41876 267.67188 346.60626L263.03125 346.60626Q263.09375 347.6375 263.60938 348.1844Q264.125 348.71564 264.90625 348.71564Q265.48438 348.71564 265.89062 348.41876Q266.3125 348.10626 266.54688 347.45ZM263.09375 345.7469L266.5625 345.7469Q266.5 344.95 266.17188 344.5594Q265.65625 343.95 264.85938 343.95Q264.125 343.95 263.625 344.4344Q263.14062 344.91876 263.09375 345.7469ZM269.29688 349.45L269.29688 343.23126L270.23438 343.23126L270.23438 344.10626Q270.92188 343.09064 272.21875 343.09064Q272.78125 343.09064 273.25 343.29376Q273.73438 343.4969 273.96875 343.825Q274.20312 344.15314 274.29688 344.59064Q274.34375 344.8875 274.34375 345.6219L274.34375 349.45L273.29688 349.45L273.29688 345.66876Q273.29688 345.0125 273.17188 344.7Q273.04688 344.3875 272.73438 344.2Q272.42188 343.9969 272.0 343.9969Q271.32812 343.9969 270.82812 344.4344Q270.34375 344.85626 270.34375 346.04376L270.34375 349.45L269.29688 349.45ZM280.32812 349.45L280.32812 348.66876Q279.73438 349.59064 278.59375 349.59064Q277.84375 349.59064 277.21875 349.1844Q276.59375 348.7625 276.25 348.02814Q275.90625 347.29376 275.90625 346.34064Q275.90625 345.41876 276.21875 344.65314Q276.53125 343.8875 277.15625 343.4969Q277.78125 343.09064 278.54688 343.09064Q279.10938 343.09064 279.54688 343.325Q279.98438 343.5594 280.26562 343.9344L280.26562 340.85626L281.3125 340.85626L281.3125 349.45L280.32812 349.45ZM277.0 346.34064Q277.0 347.54376 277.5 348.1375Q278.0 348.71564 278.6875 348.71564Q279.375 348.71564 279.85938 348.15314Q280.34375 347.59064 280.34375 346.4344Q280.34375 345.15314 279.84375 344.5594Q279.35938 343.96564 278.64062 343.96564Q277.9375 343.96564 277.46875 344.54376Q277.0 345.10626 277.0 346.34064ZM283.42188 349.45L283.42188 340.85626L286.39062 340.85626Q287.39062 340.85626 287.92188 340.98126Q288.65625 341.15314 289.17188 341.59064Q289.85938 342.16876 290.1875 343.075Q290.53125 343.96564 290.53125 345.10626Q290.53125 346.09064 290.29688 346.84064Q290.07812 347.59064 289.71875 348.09064Q289.35938 348.59064 288.92188 348.8719Q288.5 349.15314 287.90625 349.3094Q287.3125 349.45 286.53125 349.45L283.42188 349.45ZM284.5625 348.4344L286.39062 348.4344Q287.25 348.4344 287.73438 348.27814Q288.21875 348.1219 288.5 347.825Q288.90625 347.4344 289.125 346.7469Q289.35938 346.0594 289.35938 345.09064Q289.35938 343.7469 288.90625 343.02814Q288.46875 342.29376 287.84375 342.04376Q287.375 341.8719 286.375 341.8719L284.5625 341.8719L284.5625 348.4344ZM296.35938 348.6844Q295.76562 349.1844 295.21875 349.3875Q294.6875 349.59064 294.0625 349.59064Q293.03125 349.59064 292.48438 349.09064Q291.9375 348.59064 291.9375 347.8094Q291.9375 347.35626 292.14062 346.98126Q292.34375 346.59064 292.6875 346.3719Q293.03125 346.1375 293.45312 346.02814Q293.75 345.9344 294.39062 345.85626Q295.65625 345.71564 296.26562 345.4969Q296.26562 345.27814 296.26562 345.23126Q296.26562 344.575 295.96875 344.3094Q295.5625 343.96564 294.76562 343.96564Q294.03125 343.96564 293.67188 344.23126Q293.3125 344.48126 293.14062 345.1375L292.10938 344.9969Q292.25 344.34064 292.57812 343.9344Q292.90625 343.52814 293.51562 343.3094Q294.125 343.09064 294.92188 343.09064Q295.71875 343.09064 296.21875 343.27814Q296.71875 343.46564 296.95312 343.7469Q297.1875 344.02814 297.28125 344.46564Q297.32812 344.73126 297.32812 345.4344L297.32812 346.84064Q297.32812 348.3094 297.39062 348.7Q297.46875 349.09064 297.67188 349.45L296.5625 349.45Q296.40625 349.1219 296.35938 348.6844ZM296.26562 346.325Q295.6875 346.5594 294.54688 346.73126Q293.89062 346.825 293.625 346.95Q293.35938 347.0594 293.20312 347.27814Q293.0625 347.4969 293.0625 347.77814Q293.0625 348.2 293.375 348.48126Q293.70312 348.7625 294.3125 348.7625Q294.92188 348.7625 295.39062 348.4969Q295.875 348.23126 296.09375 347.7625Q296.26562 347.40314 296.26562 346.71564L296.26562 346.325ZM301.59375 348.5125L301.75 349.4344Q301.29688 349.52814 300.95312 349.52814Q300.375 349.52814 300.0625 349.35626Q299.75 349.16876 299.60938 348.8719Q299.48438 348.575 299.48438 347.6219L299.48438 344.04376L298.71875 344.04376L298.71875 343.23126L299.48438 343.23126L299.48438 341.6844L300.53125 341.0594L300.53125 343.23126L301.59375 343.23126L301.59375 344.04376L300.53125 344.04376L300.53125 347.6844Q300.53125 348.1375 300.57812 348.2625Q300.64062 348.3875 300.76562 348.46564Q300.89062 348.54376 301.125 348.54376Q301.3125 348.54376 301.59375 348.5125ZM306.35938 348.6844Q305.76562 349.1844 305.21875 349.3875Q304.6875 349.59064 304.0625 349.59064Q303.03125 349.59064 302.48438 349.09064Q301.9375 348.59064 301.9375 347.8094Q301.9375 347.35626 302.14062 346.98126Q302.34375 346.59064 302.6875 346.3719Q303.03125 346.1375 303.45312 346.02814Q303.75 345.9344 304.39062 345.85626Q305.65625 345.71564 306.26562 345.4969Q306.26562 345.27814 306.26562 345.23126Q306.26562 344.575 305.96875 344.3094Q305.5625 343.96564 304.76562 343.96564Q304.03125 343.96564 303.67188 344.23126Q303.3125 344.48126 303.14062 345.1375L302.10938 344.9969Q302.25 344.34064 302.57812 343.9344Q302.90625 343.52814 303.51562 343.3094Q304.125 343.09064 304.92188 343.09064Q305.71875 343.09064 306.21875 343.27814Q306.71875 343.46564 306.95312 343.7469Q307.1875 344.02814 307.28125 344.46564Q307.32812 344.73126 307.32812 345.4344L307.32812 346.84064Q307.32812 348.3094 307.39062 348.7Q307.46875 349.09064 307.67188 349.45L306.5625 349.45Q306.40625 349.1219 306.35938 348.6844ZM306.26562 346.325Q305.6875 346.5594 304.54688 346.73126Q303.89062 346.825 303.625 346.95Q303.35938 347.0594 303.20312 347.27814Q303.0625 347.4969 303.0625 347.77814Q303.0625 348.2 303.375 348.48126Q303.70312 348.7625 304.3125 348.7625Q304.92188 348.7625 305.39062 348.4969Q305.875 348.23126 306.09375 347.7625Q306.26562 347.40314 306.26562 346.71564L306.26562 346.325ZM312.20312 342.91876Q312.20312 341.9969 312.65625 341.35626Q313.125 340.71564 314.0 340.71564Q314.8125 340.71564 315.34375 341.29376Q315.875 341.8719 315.875 342.98126Q315.875 344.075 315.32812 344.66876Q314.79688 345.2469 314.01562 345.2469Q313.23438 345.2469 312.71875 344.66876Q312.20312 344.09064 312.20312 342.91876ZM314.03125 341.4344Q313.64062 341.4344 313.375 341.77814Q313.125 342.1219 313.125 343.02814Q313.125 343.85626 313.375 344.2Q313.64062 344.52814 314.03125 344.52814Q314.4375 344.52814 314.6875 344.1844Q314.95312 343.84064 314.95312 342.95Q314.95312 342.10626 314.6875 341.77814Q314.42188 341.4344 314.03125 341.4344ZM314.03125 349.7625L318.73438 340.71564L319.59375 340.71564L314.90625 349.7625L314.03125 349.7625ZM317.75 347.4344Q317.75 346.5125 318.20312 345.8719Q318.67188 345.23126 319.5625 345.23126Q320.375 345.23126 320.90625 345.8094Q321.4375 346.3719 321.4375 347.4969Q321.4375 348.59064 320.89062 349.1844Q320.35938 349.7625 319.5625 349.7625Q318.79688 349.7625 318.26562 349.1844Q317.75 348.60626 317.75 347.4344ZM319.59375 345.95Q319.1875 345.95 318.92188 346.29376Q318.67188 346.6375 318.67188 347.54376Q318.67188 348.35626 318.9375 348.7Q319.20312 349.04376 319.59375 349.04376Q319.98438 349.04376 320.25 348.7Q320.51562 348.35626 320.51562 347.45Q320.51562 346.6219 320.25 346.29376Q319.98438 345.95 319.59375 345.95ZM326.45312 349.45L326.45312 340.85626L332.65625 340.85626L332.65625 341.8719L327.59375 341.8719L327.59375 344.4969L332.34375 344.4969L332.34375 345.5125L327.59375 345.5125L327.59375 348.4344L332.85938 348.4344L332.85938 349.45L326.45312 349.45ZM333.59375 349.45L335.85938 346.21564L333.76562 343.23126L335.07812 343.23126L336.03125 344.6844Q336.29688 345.10626 336.46875 345.3875Q336.71875 344.9969 336.9375 344.7L337.98438 343.23126L339.25 343.23126L337.09375 346.15314L339.40625 349.45L338.125 349.45L336.84375 347.5125L336.5 346.9969L334.85938 349.45L333.59375 349.45ZM339.29688 351.84064L339.29688 343.23126L340.25 343.23126L340.25 344.02814Q340.59375 343.5594 341.01562 343.325Q341.45312 343.09064 342.0625 343.09064Q342.85938 343.09064 343.46875 343.4969Q344.07812 343.90314 344.375 344.65314Q344.6875 345.40314 344.6875 346.29376Q344.6875 347.2469 344.34375 348.0125Q344.01562 348.77814 343.35938 349.1844Q342.70312 349.59064 341.98438 349.59064Q341.45312 349.59064 341.03125 349.3719Q340.60938 349.1375 340.34375 348.8094L340.34375 351.84064L339.29688 351.84064ZM340.25 346.3719Q340.25 347.575 340.73438 348.15314Q341.21875 348.71564 341.90625 348.71564Q342.60938 348.71564 343.10938 348.1219Q343.60938 347.52814 343.60938 346.27814Q343.60938 345.09064 343.125 344.5125Q342.64062 343.91876 341.95312 343.91876Q341.28125 343.91876 340.76562 344.54376Q340.25 345.16876 340.25 346.3719ZM346.26562 349.45L346.26562 340.85626L347.32812 340.85626L347.32812 349.45L346.26562 349.45ZM348.90625 346.34064Q348.90625 344.60626 349.85938 343.77814Q350.65625 343.09064 351.8125 343.09064Q353.09375 343.09064 353.90625 343.9344Q354.73438 344.7625 354.73438 346.2469Q354.73438 347.45 354.375 348.1375Q354.01562 348.825 353.3125 349.21564Q352.625 349.59064 351.8125 349.59064Q350.51562 349.59064 349.70312 348.7625Q348.90625 347.91876 348.90625 346.34064ZM349.98438 346.34064Q349.98438 347.52814 350.5 348.1219Q351.03125 348.71564 351.8125 348.71564Q352.60938 348.71564 353.125 348.1219Q353.64062 347.52814 353.64062 346.3094Q353.64062 345.15314 353.10938 344.5594Q352.59375 343.96564 351.8125 343.96564Q351.03125 343.96564 350.5 344.5594Q349.98438 345.1375 349.98438 346.34064ZM356.28125 349.45L356.28125 343.23126L357.23438 343.23126L357.23438 344.16876Q357.59375 343.5125 357.89062 343.3094Q358.20312 343.09064 358.57812 343.09064Q359.10938 343.09064 359.65625 343.41876L359.29688 344.40314Q358.90625 344.16876 358.53125 344.16876Q358.17188 344.16876 357.89062 344.3875Q357.625 344.59064 357.51562 344.96564Q357.32812 345.52814 357.32812 346.1844L357.32812 349.45L356.28125 349.45ZM364.54688 347.45L365.64062 347.575Q365.39062 348.52814 364.6875 349.0594Q363.98438 349.59064 362.90625 349.59064Q361.54688 349.59064 360.73438 348.7469Q359.9375 347.90314 359.9375 346.3875Q359.9375 344.825 360.75 343.96564Q361.5625 343.09064 362.84375 343.09064Q364.09375 343.09064 364.875 343.9344Q365.67188 344.77814 365.67188 346.325Q365.67188 346.41876 365.67188 346.60626L361.03125 346.60626Q361.09375 347.6375 361.60938 348.1844Q362.125 348.71564 362.90625 348.71564Q363.48438 348.71564 363.89062 348.41876Q364.3125 348.10626 364.54688 347.45ZM361.09375 345.7469L364.5625 345.7469Q364.5 344.95 364.17188 344.5594Q363.65625 343.95 362.85938 343.95Q362.125 343.95 361.625 344.4344Q361.14062 344.91876 361.09375 345.7469ZM371.32812 349.45L371.32812 348.66876Q370.73438 349.59064 369.59375 349.59064Q368.84375 349.59064 368.21875 349.1844Q367.59375 348.7625 367.25 348.02814Q366.90625 347.29376 366.90625 346.34064Q366.90625 345.41876 367.21875 344.65314Q367.53125 343.8875 368.15625 343.4969Q368.78125 343.09064 369.54688 343.09064Q370.10938 343.09064 370.54688 343.325Q370.98438 343.5594 371.26562 343.9344L371.26562 340.85626L372.3125 340.85626L372.3125 349.45L371.32812 349.45ZM368.0 346.34064Q368.0 347.54376 368.5 348.1375Q369.0 348.71564 369.6875 348.71564Q370.375 348.71564 370.85938 348.15314Q371.34375 347.59064 371.34375 346.4344Q371.34375 345.15314 370.84375 344.5594Q370.35938 343.96564 369.64062 343.96564Q368.9375 343.96564 368.46875 344.54376Q368.0 345.10626 368.0 346.34064Z" fill-rule="nonzero"/><path fill="#000000" d="M430.1177 349.45L433.41458 340.85626L434.63333 340.85626L438.14896 349.45L436.8677 349.45L435.85208 346.84064L432.27396 346.84064L431.32083 349.45L430.1177 349.45ZM432.60208 345.91876L435.50833 345.91876L434.6177 343.54376Q434.19583 342.46564 434.00833 341.7625Q433.83646 342.59064 433.53958 343.40314L432.60208 345.91876ZM441.96146 349.45L441.96146 348.66876Q441.3677 349.59064 440.22708 349.59064Q439.47708 349.59064 438.85208 349.1844Q438.22708 348.7625 437.88333 348.02814Q437.53958 347.29376 437.53958 346.34064Q437.53958 345.41876 437.85208 344.65314Q438.16458 343.8875 438.78958 343.4969Q439.41458 343.09064 440.1802 343.09064Q440.7427 343.09064 441.1802 343.325Q441.6177 343.5594 441.89896 343.9344L441.89896 340.85626L442.94583 340.85626L442.94583 349.45L441.96146 349.45ZM438.63333 346.34064Q438.63333 347.54376 439.13333 348.1375Q439.63333 348.71564 440.32083 348.71564Q441.00833 348.71564 441.4927 348.15314Q441.97708 347.59064 441.97708 346.4344Q441.97708 345.15314 441.47708 344.5594Q440.9927 343.96564 440.27396 343.96564Q439.57083 343.96564 439.10208 344.54376Q438.63333 345.10626 438.63333 346.34064ZM444.91458 342.09064L444.91458 340.85626L445.97708 340.85626L445.97708 342.09064L444.91458 342.09064ZM443.58646 351.8719L443.77396 350.96564Q444.10208 351.04376 444.27396 351.04376Q444.60208 351.04376 444.75833 350.825Q444.91458 350.6219 444.91458 349.7625L444.91458 343.23126L445.97708 343.23126L445.97708 349.79376Q445.97708 350.9344 445.6802 351.3875Q445.28958 351.98126 444.41458 351.98126Q443.97708 351.98126 443.58646 351.8719ZM452.00833 349.45L452.00833 348.52814Q451.27396 349.59064 450.02396 349.59064Q449.47708 349.59064 448.9927 349.3875Q448.52396 349.16876 448.28958 348.85626Q448.0552 348.52814 447.96146 348.0594Q447.89896 347.7625 447.89896 347.075L447.89896 343.23126L448.96146 343.23126L448.96146 346.6844Q448.96146 347.4969 449.02396 347.79376Q449.1177 348.2 449.4302 348.45Q449.75833 348.6844 450.2427 348.6844Q450.71146 348.6844 451.1177 348.45Q451.53958 348.2 451.71146 347.77814Q451.89896 347.35626 451.89896 346.5594L451.89896 343.23126L452.94583 343.23126L452.94583 349.45L452.00833 349.45ZM454.50833 347.59064L455.53958 347.4344Q455.63333 348.0594 456.02396 348.3875Q456.4302 348.71564 457.16458 348.71564Q457.88333 348.71564 458.22708 348.4344Q458.58646 348.1375 458.58646 347.73126Q458.58646 347.3719 458.27396 347.16876Q458.0552 347.02814 457.19583 346.8094Q456.03958 346.5125 455.58646 346.3094Q455.14896 346.09064 454.91458 345.71564Q454.6802 345.34064 454.6802 344.8719Q454.6802 344.46564 454.8677 344.10626Q455.0552 343.7469 455.38333 343.5125Q455.63333 343.34064 456.0552 343.21564Q456.47708 343.09064 456.97708 343.09064Q457.69583 343.09064 458.2427 343.3094Q458.8052 343.5125 459.07083 343.8719Q459.33646 344.23126 459.4302 344.825L458.39896 344.96564Q458.33646 344.4969 457.9927 344.23126Q457.66458 343.95 457.03958 343.95Q456.32083 343.95 456.00833 344.2Q455.69583 344.4344 455.69583 344.7625Q455.69583 344.96564 455.82083 345.1219Q455.96146 345.29376 456.22708 345.40314Q456.38333 345.46564 457.16458 345.66876Q458.28958 345.98126 458.72708 346.16876Q459.16458 346.35626 459.41458 346.71564Q459.66458 347.075 459.66458 347.6219Q459.66458 348.15314 459.35208 348.6219Q459.0552 349.075 458.47708 349.34064Q457.89896 349.59064 457.16458 349.59064Q455.94583 349.59064 455.3052 349.09064Q454.6802 348.575 454.50833 347.59064ZM464.22708 348.5125L464.38333 349.4344Q463.9302 349.52814 463.58646 349.52814Q463.00833 349.52814 462.69583 349.35626Q462.38333 349.16876 462.2427 348.8719Q462.1177 348.575 462.1177 347.6219L462.1177 344.04376L461.35208 344.04376L461.35208 343.23126L462.1177 343.23126L462.1177 341.6844L463.16458 341.0594L463.16458 343.23126L464.22708 343.23126L464.22708 344.04376L463.16458 344.04376L463.16458 347.6844Q463.16458 348.1375 463.21146 348.2625Q463.27396 348.3875 463.39896 348.46564Q463.52396 348.54376 463.75833 348.54376Q463.94583 348.54376 464.22708 348.5125ZM465.0552 349.45L465.0552 340.85626L468.3052 340.85626Q469.14896 340.85626 469.60208 340.9344Q470.2427 341.04376 470.66458 341.34064Q471.10208 341.6375 471.35208 342.16876Q471.6177 342.7 471.6177 343.34064Q471.6177 344.4344 470.91458 345.2Q470.22708 345.95 468.39896 345.95L466.19583 345.95L466.19583 349.45L465.0552 349.45ZM466.19583 344.95L468.41458 344.95Q469.52396 344.95 469.97708 344.54376Q470.44583 344.1219 470.44583 343.3719Q470.44583 342.84064 470.16458 342.46564Q469.89896 342.075 469.46146 341.95Q469.16458 341.8719 468.39896 341.8719L466.19583 341.8719L466.19583 344.95ZM476.9927 348.6844Q476.39896 349.1844 475.85208 349.3875Q475.32083 349.59064 474.69583 349.59064Q473.66458 349.59064 473.1177 349.09064Q472.57083 348.59064 472.57083 347.8094Q472.57083 347.35626 472.77396 346.98126Q472.97708 346.59064 473.32083 346.3719Q473.66458 346.1375 474.08646 346.02814Q474.38333 345.9344 475.02396 345.85626Q476.28958 345.71564 476.89896 345.4969Q476.89896 345.27814 476.89896 345.23126Q476.89896 344.575 476.60208 344.3094Q476.19583 343.96564 475.39896 343.96564Q474.66458 343.96564 474.3052 344.23126Q473.94583 344.48126 473.77396 345.1375L472.7427 344.9969Q472.88333 344.34064 473.21146 343.9344Q473.53958 343.52814 474.14896 343.3094Q474.75833 343.09064 475.5552 343.09064Q476.35208 343.09064 476.85208 343.27814Q477.35208 343.46564 477.58646 343.7469Q477.82083 344.02814 477.91458 344.46564Q477.96146 344.73126 477.96146 345.4344L477.96146 346.84064Q477.96146 348.3094 478.02396 348.7Q478.10208 349.09064 478.3052 349.45L477.19583 349.45Q477.03958 349.1219 476.9927 348.6844ZM476.89896 346.325Q476.32083 346.5594 475.1802 346.73126Q474.52396 346.825 474.25833 346.95Q473.9927 347.0594 473.83646 347.27814Q473.69583 347.4969 473.69583 347.77814Q473.69583 348.2 474.00833 348.48126Q474.33646 348.7625 474.94583 348.7625Q475.5552 348.7625 476.02396 348.4969Q476.50833 348.23126 476.72708 347.7625Q476.89896 347.40314 476.89896 346.71564L476.89896 346.325ZM482.22708 348.5125L482.38333 349.4344Q481.9302 349.52814 481.58646 349.52814Q481.00833 349.52814 480.69583 349.35626Q480.38333 349.16876 480.2427 348.8719Q480.1177 348.575 480.1177 347.6219L480.1177 344.04376L479.35208 344.04376L479.35208 343.23126L480.1177 343.23126L480.1177 341.6844L481.16458 341.0594L481.16458 343.23126L482.22708 343.23126L482.22708 344.04376L481.16458 344.04376L481.16458 347.6844Q481.16458 348.1375 481.21146 348.2625Q481.27396 348.3875 481.39896 348.46564Q481.52396 348.54376 481.75833 348.54376Q481.94583 348.54376 482.22708 348.5125ZM482.9302 349.45L482.9302 340.85626L483.97708 340.85626L483.97708 343.9344Q484.71146 343.09064 485.83646 343.09064Q486.53958 343.09064 487.03958 343.3719Q487.5552 343.6375 487.77396 344.1219Q487.9927 344.59064 487.9927 345.5125L487.9927 349.45L486.94583 349.45L486.94583 345.5125Q486.94583 344.71564 486.60208 344.35626Q486.25833 343.9969 485.63333 343.9969Q485.16458 343.9969 484.7427 344.2469Q484.33646 344.48126 484.14896 344.90314Q483.97708 345.3094 483.97708 346.04376L483.97708 349.45L482.9302 349.45ZM492.83646 342.91876Q492.83646 341.9969 493.28958 341.35626Q493.75833 340.71564 494.63333 340.71564Q495.44583 340.71564 495.97708 341.29376Q496.50833 341.8719 496.50833 342.98126Q496.50833 344.075 495.96146 344.66876Q495.4302 345.2469 494.64896 345.2469Q493.8677 345.2469 493.35208 344.66876Q492.83646 344.09064 492.83646 342.91876ZM494.66458 341.4344Q494.27396 341.4344 494.00833 341.77814Q493.75833 342.1219 493.75833 343.02814Q493.75833 343.85626 494.00833 344.2Q494.27396 344.52814 494.66458 344.52814Q495.07083 344.52814 495.32083 344.1844Q495.58646 343.84064 495.58646 342.95Q495.58646 342.10626 495.32083 341.77814Q495.0552 341.4344 494.66458 341.4344ZM494.66458 349.7625L499.3677 340.71564L500.22708 340.71564L495.53958 349.7625L494.66458 349.7625ZM498.38333 347.4344Q498.38333 346.5125 498.83646 345.8719Q499.3052 345.23126 500.19583 345.23126Q501.00833 345.23126 501.53958 345.8094Q502.07083 346.3719 502.07083 347.4969Q502.07083 348.59064 501.52396 349.1844Q500.9927 349.7625 500.19583 349.7625Q499.4302 349.7625 498.89896 349.1844Q498.38333 348.60626 498.38333 347.4344ZM500.22708 345.95Q499.82083 345.95 499.5552 346.29376Q499.3052 346.6375 499.3052 347.54376Q499.3052 348.35626 499.57083 348.7Q499.83646 349.04376 500.22708 349.04376Q500.6177 349.04376 500.88333 348.7Q501.14896 348.35626 501.14896 347.45Q501.14896 346.6219 500.88333 346.29376Q500.6177 345.95 500.22708 345.95ZM507.08646 349.45L507.08646 340.85626L513.28955 340.85626L513.28955 341.8719L508.22708 341.8719L508.22708 344.4969L512.97705 344.4969L512.97705 345.5125L508.22708 345.5125L508.22708 348.4344L513.4927 348.4344L513.4927 349.45L507.08646 349.45ZM514.22705 349.45L516.4927 346.21564L514.3989 343.23126L515.7114 343.23126L516.66455 344.6844Q516.9302 345.10626 517.10205 345.3875Q517.35205 344.9969 517.5708 344.7L518.6177 343.23126L519.8833 343.23126L517.72705 346.15314L520.03955 349.45L518.7583 349.45L517.47705 347.5125L517.1333 346.9969L515.4927 349.45L514.22705 349.45ZM519.9302 351.84064L519.9302 343.23126L520.8833 343.23126L520.8833 344.02814Q521.22705 343.5594 521.6489 343.325Q522.0864 343.09064 522.6958 343.09064Q523.4927 343.09064 524.10205 343.4969Q524.7114 343.90314 525.0083 344.65314Q525.3208 345.40314 525.3208 346.29376Q525.3208 347.2469 524.97705 348.0125Q524.6489 348.77814 523.9927 349.1844Q523.3364 349.59064 522.6177 349.59064Q522.0864 349.59064 521.66455 349.3719Q521.2427 349.1375 520.97705 348.8094L520.97705 351.84064L519.9302 351.84064ZM520.8833 346.3719Q520.8833 347.575 521.3677 348.15314Q521.85205 348.71564 522.53955 348.71564Q523.2427 348.71564 523.7427 348.1219Q524.2427 347.52814 524.2427 346.27814Q524.2427 345.09064 523.7583 344.5125Q523.2739 343.91876 522.5864 343.91876Q521.91455 343.91876 521.3989 344.54376Q520.8833 345.16876 520.8833 346.3719ZM526.8989 349.45L526.8989 340.85626L527.9614 340.85626L527.9614 349.45L526.8989 349.45ZM529.53955 346.34064Q529.53955 344.60626 530.4927 343.77814Q531.28955 343.09064 532.4458 343.09064Q533.72705 343.09064 534.53955 343.9344Q535.3677 344.7625 535.3677 346.2469Q535.3677 347.45 535.0083 348.1375Q534.6489 348.825 533.9458 349.21564Q533.2583 349.59064 532.4458 349.59064Q531.1489 349.59064 530.3364 348.7625Q529.53955 347.91876 529.53955 346.34064ZM530.6177 346.34064Q530.6177 347.52814 531.1333 348.1219Q531.66455 348.71564 532.4458 348.71564Q533.2427 348.71564 533.7583 348.1219Q534.2739 347.52814 534.2739 346.3094Q534.2739 345.15314 533.7427 344.5594Q533.22705 343.96564 532.4458 343.96564Q531.66455 343.96564 531.1333 344.5594Q530.6177 345.1375 530.6177 346.34064ZM536.91455 349.45L536.91455 343.23126L537.8677 343.23126L537.8677 344.16876Q538.22705 343.5125 538.5239 343.3094Q538.8364 343.09064 539.2114 343.09064Q539.7427 343.09064 540.28955 343.41876L539.9302 344.40314Q539.53955 344.16876 539.16455 344.16876Q538.8052 344.16876 538.5239 344.3875Q538.2583 344.59064 538.1489 344.96564Q537.9614 345.52814 537.9614 346.1844L537.9614 349.45L536.91455 349.45ZM545.1802 347.45L546.2739 347.575Q546.0239 348.52814 545.3208 349.0594Q544.6177 349.59064 543.53955 349.59064Q542.1802 349.59064 541.3677 348.7469Q540.5708 347.90314 540.5708 346.3875Q540.5708 344.825 541.3833 343.96564Q542.1958 343.09064 543.47705 343.09064Q544.72705 343.09064 545.5083 343.9344Q546.3052 344.77814 546.3052 346.325Q546.3052 346.41876 546.3052 346.60626L541.66455 346.60626Q541.72705 347.6375 542.2427 348.1844Q542.7583 348.71564 543.53955 348.71564Q544.1177 348.71564 544.5239 348.41876Q544.9458 348.10626 545.1802 347.45ZM541.72705 345.7469L545.1958 345.7469Q545.1333 344.95 544.8052 344.5594Q544.28955 343.95 543.4927 343.95Q542.7583 343.95 542.2583 344.4344Q541.7739 344.91876 541.72705 345.7469ZM551.9614 349.45L551.9614 348.66876Q551.3677 349.59064 550.22705 349.59064Q549.47705 349.59064 548.85205 349.1844Q548.22705 348.7625 547.8833 348.02814Q547.53955 347.29376 547.53955 346.34064Q547.53955 345.41876 547.85205 344.65314Q548.16455 343.8875 548.78955 343.4969Q549.41455 343.09064 550.1802 343.09064Q550.7427 343.09064 551.1802 343.325Q551.6177 343.5594 551.8989 343.9344L551.8989 340.85626L552.9458 340.85626L552.9458 349.45L551.9614 349.45ZM548.6333 346.34064Q548.6333 347.54376 549.1333 348.1375Q549.6333 348.71564 550.3208 348.71564Q551.0083 348.71564 551.4927 348.15314Q551.97705 347.59064 551.97705 346.4344Q551.97705 345.15314 551.47705 344.5594Q550.9927 343.96564 550.2739 343.96564Q549.5708 343.96564 549.10205 344.54376Q548.6333 345.10626 548.6333 346.34064Z" fill-rule="nonzero"/><path stroke="#4285f4" stroke-width="4.0" stroke-linecap="butt" d="M160.5 61.916668L172.5 61.916668" fill-rule="nonzero"/><path fill="#1a1a1a" d="M181.0 61.68229Q181.0 60.15104 181.3125 59.229164Q181.625 58.291664 182.23438 57.791664Q182.85938 57.291664 183.79688 57.291664Q184.48438 57.291664 185.0 57.572914Q185.53125 57.854164 185.875 58.385414Q186.21875 58.90104 186.40625 59.65104Q186.59375 60.40104 186.59375 61.68229Q186.59375 63.197914 186.28125 64.11979Q185.98438 65.041664 185.35938 65.55729Q184.75 66.05729 183.79688 66.05729Q182.5625 66.05729 181.84375 65.166664Q181.0 64.104164 181.0 61.68229ZM182.07812 61.68229Q182.07812 63.791664 182.57812 64.49479Q183.07812 65.197914 183.79688 65.197914Q184.53125 65.197914 185.01562 64.49479Q185.51562 63.791664 185.51562 61.68229Q185.51562 59.55729 185.01562 58.86979Q184.53125 58.166664 183.78125 58.166664Q183.0625 58.166664 182.625 58.77604Q182.07812 59.55729 182.07812 61.68229ZM188.59375 65.916664L188.59375 64.71354L189.79688 64.71354L189.79688 65.916664L188.59375 65.916664ZM191.0 63.666664L192.10938 63.572914Q192.23438 64.385414 192.67188 64.791664Q193.125 65.197914 193.76562 65.197914Q194.51562 65.197914 195.04688 64.61979Q195.57812 64.041664 195.57812 63.104164Q195.57812 62.197914 195.0625 61.68229Q194.5625 61.15104 193.73438 61.15104Q193.23438 61.15104 192.8125 61.385414Q192.40625 61.61979 192.17188 61.979164L191.1875 61.854164L192.01562 57.447914L196.29688 57.447914L196.29688 58.447914L192.85938 58.447914L192.40625 60.760414Q193.17188 60.21354 194.01562 60.21354Q195.14062 60.21354 195.90625 60.99479Q196.6875 61.77604 196.6875 63.010414Q196.6875 64.166664 196.01562 65.02604Q195.1875 66.05729 193.76562 66.05729Q192.59375 66.05729 191.84375 65.40104Q191.10938 64.74479 191.0 63.666664ZM201.04688 63.15104L202.10938 63.05729Q202.1875 63.71354 202.46875 64.11979Q202.75 64.52604 203.32812 64.791664Q203.92188 65.041664 204.65625 65.041664Q205.29688 65.041664 205.79688 64.854164Q206.29688 64.65104 206.53125 64.322914Q206.78125 63.979164 206.78125 63.58854Q206.78125 63.18229 206.54688 62.885414Q206.3125 62.572914 205.78125 62.36979Q205.42188 62.229164 204.23438 61.947914Q203.0625 61.666664 202.59375 61.416664Q201.96875 61.08854 201.67188 60.61979Q201.375 60.135414 201.375 59.541664Q201.375 58.90104 201.73438 58.33854Q202.10938 57.760414 202.8125 57.479164Q203.53125 57.18229 204.39062 57.18229Q205.34375 57.18229 206.07812 57.49479Q206.8125 57.791664 207.20312 58.40104Q207.59375 58.99479 207.625 59.74479L206.53125 59.822914Q206.4375 59.010414 205.92188 58.604164Q205.42188 58.18229 204.4375 58.18229Q203.40625 58.18229 202.9375 58.55729Q202.46875 58.93229 202.46875 59.46354Q202.46875 59.93229 202.79688 60.229164Q203.125 60.52604 204.5 60.83854Q205.89062 61.15104 206.40625 61.385414Q207.15625 61.74479 207.51562 62.27604Q207.875 62.791664 207.875 63.49479Q207.875 64.18229 207.48438 64.791664Q207.09375 65.385414 206.35938 65.729164Q205.625 66.05729 204.70312 66.05729Q203.53125 66.05729 202.73438 65.729164Q201.95312 65.385414 201.5 64.697914Q201.0625 64.010414 201.04688 63.15104ZM213.54688 63.916664L214.64062 64.041664Q214.39062 64.99479 213.6875 65.52604Q212.98438 66.05729 211.90625 66.05729Q210.54688 66.05729 209.73438 65.21354Q208.9375 64.36979 208.9375 62.854164Q208.9375 61.291664 209.75 60.43229Q210.5625 59.55729 211.84375 59.55729Q213.09375 59.55729 213.875 60.40104Q214.67188 61.24479 214.67188 62.791664Q214.67188 62.885414 214.67188 63.072914L210.03125 63.072914Q210.09375 64.104164 210.60938 64.65104Q211.125 65.18229 211.90625 65.18229Q212.48438 65.18229 212.89062 64.885414Q213.3125 64.572914 213.54688 63.916664ZM210.09375 62.21354L213.5625 62.21354Q213.5 61.416664 213.17188 61.02604Q212.65625 60.416664 211.85938 60.416664Q211.125 60.416664 210.625 60.90104Q210.14062 61.385414 210.09375 62.21354ZM220.35938 63.635414L221.39062 63.77604Q221.21875 64.83854 220.51562 65.447914Q219.8125 66.05729 218.79688 66.05729Q217.51562 66.05729 216.73438 65.229164Q215.96875 64.385414 215.96875 62.822914Q215.96875 61.822914 216.29688 61.072914Q216.64062 60.30729 217.3125 59.93229Q218.0 59.55729 218.8125 59.55729Q219.8125 59.55729 220.45312 60.072914Q221.10938 60.572914 221.29688 61.52604L220.26562 61.68229Q220.125 61.05729 219.75 60.74479Q219.375 60.416664 218.84375 60.416664Q218.04688 60.416664 217.54688 60.99479Q217.04688 61.55729 217.04688 62.791664Q217.04688 64.05729 217.53125 64.61979Q218.01562 65.18229 218.78125 65.18229Q219.40625 65.18229 219.8125 64.80729Q220.23438 64.43229 220.35938 63.635414ZM221.90625 62.80729Q221.90625 61.072914 222.85938 60.24479Q223.65625 59.55729 224.8125 59.55729Q226.09375 59.55729 226.90625 60.40104Q227.73438 61.229164 227.73438 62.71354Q227.73438 63.916664 227.375 64.604164Q227.01562 65.291664 226.3125 65.68229Q225.625 66.05729 224.8125 66.05729Q223.51562 66.05729 222.70312 65.229164Q221.90625 64.385414 221.90625 62.80729ZM222.98438 62.80729Q222.98438 63.99479 223.5 64.58854Q224.03125 65.18229 224.8125 65.18229Q225.60938 65.18229 226.125 64.58854Q226.64062 63.99479 226.64062 62.77604Q226.64062 61.61979 226.10938 61.02604Q225.59375 60.43229 224.8125 60.43229Q224.03125 60.43229 223.5 61.02604Q222.98438 61.604164 222.98438 62.80729ZM229.29688 65.916664L229.29688 59.697914L230.23438 59.697914L230.23438 60.572914Q230.92188 59.55729 232.21875 59.55729Q232.78125 59.55729 233.25 59.760414Q233.73438 59.96354 233.96875 60.291664Q234.20312 60.61979 234.29688 61.05729Q234.34375 61.354164 234.34375 62.08854L234.34375 65.916664L233.29688 65.916664L233.29688 62.135414Q233.29688 61.479164 233.17188 61.166664Q233.04688 60.854164 232.73438 60.666664Q232.42188 60.46354 232.0 60.46354Q231.32812 60.46354 230.82812 60.90104Q230.34375 61.322914 230.34375 62.510414L230.34375 65.916664L229.29688 65.916664ZM240.32812 65.916664L240.32812 65.135414Q239.73438 66.05729 238.59375 66.05729Q237.84375 66.05729 237.21875 65.65104Q236.59375 65.229164 236.25 64.49479Q235.90625 63.760414 235.90625 62.80729Q235.90625 61.885414 236.21875 61.11979Q236.53125 60.354164 237.15625 59.96354Q237.78125 59.55729 238.54688 59.55729Q239.10938 59.55729 239.54688 59.791664Q239.98438 60.02604 240.26562 60.40104L240.26562 57.322914L241.3125 57.322914L241.3125 65.916664L240.32812 65.916664ZM237.0 62.80729Q237.0 64.010414 237.5 64.604164Q238.0 65.18229 238.6875 65.18229Q239.375 65.18229 239.85938 64.61979Q240.34375 64.05729 240.34375 62.90104Q240.34375 61.61979 239.84375 61.02604Q239.35938 60.43229 238.64062 60.43229Q237.9375 60.43229 237.46875 61.010414Q237.0 61.572914 237.0 62.80729Z" fill-rule="nonzero"/><path stroke="#ea4335" stroke-width="4.0" stroke-linecap="butt" d="M258.5 61.916668L270.5 61.916668" fill-rule="nonzero"/><path fill="#1a1a1a" d="M279.0 63.65104L280.0625 63.510414Q280.23438 64.40104 280.67188 64.80729Q281.10938 65.197914 281.73438 65.197914Q282.48438 65.197914 283.0 64.68229Q283.51562 64.166664 283.51562 63.40104Q283.51562 62.68229 283.03125 62.21354Q282.5625 61.729164 281.82812 61.729164Q281.53125 61.729164 281.07812 61.854164L281.20312 60.916664Q281.3125 60.93229 281.375 60.93229Q282.04688 60.93229 282.57812 60.58854Q283.125 60.229164 283.125 59.49479Q283.125 58.916664 282.73438 58.541664Q282.34375 58.15104 281.71875 58.15104Q281.10938 58.15104 280.6875 58.541664Q280.28125 58.93229 280.17188 59.697914L279.10938 59.510414Q279.29688 58.46354 279.98438 57.885414Q280.67188 57.291664 281.6875 57.291664Q282.39062 57.291664 282.98438 57.604164Q283.57812 57.90104 283.89062 58.416664Q284.20312 58.93229 284.20312 59.52604Q284.20312 60.072914 283.90625 60.541664Q283.60938 60.99479 283.03125 61.260414Q283.78125 61.43229 284.20312 61.99479Q284.625 62.541664 284.625 63.385414Q284.625 64.510414 283.79688 65.291664Q282.98438 66.072914 281.73438 66.072914Q280.60938 66.072914 279.85938 65.40104Q279.10938 64.71354 279.0 63.65104ZM289.04688 63.15104L290.10938 63.05729Q290.1875 63.71354 290.46875 64.11979Q290.75 64.52604 291.32812 64.791664Q291.92188 65.041664 292.65625 65.041664Q293.29688 65.041664 293.79688 64.854164Q294.29688 64.65104 294.53125 64.322914Q294.78125 63.979164 294.78125 63.58854Q294.78125 63.18229 294.54688 62.885414Q294.3125 62.572914 293.78125 62.36979Q293.42188 62.229164 292.23438 61.947914Q291.0625 61.666664 290.59375 61.416664Q289.96875 61.08854 289.67188 60.61979Q289.375 60.135414 289.375 59.541664Q289.375 58.90104 289.73438 58.33854Q290.10938 57.760414 290.8125 57.479164Q291.53125 57.18229 292.39062 57.18229Q293.34375 57.18229 294.07812 57.49479Q294.8125 57.791664 295.20312 58.40104Q295.59375 58.99479 295.625 59.74479L294.53125 59.822914Q294.4375 59.010414 293.92188 58.604164Q293.42188 58.18229 292.4375 58.18229Q291.40625 58.18229 290.9375 58.55729Q290.46875 58.93229 290.46875 59.46354Q290.46875 59.93229 290.79688 60.229164Q291.125 60.52604 292.5 60.83854Q293.89062 61.15104 294.40625 61.385414Q295.15625 61.74479 295.51562 62.27604Q295.875 62.791664 295.875 63.49479Q295.875 64.18229 295.48438 64.791664Q295.09375 65.385414 294.35938 65.729164Q293.625 66.05729 292.70312 66.05729Q291.53125 66.05729 290.73438 65.729164Q289.95312 65.385414 289.5 64.697914Q289.0625 64.010414 289.04688 63.15104ZM301.54688 63.916664L302.64062 64.041664Q302.39062 64.99479 301.6875 65.52604Q300.98438 66.05729 299.90625 66.05729Q298.54688 66.05729 297.73438 65.21354Q296.9375 64.36979 296.9375 62.854164Q296.9375 61.291664 297.75 60.43229Q298.5625 59.55729 299.84375 59.55729Q301.09375 59.55729 301.875 60.40104Q302.67188 61.24479 302.67188 62.791664Q302.67188 62.885414 302.67188 63.072914L298.03125 63.072914Q298.09375 64.104164 298.60938 64.65104Q299.125 65.18229 299.90625 65.18229Q300.48438 65.18229 300.89062 64.885414Q301.3125 64.572914 301.54688 63.916664ZM298.09375 62.21354L301.5625 62.21354Q301.5 61.416664 301.17188 61.02604Q300.65625 60.416664 299.85938 60.416664Q299.125 60.416664 298.625 60.90104Q298.14062 61.385414 298.09375 62.21354ZM308.35938 63.635414L309.39062 63.77604Q309.21875 64.83854 308.51562 65.447914Q307.8125 66.05729 306.79688 66.05729Q305.51562 66.05729 304.73438 65.229164Q303.96875 64.385414 303.96875 62.822914Q303.96875 61.822914 304.29688 61.072914Q304.64062 60.30729 305.3125 59.93229Q306.0 59.55729 306.8125 59.55729Q307.8125 59.55729 308.45312 60.072914Q309.10938 60.572914 309.29688 61.52604L308.26562 61.68229Q308.125 61.05729 307.75 60.74479Q307.375 60.416664 306.84375 60.416664Q306.04688 60.416664 305.54688 60.99479Q305.04688 61.55729 305.04688 62.791664Q305.04688 64.05729 305.53125 64.61979Q306.01562 65.18229 306.78125 65.18229Q307.40625 65.18229 307.8125 64.80729Q308.23438 64.43229 308.35938 63.635414ZM309.90625 62.80729Q309.90625 61.072914 310.85938 60.24479Q311.65625 59.55729 312.8125 59.55729Q314.09375 59.55729 314.90625 60.40104Q315.73438 61.229164 315.73438 62.71354Q315.73438 63.916664 315.375 64.604164Q315.01562 65.291664 314.3125 65.68229Q313.625 66.05729 312.8125 66.05729Q311.51562 66.05729 310.70312 65.229164Q309.90625 64.385414 309.90625 62.80729ZM310.98438 62.80729Q310.98438 63.99479 311.5 64.58854Q312.03125 65.18229 312.8125 65.18229Q313.60938 65.18229 314.125 64.58854Q314.64062 63.99479 314.64062 62.77604Q314.64062 61.61979 314.10938 61.02604Q313.59375 60.43229 312.8125 60.43229Q312.03125 60.43229 311.5 61.02604Q310.98438 61.604164 310.98438 62.80729ZM317.29688 65.916664L317.29688 59.697914L318.23438 59.697914L318.23438 60.572914Q318.92188 59.55729 320.21875 59.55729Q320.78125 59.55729 321.25 59.760414Q321.73438 59.96354 321.96875 60.291664Q322.20312 60.61979 322.29688 61.05729Q322.34375 61.354164 322.34375 62.08854L322.34375 65.916664L321.29688 65.916664L321.29688 62.135414Q321.29688 61.479164 321.17188 61.166664Q321.04688 60.854164 320.73438 60.666664Q320.42188 60.46354 320.0 60.46354Q319.32812 60.46354 318.82812 60.90104Q318.34375 61.322914 318.34375 62.510414L318.34375 65.916664L317.29688 65.916664ZM328.32812 65.916664L328.32812 65.135414Q327.73438 66.05729 326.59375 66.05729Q325.84375 66.05729 325.21875 65.65104Q324.59375 65.229164 324.25 64.49479Q323.90625 63.760414 323.90625 62.80729Q323.90625 61.885414 324.21875 61.11979Q324.53125 60.354164 325.15625 59.96354Q325.78125 59.55729 326.54688 59.55729Q327.10938 59.55729 327.54688 59.791664Q327.98438 60.02604 328.26562 60.40104L328.26562 57.322914L329.3125 57.322914L329.3125 65.916664L328.32812 65.916664ZM325.0 62.80729Q325.0 64.010414 325.5 64.604164Q326.0 65.18229 326.6875 65.18229Q327.375 65.18229 327.85938 64.61979Q328.34375 64.05729 328.34375 62.90104Q328.34375 61.61979 327.84375 61.02604Q327.35938 60.43229 326.64062 60.43229Q325.9375 60.43229 325.46875 61.010414Q325.0 61.572914 325.0 62.80729ZM330.875 64.05729L331.90625 63.90104Q332.0 64.52604 332.39062 64.854164Q332.79688 65.18229 333.53125 65.18229Q334.25 65.18229 334.59375 64.90104Q334.95312 64.604164 334.95312 64.197914Q334.95312 63.83854 334.64062 63.635414Q334.42188 63.49479 333.5625 63.27604Q332.40625 62.979164 331.95312 62.77604Q331.51562 62.55729 331.28125 62.18229Q331.04688 61.80729 331.04688 61.33854Q331.04688 60.93229 331.23438 60.572914Q331.42188 60.21354 331.75 59.979164Q332.0 59.80729 332.42188 59.68229Q332.84375 59.55729 333.34375 59.55729Q334.0625 59.55729 334.60938 59.77604Q335.17188 59.979164 335.4375 60.33854Q335.70312 60.697914 335.79688 61.291664L334.76562 61.43229Q334.70312 60.96354 334.35938 60.697914Q334.03125 60.416664 333.40625 60.416664Q332.6875 60.416664 332.375 60.666664Q332.0625 60.90104 332.0625 61.229164Q332.0625 61.43229 332.1875 61.58854Q332.32812 61.760414 332.59375 61.86979Q332.75 61.93229 333.53125 62.135414Q334.65625 62.447914 335.09375 62.635414Q335.53125 62.822914 335.78125 63.18229Q336.03125 63.541664 336.03125 64.08854Q336.03125 64.61979 335.71875 65.08854Q335.42188 65.541664 334.84375 65.80729Q334.26562 66.05729 333.53125 66.05729Q332.3125 66.05729 331.67188 65.55729Q331.04688 65.041664 330.875 64.05729Z" fill-rule="nonzero"/><path stroke="#fbbc04" stroke-width="4.0" stroke-linecap="butt" d="M353.5 61.916668L365.5 61.916668" fill-rule="nonzero"/><path fill="#1a1a1a" d="M377.96875 65.916664L376.92188 65.916664L376.92188 59.197914Q376.53125 59.55729 375.90625 59.93229Q375.29688 60.291664 374.8125 60.46354L374.8125 59.447914Q375.6875 59.02604 376.34375 58.447914Q377.01562 57.854164 377.29688 57.291664L377.96875 57.291664L377.96875 65.916664ZM381.0 61.68229Q381.0 60.15104 381.3125 59.229164Q381.625 58.291664 382.23438 57.791664Q382.85938 57.291664 383.79688 57.291664Q384.48438 57.291664 385.0 57.572914Q385.53125 57.854164 385.875 58.385414Q386.21875 58.90104 386.40625 59.65104Q386.59375 60.40104 386.59375 61.68229Q386.59375 63.197914 386.28125 64.11979Q385.98438 65.041664 385.35938 65.55729Q384.75 66.05729 383.79688 66.05729Q382.5625 66.05729 381.84375 65.166664Q381.0 64.104164 381.0 61.68229ZM382.07812 61.68229Q382.07812 63.791664 382.57812 64.49479Q383.07812 65.197914 383.79688 65.197914Q384.53125 65.197914 385.01562 64.49479Q385.51562 63.791664 385.51562 61.68229Q385.51562 59.55729 385.01562 58.86979Q384.53125 58.166664 383.78125 58.166664Q383.0625 58.166664 382.625 58.77604Q382.07812 59.55729 382.07812 61.68229ZM391.04688 63.15104L392.10938 63.05729Q392.1875 63.71354 392.46875 64.11979Q392.75 64.52604 393.32812 64.791664Q393.92188 65.041664 394.65625 65.041664Q395.29688 65.041664 395.79688 64.854164Q396.29688 64.65104 396.53125 64.322914Q396.78125 63.979164 396.78125 63.58854Q396.78125 63.18229 396.54688 62.885414Q396.3125 62.572914 395.78125 62.36979Q395.42188 62.229164 394.23438 61.947914Q393.0625 61.666664 392.59375 61.416664Q391.96875 61.08854 391.67188 60.61979Q391.375 60.135414 391.375 59.541664Q391.375 58.90104 391.73438 58.33854Q392.10938 57.760414 392.8125 57.479164Q393.53125 57.18229 394.39062 57.18229Q395.34375 57.18229 396.07812 57.49479Q396.8125 57.791664 397.20312 58.40104Q397.59375 58.99479 397.625 59.74479L396.53125 59.822914Q396.4375 59.010414 395.92188 58.604164Q395.42188 58.18229 394.4375 58.18229Q393.40625 58.18229 392.9375 58.55729Q392.46875 58.93229 392.46875 59.46354Q392.46875 59.93229 392.79688 60.229164Q393.125 60.52604 394.5 60.83854Q395.89062 61.15104 396.40625 61.385414Q397.15625 61.74479 397.51562 62.27604Q397.875 62.791664 397.875 63.49479Q397.875 64.18229 397.48438 64.791664Q397.09375 65.385414 396.35938 65.729164Q395.625 66.05729 394.70312 66.05729Q393.53125 66.05729 392.73438 65.729164Q391.95312 65.385414 391.5 64.697914Q391.0625 64.010414 391.04688 63.15104ZM403.54688 63.916664L404.64062 64.041664Q404.39062 64.99479 403.6875 65.52604Q402.98438 66.05729 401.90625 66.05729Q400.54688 66.05729 399.73438 65.21354Q398.9375 64.36979 398.9375 62.854164Q398.9375 61.291664 399.75 60.43229Q400.5625 59.55729 401.84375 59.55729Q403.09375 59.55729 403.875 60.40104Q404.67188 61.24479 404.67188 62.791664Q404.67188 62.885414 404.67188 63.072914L400.03125 63.072914Q400.09375 64.104164 400.60938 64.65104Q401.125 65.18229 401.90625 65.18229Q402.48438 65.18229 402.89062 64.885414Q403.3125 64.572914 403.54688 63.916664ZM400.09375 62.21354L403.5625 62.21354Q403.5 61.416664 403.17188 61.02604Q402.65625 60.416664 401.85938 60.416664Q401.125 60.416664 400.625 60.90104Q400.14062 61.385414 400.09375 62.21354ZM410.35938 63.635414L411.39062 63.77604Q411.21875 64.83854 410.51562 65.447914Q409.8125 66.05729 408.79688 66.05729Q407.51562 66.05729 406.73438 65.229164Q405.96875 64.385414 405.96875 62.822914Q405.96875 61.822914 406.29688 61.072914Q406.64062 60.30729 407.3125 59.93229Q408.0 59.55729 408.8125 59.55729Q409.8125 59.55729 410.45312 60.072914Q411.10938 60.572914 411.29688 61.52604L410.26562 61.68229Q410.125 61.05729 409.75 60.74479Q409.375 60.416664 408.84375 60.416664Q408.04688 60.416664 407.54688 60.99479Q407.04688 61.55729 407.04688 62.791664Q407.04688 64.05729 407.53125 64.61979Q408.01562 65.18229 408.78125 65.18229Q409.40625 65.18229 409.8125 64.80729Q410.23438 64.43229 410.35938 63.635414ZM411.90625 62.80729Q411.90625 61.072914 412.85938 60.24479Q413.65625 59.55729 414.8125 59.55729Q416.09375 59.55729 416.90625 60.40104Q417.73438 61.229164 417.73438 62.71354Q417.73438 63.916664 417.375 64.604164Q417.01562 65.291664 416.3125 65.68229Q415.625 66.05729 414.8125 66.05729Q413.51562 66.05729 412.70312 65.229164Q411.90625 64.385414 411.90625 62.80729ZM412.98438 62.80729Q412.98438 63.99479 413.5 64.58854Q414.03125 65.18229 414.8125 65.18229Q415.60938 65.18229 416.125 64.58854Q416.64062 63.99479 416.64062 62.77604Q416.64062 61.61979 416.10938 61.02604Q415.59375 60.43229 414.8125 60.43229Q414.03125 60.43229 413.5 61.02604Q412.98438 61.604164 412.98438 62.80729ZM419.29688 65.916664L419.29688 59.697914L420.23438 59.697914L420.23438 60.572914Q420.92188 59.55729 422.21875 59.55729Q422.78125 59.55729 423.25 59.760414Q423.73438 59.96354 423.96875 60.291664Q424.20312 60.61979 424.29688 61.05729Q424.34375 61.354164 424.34375 62.08854L424.34375 65.916664L423.29688 65.916664L423.29688 62.135414Q423.29688 61.479164 423.17188 61.166664Q423.04688 60.854164 422.73438 60.666664Q422.42188 60.46354 422.0 60.46354Q421.32812 60.46354 420.82812 60.90104Q420.34375 61.322914 420.34375 62.510414L420.34375 65.916664L419.29688 65.916664ZM430.32812 65.916664L430.32812 65.135414Q429.73438 66.05729 428.59375 66.05729Q427.84375 66.05729 427.21875 65.65104Q426.59375 65.229164 426.25 64.49479Q425.90625 63.760414 425.90625 62.80729Q425.90625 61.885414 426.21875 61.11979Q426.53125 60.354164 427.15625 59.96354Q427.78125 59.55729 428.54688 59.55729Q429.10938 59.55729 429.54688 59.791664Q429.98438 60.02604 430.26562 60.40104L430.26562 57.322914L431.3125 57.322914L431.3125 65.916664L430.32812 65.916664ZM427.0 62.80729Q427.0 64.010414 427.5 64.604164Q428.0 65.18229 428.6875 65.18229Q429.375 65.18229 429.85938 64.61979Q430.34375 64.05729 430.34375 62.90104Q430.34375 61.61979 429.84375 61.02604Q429.35938 60.43229 428.64062 60.43229Q427.9375 60.43229 427.46875 61.010414Q427.0 61.572914 427.0 62.80729ZM432.875 64.05729L433.90625 63.90104Q434.0 64.52604 434.39062 64.854164Q434.79688 65.18229 435.53125 65.18229Q436.25 65.18229 436.59375 64.90104Q436.95312 64.604164 436.95312 64.197914Q436.95312 63.83854 436.64062 63.635414Q436.42188 63.49479 435.5625 63.27604Q434.40625 62.979164 433.95312 62.77604Q433.51562 62.55729 433.28125 62.18229Q433.04688 61.80729 433.04688 61.33854Q433.04688 60.93229 433.23438 60.572914Q433.42188 60.21354 433.75 59.979164Q434.0 59.80729 434.42188 59.68229Q434.84375 59.55729 435.34375 59.55729Q436.0625 59.55729 436.60938 59.77604Q437.17188 59.979164 437.4375 60.33854Q437.70312 60.697914 437.79688 61.291664L436.76562 61.43229Q436.70312 60.96354 436.35938 60.697914Q436.03125 60.416664 435.40625 60.416664Q434.6875 60.416664 434.375 60.666664Q434.0625 60.90104 434.0625 61.229164Q434.0625 61.43229 434.1875 61.58854Q434.32812 61.760414 434.59375 61.86979Q434.75 61.93229 435.53125 62.135414Q436.65625 62.447914 437.09375 62.635414Q437.53125 62.822914 437.78125 63.18229Q438.03125 63.541664 438.03125 64.08854Q438.03125 64.61979 437.71875 65.08854Q437.42188 65.541664 436.84375 65.80729Q436.26562 66.05729 435.53125 66.05729Q434.3125 66.05729 433.67188 65.55729Q433.04688 65.041664 432.875 64.05729Z" fill-rule="nonzero"/><path fill="#757575" d="M226.04688 37.55L226.04688 23.2375L231.4375 23.2375Q232.875 23.2375 233.625 23.3625Q234.67188 23.55 235.39062 24.05Q236.10938 24.534374 236.53125 25.425Q236.96875 26.315624 236.96875 27.378124Q236.96875 29.20625 235.79688 30.471874Q234.64062 31.721874 231.60938 31.721874L227.9375 31.721874L227.9375 37.55L226.04688 37.55ZM227.9375 30.034374L231.64062 30.034374Q233.46875 30.034374 234.23438 29.3625Q235.01562 28.675 235.01562 27.425Q235.01562 26.534374 234.5625 25.89375Q234.10938 25.253124 233.375 25.05Q232.89062 24.925 231.59375 24.925L227.9375 24.925L227.9375 30.034374ZM245.92188 34.20625L247.73438 34.440624Q247.3125 36.01875 246.14062 36.909374Q244.98438 37.784374 243.17188 37.784374Q240.90625 37.784374 239.5625 36.39375Q238.23438 34.9875 238.23438 32.45625Q238.23438 29.83125 239.57812 28.39375Q240.92188 26.940624 243.07812 26.940624Q245.15625 26.940624 246.46875 28.3625Q247.79688 29.76875 247.79688 32.346874Q247.79688 32.503124 247.78125 32.815624L240.04688 32.815624Q240.14062 34.51875 241.01562 35.425Q241.89062 36.33125 243.1875 36.33125Q244.15625 36.33125 244.82812 35.83125Q245.51562 35.315624 245.92188 34.20625ZM240.14062 31.3625L245.9375 31.3625Q245.82812 30.065624 245.28125 29.409374Q244.4375 28.39375 243.09375 28.39375Q241.89062 28.39375 241.0625 29.20625Q240.23438 30.003124 240.14062 31.3625ZM249.79688 37.55L249.79688 27.175L251.375 27.175L251.375 28.753124Q251.98438 27.64375 252.5 27.3Q253.01562 26.940624 253.625 26.940624Q254.51562 26.940624 255.4375 27.503124L254.82812 29.14375Q254.1875 28.753124 253.54688 28.753124Q252.96875 28.753124 252.5 29.1125Q252.04688 29.45625 251.84375 30.065624Q251.5625 31.003124 251.5625 32.1125L251.5625 37.55L249.79688 37.55ZM263.59375 33.753124L265.3125 33.971874Q265.03125 35.76875 263.85938 36.784374Q262.70312 37.784374 261.0 37.784374Q258.875 37.784374 257.57812 36.39375Q256.28125 35.003124 256.28125 32.409374Q256.28125 30.721874 256.82812 29.471874Q257.39062 28.20625 258.53125 27.58125Q259.67188 26.940624 261.01562 26.940624Q262.70312 26.940624 263.76562 27.8Q264.84375 28.659374 265.15625 30.221874L263.4375 30.4875Q263.20312 29.440624 262.57812 28.925Q261.95312 28.39375 261.07812 28.39375Q259.75 28.39375 258.92188 29.346874Q258.09375 30.3 258.09375 32.346874Q258.09375 34.440624 258.89062 35.39375Q259.6875 36.33125 260.98438 36.33125Q262.01562 36.33125 262.70312 35.70625Q263.40625 35.065624 263.59375 33.753124ZM273.92188 34.20625L275.73438 34.440624Q275.3125 36.01875 274.14062 36.909374Q272.98438 37.784374 271.17188 37.784374Q268.90625 37.784374 267.5625 36.39375Q266.23438 34.9875 266.23438 32.45625Q266.23438 29.83125 267.57812 28.39375Q268.92188 26.940624 271.07812 26.940624Q273.15625 26.940624 274.46875 28.3625Q275.79688 29.76875 275.79688 32.346874Q275.79688 32.503124 275.78125 32.815624L268.04688 32.815624Q268.14062 34.51875 269.01562 35.425Q269.89062 36.33125 271.1875 36.33125Q272.15625 36.33125 272.82812 35.83125Q273.51562 35.315624 273.92188 34.20625ZM268.14062 31.3625L273.9375 31.3625Q273.82812 30.065624 273.28125 29.409374Q272.4375 28.39375 271.09375 28.39375Q269.89062 28.39375 269.0625 29.20625Q268.23438 30.003124 268.14062 31.3625ZM277.8125 37.55L277.8125 27.175L279.40625 27.175L279.40625 28.659374Q280.54688 26.940624 282.70312 26.940624Q283.64062 26.940624 284.42188 27.284374Q285.21875 27.6125 285.60938 28.159374Q286.0 28.70625 286.15625 29.45625Q286.25 29.95625 286.25 31.175L286.25 37.55L284.48438 37.55L284.48438 31.2375Q284.48438 30.159374 284.28125 29.628124Q284.07812 29.096874 283.54688 28.784374Q283.03125 28.471874 282.32812 28.471874Q281.20312 28.471874 280.39062 29.190624Q279.57812 29.89375 279.57812 31.878124L279.57812 37.55L277.8125 37.55ZM291.65625 35.971874L291.90625 37.534374Q291.17188 37.690624 290.57812 37.690624Q289.625 37.690624 289.09375 37.39375Q288.57812 37.08125 288.35938 36.596874Q288.14062 36.096874 288.14062 34.51875L288.14062 28.55L286.85938 28.55L286.85938 27.175L288.14062 27.175L288.14062 24.6125L289.89062 23.55L289.89062 27.175L291.65625 27.175L291.65625 28.55L289.89062 28.55L289.89062 34.6125Q289.89062 35.3625 289.98438 35.58125Q290.07812 35.784374 290.28125 35.925Q290.5 36.05 290.89062 36.05Q291.17188 36.05 291.65625 35.971874ZM300.07812 37.55L300.07812 23.2375L310.4375 23.2375L310.4375 24.925L301.98438 24.925L301.98438 29.3L309.89062 29.3L309.89062 30.9875L301.98438 30.9875L301.98438 35.8625L310.76562 35.8625L310.76562 37.55L300.07812 37.55ZM311.64062 37.55L315.4375 32.159374L311.9375 27.175L314.125 27.175L315.71875 29.6125Q316.17188 30.3 316.4375 30.76875Q316.875 30.128124 317.23438 29.628124L318.98438 27.175L321.07812 27.175L317.5 32.065624L321.35938 37.55L319.20312 37.55L317.0625 34.33125L316.5 33.45625L313.78125 37.55L311.64062 37.55ZM321.8125 41.51875L321.8125 27.175L323.42188 27.175L323.42188 28.51875Q323.98438 27.7375 324.6875 27.346874Q325.40625 26.940624 326.42188 26.940624Q327.75 26.940624 328.76562 27.628124Q329.78125 28.315624 330.29688 29.565624Q330.82812 30.8 330.82812 32.284374Q330.82812 33.878124 330.25 35.159374Q329.6875 36.425 328.59375 37.1125Q327.5 37.784374 326.29688 37.784374Q325.42188 37.784374 324.71875 37.409374Q324.03125 37.034374 323.57812 36.471874L323.57812 41.51875L321.8125 41.51875ZM323.40625 32.425Q323.40625 34.425 324.21875 35.378124Q325.03125 36.33125 326.1875 36.33125Q327.35938 36.33125 328.1875 35.346874Q329.03125 34.3625 329.03125 32.26875Q329.03125 30.3 328.20312 29.315624Q327.39062 28.315624 326.26562 28.315624Q325.14062 28.315624 324.26562 29.378124Q323.40625 30.425 323.40625 32.425ZM332.78125 37.55L332.78125 23.2375L334.53125 23.2375L334.53125 37.55L332.78125 37.55ZM336.17188 32.3625Q336.17188 29.4875 337.76562 28.096874Q339.10938 26.940624 341.03125 26.940624Q343.17188 26.940624 344.51562 28.346874Q345.875 29.753124 345.875 32.221874Q345.875 34.221874 345.28125 35.378124Q344.6875 36.51875 343.53125 37.159374Q342.39062 37.784374 341.03125 37.784374Q338.84375 37.784374 337.5 36.39375Q336.17188 34.9875 336.17188 32.3625ZM337.96875 32.3625Q337.96875 34.3625 338.82812 35.346874Q339.70312 36.33125 341.03125 36.33125Q342.34375 36.33125 343.20312 35.346874Q344.07812 34.346874 344.07812 32.3Q344.07812 30.378124 343.20312 29.39375Q342.32812 28.39375 341.03125 28.39375Q339.70312 28.39375 338.82812 29.39375Q337.96875 30.378124 337.96875 32.3625ZM347.79688 37.55L347.79688 27.175L349.375 27.175L349.375 28.753124Q349.98438 27.64375 350.5 27.3Q351.01562 26.940624 351.625 26.940624Q352.51562 26.940624 353.4375 27.503124L352.82812 29.14375Q352.1875 28.753124 351.54688 28.753124Q350.96875 28.753124 350.5 29.1125Q350.04688 29.45625 349.84375 30.065624Q349.5625 31.003124 349.5625 32.1125L349.5625 37.55L347.79688 37.55ZM361.92188 34.20625L363.73438 34.440624Q363.3125 36.01875 362.14062 36.909374Q360.98438 37.784374 359.17188 37.784374Q356.90625 37.784374 355.5625 36.39375Q354.23438 34.9875 354.23438 32.45625Q354.23438 29.83125 355.57812 28.39375Q356.92188 26.940624 359.07812 26.940624Q361.15625 26.940624 362.46875 28.3625Q363.79688 29.76875 363.79688 32.346874Q363.79688 32.503124 363.78125 32.815624L356.04688 32.815624Q356.14062 34.51875 357.01562 35.425Q357.89062 36.33125 359.1875 36.33125Q360.15625 36.33125 360.82812 35.83125Q361.51562 35.315624 361.92188 34.20625ZM356.14062 31.3625L361.9375 31.3625Q361.82812 30.065624 361.28125 29.409374Q360.4375 28.39375 359.09375 28.39375Q357.89062 28.39375 357.0625 29.20625Q356.23438 30.003124 356.14062 31.3625ZM372.54688 37.55L372.54688 36.2375Q371.5625 37.784374 369.64062 37.784374Q368.40625 37.784374 367.35938 37.096874Q366.32812 36.409374 365.75 35.190624Q365.1875 33.971874 365.1875 32.378124Q365.1875 30.815624 365.70312 29.55Q366.21875 28.284374 367.25 27.6125Q368.29688 26.940624 369.5625 26.940624Q370.5 26.940624 371.23438 27.346874Q371.96875 27.7375 372.4375 28.3625L372.4375 23.2375L374.17188 23.2375L374.17188 37.55L372.54688 37.55ZM366.98438 32.378124Q366.98438 34.3625 367.82812 35.346874Q368.67188 36.33125 369.8125 36.33125Q370.96875 36.33125 371.76562 35.39375Q372.57812 34.45625 372.57812 32.51875Q372.57812 30.39375 371.75 29.39375Q370.9375 28.39375 369.73438 28.39375Q368.5625 28.39375 367.76562 29.3625Q366.98438 30.315624 366.98438 32.378124Z" fill-rule="nonzero"/></svg>